%TF.GenerationSoftware,KiCad,Pcbnew,7.0.1*%
%TF.CreationDate,2023-04-05T20:47:30+09:00*%
%TF.ProjectId,test4004,74657374-3430-4303-942e-6b696361645f,rev?*%
%TF.SameCoordinates,Original*%
%TF.FileFunction,Soldermask,Bot*%
%TF.FilePolarity,Negative*%
%FSLAX46Y46*%
G04 Gerber Fmt 4.6, Leading zero omitted, Abs format (unit mm)*
G04 Created by KiCad (PCBNEW 7.0.1) date 2023-04-05 20:47:30*
%MOMM*%
%LPD*%
G01*
G04 APERTURE LIST*
%ADD10R,1.800000X1.800000*%
%ADD11C,1.800000*%
%ADD12C,1.600000*%
%ADD13O,1.600000X1.600000*%
%ADD14R,1.600000X1.600000*%
%ADD15C,3.000000*%
%ADD16C,10.160000*%
%ADD17R,1.200000X1.200000*%
%ADD18C,1.200000*%
%ADD19R,1.440000X2.000000*%
%ADD20O,1.440000X2.000000*%
%ADD21R,1.700000X1.700000*%
%ADD22O,1.700000X1.700000*%
%ADD23C,1.500000*%
%ADD24C,2.000000*%
G04 APERTURE END LIST*
D10*
%TO.C,D19*%
X132080000Y-50800000D03*
D11*
X132080000Y-53340000D03*
%TD*%
D12*
%TO.C,C12*%
X15240000Y-17780000D03*
X10240000Y-17780000D03*
%TD*%
%TO.C,C7*%
X35560000Y-36830000D03*
X30560000Y-36830000D03*
%TD*%
D10*
%TO.C,D20*%
X127000000Y-50800000D03*
D11*
X127000000Y-53340000D03*
%TD*%
D12*
%TO.C,R5*%
X172720000Y-7620000D03*
D13*
X172720000Y-15240000D03*
%TD*%
D14*
%TO.C,D28*%
X165100000Y-83820000D03*
D13*
X165100000Y-86360000D03*
%TD*%
D12*
%TO.C,R26*%
X177800000Y-73660000D03*
D13*
X177800000Y-81280000D03*
%TD*%
D10*
%TO.C,D9*%
X101600000Y-40640000D03*
D11*
X101600000Y-43180000D03*
%TD*%
D12*
%TO.C,R33*%
X114300000Y-114300000D03*
D13*
X121920000Y-114300000D03*
%TD*%
D14*
%TO.C,D1*%
X162560000Y-60960000D03*
D13*
X165100000Y-60960000D03*
%TD*%
D12*
%TO.C,R12*%
X170180000Y-27940000D03*
D13*
X162560000Y-27940000D03*
%TD*%
D12*
%TO.C,C15*%
X96520000Y-13970000D03*
X96520000Y-8970000D03*
%TD*%
%TO.C,C1*%
X149780000Y-5080000D03*
X144780000Y-5080000D03*
%TD*%
%TO.C,R2*%
X152400000Y-63500000D03*
D13*
X160020000Y-63500000D03*
%TD*%
D12*
%TO.C,R37*%
X22860000Y-83820000D03*
D13*
X22860000Y-91440000D03*
%TD*%
D10*
%TO.C,D13*%
X121920000Y-40640000D03*
D11*
X121920000Y-43180000D03*
%TD*%
D15*
%TO.C,H3*%
X5000000Y-122000000D03*
%TD*%
D14*
%TO.C,D4*%
X162560000Y-68580000D03*
D13*
X165100000Y-68580000D03*
%TD*%
D14*
%TO.C,SW3*%
X43180000Y-109220000D03*
D13*
X45720000Y-109220000D03*
X48260000Y-109220000D03*
X50800000Y-109220000D03*
X50800000Y-101600000D03*
X48260000Y-101600000D03*
X45720000Y-101600000D03*
X43180000Y-101600000D03*
%TD*%
D12*
%TO.C,R20*%
X162560000Y-73660000D03*
D13*
X162560000Y-81280000D03*
%TD*%
D10*
%TO.C,D17*%
X101600000Y-50800000D03*
D11*
X101600000Y-53340000D03*
%TD*%
D12*
%TO.C,C5*%
X35560000Y-8970000D03*
X35560000Y-13970000D03*
%TD*%
D10*
%TO.C,D38*%
X33020000Y-96520000D03*
D11*
X33020000Y-93980000D03*
%TD*%
D12*
%TO.C,C17*%
X96520000Y-29210000D03*
X96520000Y-24210000D03*
%TD*%
%TO.C,R13*%
X53340000Y-34290000D03*
D13*
X60960000Y-34290000D03*
%TD*%
D14*
%TO.C,D24*%
X175260000Y-83820000D03*
D13*
X175260000Y-86360000D03*
%TD*%
D12*
%TO.C,C13*%
X55880000Y-48260000D03*
X55880000Y-43260000D03*
%TD*%
D14*
%TO.C,U14*%
X116840000Y-88900000D03*
D13*
X119380000Y-88900000D03*
X121920000Y-88900000D03*
X124460000Y-88900000D03*
X127000000Y-88900000D03*
X129540000Y-88900000D03*
X132080000Y-88900000D03*
X132080000Y-81280000D03*
X129540000Y-81280000D03*
X127000000Y-81280000D03*
X124460000Y-81280000D03*
X121920000Y-81280000D03*
X119380000Y-81280000D03*
X116840000Y-81280000D03*
%TD*%
D12*
%TO.C,R23*%
X170180000Y-73660000D03*
D13*
X170180000Y-81280000D03*
%TD*%
D12*
%TO.C,R6*%
X160020000Y-20320000D03*
D13*
X152400000Y-20320000D03*
%TD*%
D10*
%TO.C,D15*%
X111760000Y-50800000D03*
D11*
X111760000Y-53340000D03*
%TD*%
D16*
%TO.C,J5*%
X12700000Y-78740000D03*
%TD*%
D17*
%TO.C,C4*%
X169545000Y-32385000D03*
D18*
X168045000Y-32385000D03*
%TD*%
D19*
%TO.C,U4*%
X68580000Y-50800000D03*
D20*
X71120000Y-50800000D03*
X73660000Y-50800000D03*
X76200000Y-50800000D03*
X78740000Y-50800000D03*
X81280000Y-50800000D03*
X83820000Y-50800000D03*
X86360000Y-50800000D03*
X86360000Y-43180000D03*
X83820000Y-43180000D03*
X81280000Y-43180000D03*
X78740000Y-43180000D03*
X76200000Y-43180000D03*
X73660000Y-43180000D03*
X71120000Y-43180000D03*
X68580000Y-43180000D03*
%TD*%
D12*
%TO.C,R31*%
X38100000Y-96520000D03*
D13*
X45720000Y-96520000D03*
%TD*%
D21*
%TO.C,J2*%
X127000000Y-7620000D03*
D22*
X127000000Y-10160000D03*
X127000000Y-12700000D03*
%TD*%
D14*
%TO.C,D2*%
X162560000Y-63500000D03*
D13*
X165100000Y-63500000D03*
%TD*%
D14*
%TO.C,D26*%
X170180000Y-83820000D03*
D13*
X170180000Y-86360000D03*
%TD*%
D14*
%TO.C,U8*%
X101600000Y-30480000D03*
D13*
X104140000Y-30480000D03*
X106680000Y-30480000D03*
X109220000Y-30480000D03*
X111760000Y-30480000D03*
X114300000Y-30480000D03*
X116840000Y-30480000D03*
X119380000Y-30480000D03*
X119380000Y-22860000D03*
X116840000Y-22860000D03*
X114300000Y-22860000D03*
X111760000Y-22860000D03*
X109220000Y-22860000D03*
X106680000Y-22860000D03*
X104140000Y-22860000D03*
X101600000Y-22860000D03*
%TD*%
D12*
%TO.C,R22*%
X167640000Y-73660000D03*
D13*
X167640000Y-81280000D03*
%TD*%
D10*
%TO.C,D7*%
X111760000Y-40640000D03*
D11*
X111760000Y-43180000D03*
%TD*%
D12*
%TO.C,R38*%
X27940000Y-83820000D03*
D13*
X27940000Y-91440000D03*
%TD*%
D12*
%TO.C,C9*%
X35560000Y-45720000D03*
X30560000Y-45720000D03*
%TD*%
D14*
%TO.C,D3*%
X162560000Y-66040000D03*
D13*
X165100000Y-66040000D03*
%TD*%
D14*
%TO.C,U3*%
X132080000Y-30480000D03*
D13*
X134620000Y-30480000D03*
X137160000Y-30480000D03*
X139700000Y-30480000D03*
X142240000Y-30480000D03*
X144780000Y-30480000D03*
X147320000Y-30480000D03*
X147320000Y-22860000D03*
X144780000Y-22860000D03*
X142240000Y-22860000D03*
X139700000Y-22860000D03*
X137160000Y-22860000D03*
X134620000Y-22860000D03*
X132080000Y-22860000D03*
%TD*%
D14*
%TO.C,U5*%
X68580000Y-15240000D03*
D13*
X71120000Y-15240000D03*
X73660000Y-15240000D03*
X76200000Y-15240000D03*
X78740000Y-15240000D03*
X81280000Y-15240000D03*
X83820000Y-15240000D03*
X86360000Y-15240000D03*
X86360000Y-7620000D03*
X83820000Y-7620000D03*
X81280000Y-7620000D03*
X78740000Y-7620000D03*
X76200000Y-7620000D03*
X73660000Y-7620000D03*
X71120000Y-7620000D03*
X68580000Y-7620000D03*
%TD*%
D14*
%TO.C,D25*%
X172720000Y-83820000D03*
D13*
X172720000Y-86360000D03*
%TD*%
D12*
%TO.C,R1*%
X152400000Y-60960000D03*
D13*
X160020000Y-60960000D03*
%TD*%
D12*
%TO.C,R17*%
X27940000Y-27940000D03*
D13*
X27940000Y-20320000D03*
%TD*%
D12*
%TO.C,C2*%
X165020000Y-5080000D03*
X160020000Y-5080000D03*
%TD*%
D14*
%TO.C,D23*%
X177800000Y-83820000D03*
D13*
X177800000Y-86360000D03*
%TD*%
D12*
%TO.C,R18*%
X48260000Y-43180000D03*
D13*
X40640000Y-43180000D03*
%TD*%
D11*
%TO.C,SW4*%
X27940000Y-114300000D03*
X27940000Y-104140000D03*
D10*
X25400000Y-111760000D03*
D11*
X25400000Y-109260000D03*
X25400000Y-106760000D03*
X30480000Y-111760000D03*
X30480000Y-109260000D03*
X30480000Y-106760000D03*
%TD*%
D21*
%TO.C,J1*%
X180340000Y-20320000D03*
D22*
X180340000Y-22860000D03*
X180340000Y-25400000D03*
X180340000Y-27940000D03*
X180340000Y-30480000D03*
X180340000Y-33020000D03*
%TD*%
D14*
%TO.C,U15*%
X116840000Y-76200000D03*
D13*
X119380000Y-76200000D03*
X121920000Y-76200000D03*
X124460000Y-76200000D03*
X127000000Y-76200000D03*
X129540000Y-76200000D03*
X132080000Y-76200000D03*
X132080000Y-68580000D03*
X129540000Y-68580000D03*
X127000000Y-68580000D03*
X124460000Y-68580000D03*
X121920000Y-68580000D03*
X119380000Y-68580000D03*
X116840000Y-68580000D03*
%TD*%
D14*
%TO.C,U17*%
X147320000Y-104140000D03*
D13*
X149860000Y-104140000D03*
X152400000Y-104140000D03*
X154940000Y-104140000D03*
X157480000Y-104140000D03*
X160020000Y-104140000D03*
X162560000Y-104140000D03*
X165100000Y-104140000D03*
X167640000Y-104140000D03*
X170180000Y-104140000D03*
X172720000Y-104140000D03*
X175260000Y-104140000D03*
X177800000Y-104140000D03*
X180340000Y-104140000D03*
X180340000Y-93980000D03*
X177800000Y-93980000D03*
X175260000Y-93980000D03*
X172720000Y-93980000D03*
X170180000Y-93980000D03*
X167640000Y-93980000D03*
X165100000Y-93980000D03*
X162560000Y-93980000D03*
X160020000Y-93980000D03*
X157480000Y-93980000D03*
X154940000Y-93980000D03*
X152400000Y-93980000D03*
X149860000Y-93980000D03*
X147320000Y-93980000D03*
%TD*%
D12*
%TO.C,R11*%
X170180000Y-25400000D03*
D13*
X162560000Y-25400000D03*
%TD*%
D10*
%TO.C,D11*%
X132080000Y-40640000D03*
D11*
X132080000Y-43180000D03*
%TD*%
D12*
%TO.C,R36*%
X25400000Y-83820000D03*
D13*
X25400000Y-91440000D03*
%TD*%
D12*
%TO.C,C14*%
X63500000Y-13890000D03*
X63500000Y-8890000D03*
%TD*%
%TO.C,R10*%
X170180000Y-22860000D03*
D13*
X162560000Y-22860000D03*
%TD*%
D12*
%TO.C,C20*%
X142240000Y-96520000D03*
X142240000Y-101520000D03*
%TD*%
D14*
%TO.C,RN2*%
X137160000Y-60960000D03*
D13*
X134620000Y-60960000D03*
X132080000Y-60960000D03*
X129540000Y-60960000D03*
X127000000Y-60960000D03*
%TD*%
D14*
%TO.C,U10*%
X40635000Y-15240000D03*
D13*
X43175000Y-15240000D03*
X45715000Y-15240000D03*
X48255000Y-15240000D03*
X50795000Y-15240000D03*
X53335000Y-15240000D03*
X55875000Y-15240000D03*
X55875000Y-7620000D03*
X53335000Y-7620000D03*
X50795000Y-7620000D03*
X48255000Y-7620000D03*
X45715000Y-7620000D03*
X43175000Y-7620000D03*
X40635000Y-7620000D03*
%TD*%
D14*
%TO.C,D22*%
X180340000Y-83820000D03*
D13*
X180340000Y-86360000D03*
%TD*%
D14*
%TO.C,D31*%
X124460000Y-114300000D03*
D13*
X127000000Y-114300000D03*
%TD*%
D14*
%TO.C,D27*%
X167640000Y-83820000D03*
D13*
X167640000Y-86360000D03*
%TD*%
D15*
%TO.C,H1*%
X5000000Y-5000000D03*
%TD*%
D12*
%TO.C,R24*%
X172720000Y-73660000D03*
D13*
X172720000Y-81280000D03*
%TD*%
D12*
%TO.C,R16*%
X12700000Y-20320000D03*
D13*
X12700000Y-27940000D03*
%TD*%
D12*
%TO.C,R15*%
X40640000Y-45720000D03*
D13*
X48260000Y-45720000D03*
%TD*%
D12*
%TO.C,R29*%
X38100000Y-91440000D03*
D13*
X45720000Y-91440000D03*
%TD*%
D12*
%TO.C,R3*%
X152400000Y-66040000D03*
D13*
X160020000Y-66040000D03*
%TD*%
D14*
%TO.C,U18*%
X147320000Y-116840000D03*
D13*
X149860000Y-116840000D03*
X152400000Y-116840000D03*
X154940000Y-116840000D03*
X157480000Y-116840000D03*
X160020000Y-116840000D03*
X162560000Y-116840000D03*
X165100000Y-116840000D03*
X167640000Y-116840000D03*
X170180000Y-116840000D03*
X172720000Y-116840000D03*
X175260000Y-116840000D03*
X177800000Y-116840000D03*
X180340000Y-116840000D03*
X180340000Y-106680000D03*
X177800000Y-106680000D03*
X175260000Y-106680000D03*
X172720000Y-106680000D03*
X170180000Y-106680000D03*
X167640000Y-106680000D03*
X165100000Y-106680000D03*
X162560000Y-106680000D03*
X160020000Y-106680000D03*
X157480000Y-106680000D03*
X154940000Y-106680000D03*
X152400000Y-106680000D03*
X149860000Y-106680000D03*
X147320000Y-106680000D03*
%TD*%
D10*
%TO.C,D18*%
X137160000Y-50800000D03*
D11*
X137160000Y-53340000D03*
%TD*%
D10*
%TO.C,D16*%
X106680000Y-50800000D03*
D11*
X106680000Y-53340000D03*
%TD*%
D14*
%TO.C,RN3*%
X121920000Y-63500000D03*
D13*
X119380000Y-63500000D03*
X116840000Y-63500000D03*
X114300000Y-63500000D03*
X111760000Y-63500000D03*
%TD*%
D14*
%TO.C,D36*%
X22860000Y-71120000D03*
D13*
X22860000Y-78740000D03*
%TD*%
D14*
%TO.C,U9*%
X15240000Y-15240000D03*
D13*
X17780000Y-15240000D03*
X20320000Y-15240000D03*
X22860000Y-15240000D03*
X25400000Y-15240000D03*
X27940000Y-15240000D03*
X30480000Y-15240000D03*
X30480000Y-7620000D03*
X27940000Y-7620000D03*
X25400000Y-7620000D03*
X22860000Y-7620000D03*
X20320000Y-7620000D03*
X17780000Y-7620000D03*
X15240000Y-7620000D03*
%TD*%
D12*
%TO.C,R34*%
X114300000Y-111760000D03*
D13*
X121920000Y-111760000D03*
%TD*%
D10*
%TO.C,D37*%
X22860000Y-96520000D03*
D11*
X22860000Y-93980000D03*
%TD*%
D14*
%TO.C,U12*%
X38100000Y-30480000D03*
D13*
X40640000Y-30480000D03*
X43180000Y-30480000D03*
X45720000Y-30480000D03*
X48260000Y-30480000D03*
X50800000Y-30480000D03*
X53340000Y-30480000D03*
X55880000Y-30480000D03*
X55880000Y-22860000D03*
X53340000Y-22860000D03*
X50800000Y-22860000D03*
X48260000Y-22860000D03*
X45720000Y-22860000D03*
X43180000Y-22860000D03*
X40640000Y-22860000D03*
X38100000Y-22860000D03*
%TD*%
D21*
%TO.C,J3*%
X178430000Y-60960000D03*
D22*
X180970000Y-60960000D03*
X178430000Y-63500000D03*
X180970000Y-63500000D03*
X178430000Y-66040000D03*
X180970000Y-66040000D03*
X178430000Y-68580000D03*
X180970000Y-68580000D03*
%TD*%
D10*
%TO.C,D5*%
X180340000Y-15240000D03*
D11*
X177800000Y-15240000D03*
%TD*%
D23*
%TO.C,Y1*%
X17780000Y-22860000D03*
X22660000Y-22860000D03*
%TD*%
D12*
%TO.C,R21*%
X165100000Y-73660000D03*
D13*
X165100000Y-81280000D03*
%TD*%
D19*
%TO.C,U20*%
X53340000Y-81280000D03*
D20*
X55880000Y-81280000D03*
X58420000Y-81280000D03*
X60960000Y-81280000D03*
X63500000Y-81280000D03*
X66040000Y-81280000D03*
X68580000Y-81280000D03*
X71120000Y-81280000D03*
X73660000Y-81280000D03*
X76200000Y-81280000D03*
X78740000Y-81280000D03*
X81280000Y-81280000D03*
X83820000Y-81280000D03*
X86360000Y-81280000D03*
X88900000Y-81280000D03*
X91440000Y-81280000D03*
X93980000Y-81280000D03*
X96520000Y-81280000D03*
X99060000Y-81280000D03*
X101600000Y-81280000D03*
X101600000Y-66040000D03*
X99060000Y-66040000D03*
X96520000Y-66040000D03*
X93980000Y-66040000D03*
X91440000Y-66040000D03*
X88900000Y-66040000D03*
X86360000Y-66040000D03*
X83820000Y-66040000D03*
X81280000Y-66040000D03*
X78740000Y-66040000D03*
X76200000Y-66040000D03*
X73660000Y-66040000D03*
X71120000Y-66040000D03*
X68580000Y-66040000D03*
X66040000Y-66040000D03*
X63500000Y-66040000D03*
X60960000Y-66040000D03*
X58420000Y-66040000D03*
X55880000Y-66040000D03*
X53340000Y-66040000D03*
%TD*%
D14*
%TO.C,U6*%
X101600000Y-15240000D03*
D13*
X104140000Y-15240000D03*
X106680000Y-15240000D03*
X109220000Y-15240000D03*
X111760000Y-15240000D03*
X114300000Y-15240000D03*
X116840000Y-15240000D03*
X119380000Y-15240000D03*
X119380000Y-7620000D03*
X116840000Y-7620000D03*
X114300000Y-7620000D03*
X111760000Y-7620000D03*
X109220000Y-7620000D03*
X106680000Y-7620000D03*
X104140000Y-7620000D03*
X101600000Y-7620000D03*
%TD*%
D19*
%TO.C,U16*%
X66040000Y-111760000D03*
D20*
X68580000Y-111760000D03*
X71120000Y-111760000D03*
X73660000Y-111760000D03*
X76200000Y-111760000D03*
X78740000Y-111760000D03*
X81280000Y-111760000D03*
X83820000Y-111760000D03*
X86360000Y-111760000D03*
X88900000Y-111760000D03*
X91440000Y-111760000D03*
X93980000Y-111760000D03*
X96520000Y-111760000D03*
X99060000Y-111760000D03*
X99060000Y-96520000D03*
X96520000Y-96520000D03*
X93980000Y-96520000D03*
X91440000Y-96520000D03*
X88900000Y-96520000D03*
X86360000Y-96520000D03*
X83820000Y-96520000D03*
X81280000Y-96520000D03*
X78740000Y-96520000D03*
X76200000Y-96520000D03*
X73660000Y-96520000D03*
X71120000Y-96520000D03*
X68580000Y-96520000D03*
X66040000Y-96520000D03*
%TD*%
D12*
%TO.C,C16*%
X63500000Y-29210000D03*
X63500000Y-24210000D03*
%TD*%
%TO.C,C8*%
X35560000Y-40640000D03*
X30560000Y-40640000D03*
%TD*%
%TO.C,R7*%
X162560000Y-20320000D03*
D13*
X170180000Y-20320000D03*
%TD*%
D12*
%TO.C,C21*%
X142240000Y-109220000D03*
X142240000Y-114220000D03*
%TD*%
%TO.C,C23*%
X38100000Y-55960000D03*
X38100000Y-60960000D03*
%TD*%
D16*
%TO.C,J6*%
X12700000Y-93980000D03*
%TD*%
D12*
%TO.C,C19*%
X109220000Y-97870000D03*
X109220000Y-102870000D03*
%TD*%
D10*
%TO.C,D21*%
X121920000Y-50800000D03*
D11*
X121920000Y-53340000D03*
%TD*%
D15*
%TO.C,H4*%
X185500000Y-122000000D03*
%TD*%
D12*
%TO.C,C22*%
X111760000Y-81280000D03*
X111760000Y-76280000D03*
%TD*%
D14*
%TO.C,U2*%
X160020000Y-15240000D03*
D13*
X162560000Y-15240000D03*
X165100000Y-15240000D03*
X167640000Y-15240000D03*
X167640000Y-7620000D03*
X165100000Y-7620000D03*
X162560000Y-7620000D03*
X160020000Y-7620000D03*
%TD*%
D14*
%TO.C,D33*%
X124460000Y-109220000D03*
D13*
X127000000Y-109220000D03*
%TD*%
D12*
%TO.C,R19*%
X48260000Y-48260000D03*
D13*
X40640000Y-48260000D03*
%TD*%
D14*
%TO.C,D29*%
X162560000Y-83820000D03*
D13*
X162560000Y-86360000D03*
%TD*%
D12*
%TO.C,C6*%
X5080000Y-20320000D03*
X10080000Y-20320000D03*
%TD*%
%TO.C,C18*%
X50800000Y-96440000D03*
X50800000Y-91440000D03*
%TD*%
D14*
%TO.C,D32*%
X124460000Y-111760000D03*
D13*
X127000000Y-111760000D03*
%TD*%
D12*
%TO.C,R9*%
X160020000Y-25400000D03*
D13*
X152400000Y-25400000D03*
%TD*%
D14*
%TO.C,U7*%
X68580000Y-30480000D03*
D13*
X71120000Y-30480000D03*
X73660000Y-30480000D03*
X76200000Y-30480000D03*
X78740000Y-30480000D03*
X81280000Y-30480000D03*
X83820000Y-30480000D03*
X86360000Y-30480000D03*
X86360000Y-22860000D03*
X83820000Y-22860000D03*
X81280000Y-22860000D03*
X78740000Y-22860000D03*
X76200000Y-22860000D03*
X73660000Y-22860000D03*
X71120000Y-22860000D03*
X68580000Y-22860000D03*
%TD*%
D12*
%TO.C,R32*%
X114300000Y-116840000D03*
D13*
X121920000Y-116840000D03*
%TD*%
D10*
%TO.C,D8*%
X106680000Y-40640000D03*
D11*
X106680000Y-43180000D03*
%TD*%
D12*
%TO.C,C3*%
X155020000Y-27940000D03*
X160020000Y-27940000D03*
%TD*%
%TO.C,R8*%
X160020000Y-22860000D03*
D13*
X152400000Y-22860000D03*
%TD*%
D10*
%TO.C,D10*%
X137160000Y-40640000D03*
D11*
X137160000Y-43180000D03*
%TD*%
D14*
%TO.C,U11*%
X17780000Y-45720000D03*
D13*
X20320000Y-45720000D03*
X22860000Y-45720000D03*
X25400000Y-45720000D03*
X25400000Y-38100000D03*
X22860000Y-38100000D03*
X20320000Y-38100000D03*
X17780000Y-38100000D03*
%TD*%
D15*
%TO.C,H2*%
X185500000Y-5000000D03*
%TD*%
D14*
%TO.C,U19*%
X114300000Y-104140000D03*
D13*
X116840000Y-104140000D03*
X119380000Y-104140000D03*
X121920000Y-104140000D03*
X124460000Y-104140000D03*
X127000000Y-104140000D03*
X129540000Y-104140000D03*
X132080000Y-104140000D03*
X134620000Y-104140000D03*
X137160000Y-104140000D03*
X137160000Y-96520000D03*
X134620000Y-96520000D03*
X132080000Y-96520000D03*
X129540000Y-96520000D03*
X127000000Y-96520000D03*
X124460000Y-96520000D03*
X121920000Y-96520000D03*
X119380000Y-96520000D03*
X116840000Y-96520000D03*
X114300000Y-96520000D03*
%TD*%
D12*
%TO.C,R30*%
X38100000Y-93980000D03*
D13*
X45720000Y-93980000D03*
%TD*%
D14*
%TO.C,C25*%
X27940000Y-63500000D03*
D12*
X30440000Y-63500000D03*
%TD*%
%TO.C,R27*%
X180340000Y-73660000D03*
D13*
X180340000Y-81280000D03*
%TD*%
D14*
%TO.C,RN1*%
X121920000Y-60960000D03*
D13*
X119380000Y-60960000D03*
X116840000Y-60960000D03*
X114300000Y-60960000D03*
X111760000Y-60960000D03*
%TD*%
D24*
%TO.C,SW1*%
X163980000Y-45720000D03*
X157480000Y-45720000D03*
X163980000Y-41220000D03*
X157480000Y-41220000D03*
%TD*%
D10*
%TO.C,D14*%
X116840000Y-50800000D03*
D11*
X116840000Y-53340000D03*
%TD*%
D12*
%TO.C,C10*%
X17780000Y-17780000D03*
X22780000Y-17780000D03*
%TD*%
D10*
%TO.C,D12*%
X127000000Y-40640000D03*
D11*
X127000000Y-43180000D03*
%TD*%
D10*
%TO.C,D34*%
X27940000Y-96520000D03*
D11*
X27940000Y-93980000D03*
%TD*%
D14*
%TO.C,RN4*%
X137160000Y-63500000D03*
D13*
X134620000Y-63500000D03*
X132080000Y-63500000D03*
X129540000Y-63500000D03*
X127000000Y-63500000D03*
%TD*%
D14*
%TO.C,U13*%
X139700000Y-88900000D03*
D13*
X142240000Y-88900000D03*
X144780000Y-88900000D03*
X147320000Y-88900000D03*
X149860000Y-88900000D03*
X152400000Y-88900000D03*
X154940000Y-88900000D03*
X154940000Y-81280000D03*
X152400000Y-81280000D03*
X149860000Y-81280000D03*
X147320000Y-81280000D03*
X144780000Y-81280000D03*
X142240000Y-81280000D03*
X139700000Y-81280000D03*
%TD*%
D16*
%TO.C,J4*%
X12700000Y-63500000D03*
%TD*%
D12*
%TO.C,R35*%
X114300000Y-109220000D03*
D13*
X121920000Y-109220000D03*
%TD*%
D12*
%TO.C,R4*%
X152400000Y-68580000D03*
D13*
X160020000Y-68580000D03*
%TD*%
D14*
%TO.C,D30*%
X124460000Y-116840000D03*
D13*
X127000000Y-116840000D03*
%TD*%
D14*
%TO.C,C24*%
X5802621Y-38100000D03*
D12*
X8302621Y-38100000D03*
%TD*%
%TO.C,C11*%
X35560000Y-49530000D03*
X30560000Y-49530000D03*
%TD*%
D14*
%TO.C,D35*%
X22860000Y-55880000D03*
D13*
X22860000Y-63500000D03*
%TD*%
D12*
%TO.C,R28*%
X45720000Y-88900000D03*
D13*
X38100000Y-88900000D03*
%TD*%
D12*
%TO.C,R14*%
X40640000Y-40640000D03*
D13*
X48260000Y-40640000D03*
%TD*%
D24*
%TO.C,SW2*%
X176680000Y-45720000D03*
X170180000Y-45720000D03*
X176680000Y-41220000D03*
X170180000Y-41220000D03*
%TD*%
D14*
%TO.C,U1*%
X144780000Y-15240000D03*
D13*
X147320000Y-15240000D03*
X149860000Y-15240000D03*
X152400000Y-15240000D03*
X152400000Y-7620000D03*
X149860000Y-7620000D03*
X147320000Y-7620000D03*
X144780000Y-7620000D03*
%TD*%
D12*
%TO.C,R25*%
X175260000Y-73660000D03*
D13*
X175260000Y-81280000D03*
%TD*%
D10*
%TO.C,D6*%
X116840000Y-40640000D03*
D11*
X116840000Y-43180000D03*
%TD*%
M02*
