%TF.GenerationSoftware,KiCad,Pcbnew,7.0.1*%
%TF.CreationDate,2023-04-05T20:47:30+09:00*%
%TF.ProjectId,test4004,74657374-3430-4303-942e-6b696361645f,rev?*%
%TF.SameCoordinates,Original*%
%TF.FileFunction,Copper,L1,Top*%
%TF.FilePolarity,Positive*%
%FSLAX46Y46*%
G04 Gerber Fmt 4.6, Leading zero omitted, Abs format (unit mm)*
G04 Created by KiCad (PCBNEW 7.0.1) date 2023-04-05 20:47:30*
%MOMM*%
%LPD*%
G01*
G04 APERTURE LIST*
%ADD10C,0.300000*%
%TA.AperFunction,NonConductor*%
%ADD11C,0.300000*%
%TD*%
%TA.AperFunction,ComponentPad*%
%ADD12R,1.800000X1.800000*%
%TD*%
%TA.AperFunction,ComponentPad*%
%ADD13C,1.800000*%
%TD*%
%TA.AperFunction,ComponentPad*%
%ADD14C,1.600000*%
%TD*%
%TA.AperFunction,ComponentPad*%
%ADD15O,1.600000X1.600000*%
%TD*%
%TA.AperFunction,ComponentPad*%
%ADD16R,1.600000X1.600000*%
%TD*%
%TA.AperFunction,ComponentPad*%
%ADD17C,10.160000*%
%TD*%
%TA.AperFunction,ComponentPad*%
%ADD18R,1.200000X1.200000*%
%TD*%
%TA.AperFunction,ComponentPad*%
%ADD19C,1.200000*%
%TD*%
%TA.AperFunction,ComponentPad*%
%ADD20R,1.440000X2.000000*%
%TD*%
%TA.AperFunction,ComponentPad*%
%ADD21O,1.440000X2.000000*%
%TD*%
%TA.AperFunction,ComponentPad*%
%ADD22R,1.700000X1.700000*%
%TD*%
%TA.AperFunction,ComponentPad*%
%ADD23O,1.700000X1.700000*%
%TD*%
%TA.AperFunction,ComponentPad*%
%ADD24C,1.500000*%
%TD*%
%TA.AperFunction,ComponentPad*%
%ADD25C,2.000000*%
%TD*%
%TA.AperFunction,ViaPad*%
%ADD26C,0.800000*%
%TD*%
%TA.AperFunction,Conductor*%
%ADD27C,4.000000*%
%TD*%
%TA.AperFunction,Conductor*%
%ADD28C,2.000000*%
%TD*%
%TA.AperFunction,Conductor*%
%ADD29C,0.250000*%
%TD*%
%TA.AperFunction,Conductor*%
%ADD30C,1.500000*%
%TD*%
%TA.AperFunction,Conductor*%
%ADD31C,1.000000*%
%TD*%
%TA.AperFunction,Conductor*%
%ADD32C,3.000000*%
%TD*%
%TA.AperFunction,Conductor*%
%ADD33C,8.000000*%
%TD*%
%TA.AperFunction,Conductor*%
%ADD34C,0.500000*%
%TD*%
G04 APERTURE END LIST*
D10*
D11*
X104616190Y-124723238D02*
X104616190Y-122723238D01*
X105568571Y-123389904D02*
X105568571Y-124723238D01*
X105568571Y-123580380D02*
X105663809Y-123485142D01*
X105663809Y-123485142D02*
X105854285Y-123389904D01*
X105854285Y-123389904D02*
X106140000Y-123389904D01*
X106140000Y-123389904D02*
X106330476Y-123485142D01*
X106330476Y-123485142D02*
X106425714Y-123675619D01*
X106425714Y-123675619D02*
X106425714Y-124723238D01*
X107092381Y-123389904D02*
X107854285Y-123389904D01*
X107378095Y-122723238D02*
X107378095Y-124437523D01*
X107378095Y-124437523D02*
X107473333Y-124628000D01*
X107473333Y-124628000D02*
X107663809Y-124723238D01*
X107663809Y-124723238D02*
X107854285Y-124723238D01*
X109282857Y-124628000D02*
X109092381Y-124723238D01*
X109092381Y-124723238D02*
X108711428Y-124723238D01*
X108711428Y-124723238D02*
X108520952Y-124628000D01*
X108520952Y-124628000D02*
X108425714Y-124437523D01*
X108425714Y-124437523D02*
X108425714Y-123675619D01*
X108425714Y-123675619D02*
X108520952Y-123485142D01*
X108520952Y-123485142D02*
X108711428Y-123389904D01*
X108711428Y-123389904D02*
X109092381Y-123389904D01*
X109092381Y-123389904D02*
X109282857Y-123485142D01*
X109282857Y-123485142D02*
X109378095Y-123675619D01*
X109378095Y-123675619D02*
X109378095Y-123866095D01*
X109378095Y-123866095D02*
X108425714Y-124056571D01*
X110520952Y-124723238D02*
X110330476Y-124628000D01*
X110330476Y-124628000D02*
X110235238Y-124437523D01*
X110235238Y-124437523D02*
X110235238Y-122723238D01*
X113663810Y-123389904D02*
X113663810Y-124723238D01*
X113187619Y-122628000D02*
X112711429Y-124056571D01*
X112711429Y-124056571D02*
X113949524Y-124056571D01*
X115092381Y-122723238D02*
X115282858Y-122723238D01*
X115282858Y-122723238D02*
X115473334Y-122818476D01*
X115473334Y-122818476D02*
X115568572Y-122913714D01*
X115568572Y-122913714D02*
X115663810Y-123104190D01*
X115663810Y-123104190D02*
X115759048Y-123485142D01*
X115759048Y-123485142D02*
X115759048Y-123961333D01*
X115759048Y-123961333D02*
X115663810Y-124342285D01*
X115663810Y-124342285D02*
X115568572Y-124532761D01*
X115568572Y-124532761D02*
X115473334Y-124628000D01*
X115473334Y-124628000D02*
X115282858Y-124723238D01*
X115282858Y-124723238D02*
X115092381Y-124723238D01*
X115092381Y-124723238D02*
X114901905Y-124628000D01*
X114901905Y-124628000D02*
X114806667Y-124532761D01*
X114806667Y-124532761D02*
X114711429Y-124342285D01*
X114711429Y-124342285D02*
X114616191Y-123961333D01*
X114616191Y-123961333D02*
X114616191Y-123485142D01*
X114616191Y-123485142D02*
X114711429Y-123104190D01*
X114711429Y-123104190D02*
X114806667Y-122913714D01*
X114806667Y-122913714D02*
X114901905Y-122818476D01*
X114901905Y-122818476D02*
X115092381Y-122723238D01*
X116997143Y-122723238D02*
X117187620Y-122723238D01*
X117187620Y-122723238D02*
X117378096Y-122818476D01*
X117378096Y-122818476D02*
X117473334Y-122913714D01*
X117473334Y-122913714D02*
X117568572Y-123104190D01*
X117568572Y-123104190D02*
X117663810Y-123485142D01*
X117663810Y-123485142D02*
X117663810Y-123961333D01*
X117663810Y-123961333D02*
X117568572Y-124342285D01*
X117568572Y-124342285D02*
X117473334Y-124532761D01*
X117473334Y-124532761D02*
X117378096Y-124628000D01*
X117378096Y-124628000D02*
X117187620Y-124723238D01*
X117187620Y-124723238D02*
X116997143Y-124723238D01*
X116997143Y-124723238D02*
X116806667Y-124628000D01*
X116806667Y-124628000D02*
X116711429Y-124532761D01*
X116711429Y-124532761D02*
X116616191Y-124342285D01*
X116616191Y-124342285D02*
X116520953Y-123961333D01*
X116520953Y-123961333D02*
X116520953Y-123485142D01*
X116520953Y-123485142D02*
X116616191Y-123104190D01*
X116616191Y-123104190D02*
X116711429Y-122913714D01*
X116711429Y-122913714D02*
X116806667Y-122818476D01*
X116806667Y-122818476D02*
X116997143Y-122723238D01*
X119378096Y-123389904D02*
X119378096Y-124723238D01*
X118901905Y-122628000D02*
X118425715Y-124056571D01*
X118425715Y-124056571D02*
X119663810Y-124056571D01*
X121949525Y-123675619D02*
X122616192Y-123675619D01*
X122901906Y-124723238D02*
X121949525Y-124723238D01*
X121949525Y-124723238D02*
X121949525Y-122723238D01*
X121949525Y-122723238D02*
X122901906Y-122723238D01*
X123568573Y-123389904D02*
X124044763Y-124723238D01*
X124044763Y-124723238D02*
X124520954Y-123389904D01*
X126140002Y-124723238D02*
X126140002Y-123675619D01*
X126140002Y-123675619D02*
X126044764Y-123485142D01*
X126044764Y-123485142D02*
X125854288Y-123389904D01*
X125854288Y-123389904D02*
X125473335Y-123389904D01*
X125473335Y-123389904D02*
X125282859Y-123485142D01*
X126140002Y-124628000D02*
X125949526Y-124723238D01*
X125949526Y-124723238D02*
X125473335Y-124723238D01*
X125473335Y-124723238D02*
X125282859Y-124628000D01*
X125282859Y-124628000D02*
X125187621Y-124437523D01*
X125187621Y-124437523D02*
X125187621Y-124247047D01*
X125187621Y-124247047D02*
X125282859Y-124056571D01*
X125282859Y-124056571D02*
X125473335Y-123961333D01*
X125473335Y-123961333D02*
X125949526Y-123961333D01*
X125949526Y-123961333D02*
X126140002Y-123866095D01*
X127378097Y-124723238D02*
X127187621Y-124628000D01*
X127187621Y-124628000D02*
X127092383Y-124437523D01*
X127092383Y-124437523D02*
X127092383Y-122723238D01*
X128997145Y-123389904D02*
X128997145Y-124723238D01*
X128140002Y-123389904D02*
X128140002Y-124437523D01*
X128140002Y-124437523D02*
X128235240Y-124628000D01*
X128235240Y-124628000D02*
X128425716Y-124723238D01*
X128425716Y-124723238D02*
X128711431Y-124723238D01*
X128711431Y-124723238D02*
X128901907Y-124628000D01*
X128901907Y-124628000D02*
X128997145Y-124532761D01*
X130806669Y-124723238D02*
X130806669Y-123675619D01*
X130806669Y-123675619D02*
X130711431Y-123485142D01*
X130711431Y-123485142D02*
X130520955Y-123389904D01*
X130520955Y-123389904D02*
X130140002Y-123389904D01*
X130140002Y-123389904D02*
X129949526Y-123485142D01*
X130806669Y-124628000D02*
X130616193Y-124723238D01*
X130616193Y-124723238D02*
X130140002Y-124723238D01*
X130140002Y-124723238D02*
X129949526Y-124628000D01*
X129949526Y-124628000D02*
X129854288Y-124437523D01*
X129854288Y-124437523D02*
X129854288Y-124247047D01*
X129854288Y-124247047D02*
X129949526Y-124056571D01*
X129949526Y-124056571D02*
X130140002Y-123961333D01*
X130140002Y-123961333D02*
X130616193Y-123961333D01*
X130616193Y-123961333D02*
X130806669Y-123866095D01*
X131473336Y-123389904D02*
X132235240Y-123389904D01*
X131759050Y-122723238D02*
X131759050Y-124437523D01*
X131759050Y-124437523D02*
X131854288Y-124628000D01*
X131854288Y-124628000D02*
X132044764Y-124723238D01*
X132044764Y-124723238D02*
X132235240Y-124723238D01*
X132901907Y-124723238D02*
X132901907Y-123389904D01*
X132901907Y-122723238D02*
X132806669Y-122818476D01*
X132806669Y-122818476D02*
X132901907Y-122913714D01*
X132901907Y-122913714D02*
X132997145Y-122818476D01*
X132997145Y-122818476D02*
X132901907Y-122723238D01*
X132901907Y-122723238D02*
X132901907Y-122913714D01*
X134140002Y-124723238D02*
X133949526Y-124628000D01*
X133949526Y-124628000D02*
X133854288Y-124532761D01*
X133854288Y-124532761D02*
X133759050Y-124342285D01*
X133759050Y-124342285D02*
X133759050Y-123770857D01*
X133759050Y-123770857D02*
X133854288Y-123580380D01*
X133854288Y-123580380D02*
X133949526Y-123485142D01*
X133949526Y-123485142D02*
X134140002Y-123389904D01*
X134140002Y-123389904D02*
X134425717Y-123389904D01*
X134425717Y-123389904D02*
X134616193Y-123485142D01*
X134616193Y-123485142D02*
X134711431Y-123580380D01*
X134711431Y-123580380D02*
X134806669Y-123770857D01*
X134806669Y-123770857D02*
X134806669Y-124342285D01*
X134806669Y-124342285D02*
X134711431Y-124532761D01*
X134711431Y-124532761D02*
X134616193Y-124628000D01*
X134616193Y-124628000D02*
X134425717Y-124723238D01*
X134425717Y-124723238D02*
X134140002Y-124723238D01*
X135663812Y-123389904D02*
X135663812Y-124723238D01*
X135663812Y-123580380D02*
X135759050Y-123485142D01*
X135759050Y-123485142D02*
X135949526Y-123389904D01*
X135949526Y-123389904D02*
X136235241Y-123389904D01*
X136235241Y-123389904D02*
X136425717Y-123485142D01*
X136425717Y-123485142D02*
X136520955Y-123675619D01*
X136520955Y-123675619D02*
X136520955Y-124723238D01*
X139663813Y-123675619D02*
X139949527Y-123770857D01*
X139949527Y-123770857D02*
X140044765Y-123866095D01*
X140044765Y-123866095D02*
X140140003Y-124056571D01*
X140140003Y-124056571D02*
X140140003Y-124342285D01*
X140140003Y-124342285D02*
X140044765Y-124532761D01*
X140044765Y-124532761D02*
X139949527Y-124628000D01*
X139949527Y-124628000D02*
X139759051Y-124723238D01*
X139759051Y-124723238D02*
X138997146Y-124723238D01*
X138997146Y-124723238D02*
X138997146Y-122723238D01*
X138997146Y-122723238D02*
X139663813Y-122723238D01*
X139663813Y-122723238D02*
X139854289Y-122818476D01*
X139854289Y-122818476D02*
X139949527Y-122913714D01*
X139949527Y-122913714D02*
X140044765Y-123104190D01*
X140044765Y-123104190D02*
X140044765Y-123294666D01*
X140044765Y-123294666D02*
X139949527Y-123485142D01*
X139949527Y-123485142D02*
X139854289Y-123580380D01*
X139854289Y-123580380D02*
X139663813Y-123675619D01*
X139663813Y-123675619D02*
X138997146Y-123675619D01*
X141282860Y-124723238D02*
X141092384Y-124628000D01*
X141092384Y-124628000D02*
X140997146Y-124532761D01*
X140997146Y-124532761D02*
X140901908Y-124342285D01*
X140901908Y-124342285D02*
X140901908Y-123770857D01*
X140901908Y-123770857D02*
X140997146Y-123580380D01*
X140997146Y-123580380D02*
X141092384Y-123485142D01*
X141092384Y-123485142D02*
X141282860Y-123389904D01*
X141282860Y-123389904D02*
X141568575Y-123389904D01*
X141568575Y-123389904D02*
X141759051Y-123485142D01*
X141759051Y-123485142D02*
X141854289Y-123580380D01*
X141854289Y-123580380D02*
X141949527Y-123770857D01*
X141949527Y-123770857D02*
X141949527Y-124342285D01*
X141949527Y-124342285D02*
X141854289Y-124532761D01*
X141854289Y-124532761D02*
X141759051Y-124628000D01*
X141759051Y-124628000D02*
X141568575Y-124723238D01*
X141568575Y-124723238D02*
X141282860Y-124723238D01*
X143663813Y-124723238D02*
X143663813Y-123675619D01*
X143663813Y-123675619D02*
X143568575Y-123485142D01*
X143568575Y-123485142D02*
X143378099Y-123389904D01*
X143378099Y-123389904D02*
X142997146Y-123389904D01*
X142997146Y-123389904D02*
X142806670Y-123485142D01*
X143663813Y-124628000D02*
X143473337Y-124723238D01*
X143473337Y-124723238D02*
X142997146Y-124723238D01*
X142997146Y-124723238D02*
X142806670Y-124628000D01*
X142806670Y-124628000D02*
X142711432Y-124437523D01*
X142711432Y-124437523D02*
X142711432Y-124247047D01*
X142711432Y-124247047D02*
X142806670Y-124056571D01*
X142806670Y-124056571D02*
X142997146Y-123961333D01*
X142997146Y-123961333D02*
X143473337Y-123961333D01*
X143473337Y-123961333D02*
X143663813Y-123866095D01*
X144616194Y-124723238D02*
X144616194Y-123389904D01*
X144616194Y-123770857D02*
X144711432Y-123580380D01*
X144711432Y-123580380D02*
X144806670Y-123485142D01*
X144806670Y-123485142D02*
X144997146Y-123389904D01*
X144997146Y-123389904D02*
X145187623Y-123389904D01*
X146711432Y-124723238D02*
X146711432Y-122723238D01*
X146711432Y-124628000D02*
X146520956Y-124723238D01*
X146520956Y-124723238D02*
X146140003Y-124723238D01*
X146140003Y-124723238D02*
X145949527Y-124628000D01*
X145949527Y-124628000D02*
X145854289Y-124532761D01*
X145854289Y-124532761D02*
X145759051Y-124342285D01*
X145759051Y-124342285D02*
X145759051Y-123770857D01*
X145759051Y-123770857D02*
X145854289Y-123580380D01*
X145854289Y-123580380D02*
X145949527Y-123485142D01*
X145949527Y-123485142D02*
X146140003Y-123389904D01*
X146140003Y-123389904D02*
X146520956Y-123389904D01*
X146520956Y-123389904D02*
X146711432Y-123485142D01*
X150330480Y-124723238D02*
X149663813Y-123770857D01*
X149187623Y-124723238D02*
X149187623Y-122723238D01*
X149187623Y-122723238D02*
X149949528Y-122723238D01*
X149949528Y-122723238D02*
X150140004Y-122818476D01*
X150140004Y-122818476D02*
X150235242Y-122913714D01*
X150235242Y-122913714D02*
X150330480Y-123104190D01*
X150330480Y-123104190D02*
X150330480Y-123389904D01*
X150330480Y-123389904D02*
X150235242Y-123580380D01*
X150235242Y-123580380D02*
X150140004Y-123675619D01*
X150140004Y-123675619D02*
X149949528Y-123770857D01*
X149949528Y-123770857D02*
X149187623Y-123770857D01*
X151949528Y-124628000D02*
X151759052Y-124723238D01*
X151759052Y-124723238D02*
X151378099Y-124723238D01*
X151378099Y-124723238D02*
X151187623Y-124628000D01*
X151187623Y-124628000D02*
X151092385Y-124437523D01*
X151092385Y-124437523D02*
X151092385Y-123675619D01*
X151092385Y-123675619D02*
X151187623Y-123485142D01*
X151187623Y-123485142D02*
X151378099Y-123389904D01*
X151378099Y-123389904D02*
X151759052Y-123389904D01*
X151759052Y-123389904D02*
X151949528Y-123485142D01*
X151949528Y-123485142D02*
X152044766Y-123675619D01*
X152044766Y-123675619D02*
X152044766Y-123866095D01*
X152044766Y-123866095D02*
X151092385Y-124056571D01*
X152711433Y-123389904D02*
X153187623Y-124723238D01*
X153187623Y-124723238D02*
X153663814Y-123389904D01*
X154425719Y-124532761D02*
X154520957Y-124628000D01*
X154520957Y-124628000D02*
X154425719Y-124723238D01*
X154425719Y-124723238D02*
X154330481Y-124628000D01*
X154330481Y-124628000D02*
X154425719Y-124532761D01*
X154425719Y-124532761D02*
X154425719Y-124723238D01*
X155282862Y-122913714D02*
X155378100Y-122818476D01*
X155378100Y-122818476D02*
X155568576Y-122723238D01*
X155568576Y-122723238D02*
X156044767Y-122723238D01*
X156044767Y-122723238D02*
X156235243Y-122818476D01*
X156235243Y-122818476D02*
X156330481Y-122913714D01*
X156330481Y-122913714D02*
X156425719Y-123104190D01*
X156425719Y-123104190D02*
X156425719Y-123294666D01*
X156425719Y-123294666D02*
X156330481Y-123580380D01*
X156330481Y-123580380D02*
X155187624Y-124723238D01*
X155187624Y-124723238D02*
X156425719Y-124723238D01*
X157282862Y-124532761D02*
X157378100Y-124628000D01*
X157378100Y-124628000D02*
X157282862Y-124723238D01*
X157282862Y-124723238D02*
X157187624Y-124628000D01*
X157187624Y-124628000D02*
X157282862Y-124532761D01*
X157282862Y-124532761D02*
X157282862Y-124723238D01*
X159282862Y-124723238D02*
X158140005Y-124723238D01*
X158711433Y-124723238D02*
X158711433Y-122723238D01*
X158711433Y-122723238D02*
X158520957Y-123008952D01*
X158520957Y-123008952D02*
X158330481Y-123199428D01*
X158330481Y-123199428D02*
X158140005Y-123294666D01*
X160235243Y-124628000D02*
X160235243Y-124723238D01*
X160235243Y-124723238D02*
X160140005Y-124913714D01*
X160140005Y-124913714D02*
X160044767Y-125008952D01*
X162520958Y-124151809D02*
X163473339Y-124151809D01*
X162330482Y-124723238D02*
X162997148Y-122723238D01*
X162997148Y-122723238D02*
X163663815Y-124723238D01*
X164330482Y-123389904D02*
X164330482Y-125389904D01*
X164330482Y-123485142D02*
X164520958Y-123389904D01*
X164520958Y-123389904D02*
X164901911Y-123389904D01*
X164901911Y-123389904D02*
X165092387Y-123485142D01*
X165092387Y-123485142D02*
X165187625Y-123580380D01*
X165187625Y-123580380D02*
X165282863Y-123770857D01*
X165282863Y-123770857D02*
X165282863Y-124342285D01*
X165282863Y-124342285D02*
X165187625Y-124532761D01*
X165187625Y-124532761D02*
X165092387Y-124628000D01*
X165092387Y-124628000D02*
X164901911Y-124723238D01*
X164901911Y-124723238D02*
X164520958Y-124723238D01*
X164520958Y-124723238D02*
X164330482Y-124628000D01*
X166140006Y-124723238D02*
X166140006Y-123389904D01*
X166140006Y-123770857D02*
X166235244Y-123580380D01*
X166235244Y-123580380D02*
X166330482Y-123485142D01*
X166330482Y-123485142D02*
X166520958Y-123389904D01*
X166520958Y-123389904D02*
X166711435Y-123389904D01*
X167378101Y-124532761D02*
X167473339Y-124628000D01*
X167473339Y-124628000D02*
X167378101Y-124723238D01*
X167378101Y-124723238D02*
X167282863Y-124628000D01*
X167282863Y-124628000D02*
X167378101Y-124532761D01*
X167378101Y-124532761D02*
X167378101Y-124723238D01*
X168235244Y-122913714D02*
X168330482Y-122818476D01*
X168330482Y-122818476D02*
X168520958Y-122723238D01*
X168520958Y-122723238D02*
X168997149Y-122723238D01*
X168997149Y-122723238D02*
X169187625Y-122818476D01*
X169187625Y-122818476D02*
X169282863Y-122913714D01*
X169282863Y-122913714D02*
X169378101Y-123104190D01*
X169378101Y-123104190D02*
X169378101Y-123294666D01*
X169378101Y-123294666D02*
X169282863Y-123580380D01*
X169282863Y-123580380D02*
X168140006Y-124723238D01*
X168140006Y-124723238D02*
X169378101Y-124723238D01*
X170616196Y-122723238D02*
X170806673Y-122723238D01*
X170806673Y-122723238D02*
X170997149Y-122818476D01*
X170997149Y-122818476D02*
X171092387Y-122913714D01*
X171092387Y-122913714D02*
X171187625Y-123104190D01*
X171187625Y-123104190D02*
X171282863Y-123485142D01*
X171282863Y-123485142D02*
X171282863Y-123961333D01*
X171282863Y-123961333D02*
X171187625Y-124342285D01*
X171187625Y-124342285D02*
X171092387Y-124532761D01*
X171092387Y-124532761D02*
X170997149Y-124628000D01*
X170997149Y-124628000D02*
X170806673Y-124723238D01*
X170806673Y-124723238D02*
X170616196Y-124723238D01*
X170616196Y-124723238D02*
X170425720Y-124628000D01*
X170425720Y-124628000D02*
X170330482Y-124532761D01*
X170330482Y-124532761D02*
X170235244Y-124342285D01*
X170235244Y-124342285D02*
X170140006Y-123961333D01*
X170140006Y-123961333D02*
X170140006Y-123485142D01*
X170140006Y-123485142D02*
X170235244Y-123104190D01*
X170235244Y-123104190D02*
X170330482Y-122913714D01*
X170330482Y-122913714D02*
X170425720Y-122818476D01*
X170425720Y-122818476D02*
X170616196Y-122723238D01*
X172044768Y-122913714D02*
X172140006Y-122818476D01*
X172140006Y-122818476D02*
X172330482Y-122723238D01*
X172330482Y-122723238D02*
X172806673Y-122723238D01*
X172806673Y-122723238D02*
X172997149Y-122818476D01*
X172997149Y-122818476D02*
X173092387Y-122913714D01*
X173092387Y-122913714D02*
X173187625Y-123104190D01*
X173187625Y-123104190D02*
X173187625Y-123294666D01*
X173187625Y-123294666D02*
X173092387Y-123580380D01*
X173092387Y-123580380D02*
X171949530Y-124723238D01*
X171949530Y-124723238D02*
X173187625Y-124723238D01*
X173854292Y-122723238D02*
X175092387Y-122723238D01*
X175092387Y-122723238D02*
X174425720Y-123485142D01*
X174425720Y-123485142D02*
X174711435Y-123485142D01*
X174711435Y-123485142D02*
X174901911Y-123580380D01*
X174901911Y-123580380D02*
X174997149Y-123675619D01*
X174997149Y-123675619D02*
X175092387Y-123866095D01*
X175092387Y-123866095D02*
X175092387Y-124342285D01*
X175092387Y-124342285D02*
X174997149Y-124532761D01*
X174997149Y-124532761D02*
X174901911Y-124628000D01*
X174901911Y-124628000D02*
X174711435Y-124723238D01*
X174711435Y-124723238D02*
X174140006Y-124723238D01*
X174140006Y-124723238D02*
X173949530Y-124628000D01*
X173949530Y-124628000D02*
X173854292Y-124532761D01*
D12*
%TO.P,D19,1,K*%
%TO.N,BANK1*%
X132080000Y-50800000D03*
D13*
%TO.P,D19,2,A*%
%TO.N,Net-(D19-A)*%
X132080000Y-53340000D03*
%TD*%
D14*
%TO.P,C12,1*%
%TO.N,Net-(C12-Pad1)*%
X15240000Y-17780000D03*
%TO.P,C12,2*%
%TO.N,GND*%
X10240000Y-17780000D03*
%TD*%
%TO.P,C7,1*%
%TO.N,GND*%
X35560000Y-36830000D03*
%TO.P,C7,2*%
%TO.N,+5V*%
X30560000Y-36830000D03*
%TD*%
D12*
%TO.P,D20,1,K*%
%TO.N,BANK2*%
X127000000Y-50800000D03*
D13*
%TO.P,D20,2,A*%
%TO.N,Net-(D20-A)*%
X127000000Y-53340000D03*
%TD*%
D14*
%TO.P,R5,1*%
%TO.N,Net-(D5-A)*%
X172720000Y-7620000D03*
D15*
%TO.P,R5,2*%
%TO.N,VBUS*%
X172720000Y-15240000D03*
%TD*%
D16*
%TO.P,D28,1,K*%
%TO.N,Net-(D28-K)*%
X165100000Y-83820000D03*
D15*
%TO.P,D28,2,A*%
%TO.N,GND*%
X165100000Y-86360000D03*
%TD*%
D14*
%TO.P,R26,1*%
%TO.N,BANK1*%
X177800000Y-73660000D03*
D15*
%TO.P,R26,2*%
%TO.N,Net-(D23-K)*%
X177800000Y-81280000D03*
%TD*%
D12*
%TO.P,D9,1,K*%
%TO.N,Net-(D9-K)*%
X101600000Y-40640000D03*
D13*
%TO.P,D9,2,A*%
%TO.N,Net-(D9-A)*%
X101600000Y-43180000D03*
%TD*%
D14*
%TO.P,R33,1*%
%TO.N,Net-(U20-I{slash}O2)*%
X114300000Y-114300000D03*
D15*
%TO.P,R33,2*%
%TO.N,Net-(D31-K)*%
X121920000Y-114300000D03*
%TD*%
D16*
%TO.P,D1,1,K*%
%TO.N,Net-(D1-K)*%
X162560000Y-60960000D03*
D15*
%TO.P,D1,2,A*%
%TO.N,GND*%
X165100000Y-60960000D03*
%TD*%
D14*
%TO.P,R12,1*%
%TO.N,Net-(C4-Pad1)*%
X170180000Y-27940000D03*
D15*
%TO.P,R12,2*%
%TO.N,-10V*%
X162560000Y-27940000D03*
%TD*%
D14*
%TO.P,C15,1*%
%TO.N,+5V*%
X96520000Y-13970000D03*
%TO.P,C15,2*%
%TO.N,-10V*%
X96520000Y-8970000D03*
%TD*%
%TO.P,C1,1*%
%TO.N,-10V*%
X149780000Y-5080000D03*
%TO.P,C1,2*%
%TO.N,+5V*%
X144780000Y-5080000D03*
%TD*%
%TO.P,R2,1*%
%TO.N,RAM2-1*%
X152400000Y-63500000D03*
D15*
%TO.P,R2,2*%
%TO.N,Net-(D2-K)*%
X160020000Y-63500000D03*
%TD*%
D14*
%TO.P,R37,1*%
%TO.N,Net-(D35-K)*%
X22860000Y-83820000D03*
D15*
%TO.P,R37,2*%
%TO.N,Net-(D37-A)*%
X22860000Y-91440000D03*
%TD*%
D12*
%TO.P,D13,1,K*%
%TO.N,RAM2-3*%
X121920000Y-40640000D03*
D13*
%TO.P,D13,2,A*%
%TO.N,Net-(D13-A)*%
X121920000Y-43180000D03*
%TD*%
D16*
%TO.P,D4,1,K*%
%TO.N,Net-(D4-K)*%
X162560000Y-68580000D03*
D15*
%TO.P,D4,2,A*%
%TO.N,GND*%
X165100000Y-68580000D03*
%TD*%
D16*
%TO.P,SW3,1*%
%TO.N,ROM_P1*%
X43180000Y-109220000D03*
D15*
%TO.P,SW3,2*%
%TO.N,ROM_P2*%
X45720000Y-109220000D03*
%TO.P,SW3,3*%
%TO.N,ROM_P26*%
X48260000Y-109220000D03*
%TO.P,SW3,4*%
%TO.N,ROM_P27*%
X50800000Y-109220000D03*
%TO.P,SW3,5*%
%TO.N,GND*%
X50800000Y-101600000D03*
%TO.P,SW3,6*%
%TO.N,+5V*%
X48260000Y-101600000D03*
%TO.P,SW3,7*%
X45720000Y-101600000D03*
%TO.P,SW3,8*%
X43180000Y-101600000D03*
%TD*%
D14*
%TO.P,R20,1*%
%TO.N,BANK7*%
X162560000Y-73660000D03*
D15*
%TO.P,R20,2*%
%TO.N,Net-(D29-K)*%
X162560000Y-81280000D03*
%TD*%
D12*
%TO.P,D17,1,K*%
%TO.N,BANK7*%
X101600000Y-50800000D03*
D13*
%TO.P,D17,2,A*%
%TO.N,Net-(D17-A)*%
X101600000Y-53340000D03*
%TD*%
D14*
%TO.P,C5,1*%
%TO.N,+5V*%
X35560000Y-8970000D03*
%TO.P,C5,2*%
%TO.N,GND*%
X35560000Y-13970000D03*
%TD*%
D12*
%TO.P,D38,1,K*%
%TO.N,-10V*%
X33020000Y-96520000D03*
D13*
%TO.P,D38,2,A*%
%TO.N,Net-(D38-A)*%
X33020000Y-93980000D03*
%TD*%
D14*
%TO.P,C17,1*%
%TO.N,+5V*%
X96520000Y-29210000D03*
%TO.P,C17,2*%
%TO.N,-10V*%
X96520000Y-24210000D03*
%TD*%
%TO.P,R13,1*%
%TO.N,Net-(U12-EP)*%
X53340000Y-34290000D03*
D15*
%TO.P,R13,2*%
%TO.N,+5V*%
X60960000Y-34290000D03*
%TD*%
D16*
%TO.P,D24,1,K*%
%TO.N,Net-(D24-K)*%
X175260000Y-83820000D03*
D15*
%TO.P,D24,2,A*%
%TO.N,GND*%
X175260000Y-86360000D03*
%TD*%
D14*
%TO.P,C13,1*%
%TO.N,+5V*%
X55880000Y-48260000D03*
%TO.P,C13,2*%
%TO.N,-10V*%
X55880000Y-43260000D03*
%TD*%
D16*
%TO.P,U14,1*%
%TO.N,Net-(U20-FL)*%
X116840000Y-88900000D03*
D15*
%TO.P,U14,2*%
%TO.N,Net-(U14-Pad2)*%
X119380000Y-88900000D03*
%TO.P,U14,3*%
%TO.N,~{WE_OPA}*%
X121920000Y-88900000D03*
%TO.P,U14,4*%
%TO.N,Net-(U13-Pad4)*%
X124460000Y-88900000D03*
%TO.P,U14,5*%
%TO.N,Net-(U14-Pad2)*%
X127000000Y-88900000D03*
%TO.P,U14,6*%
%TO.N,~{WE_OPR}*%
X129540000Y-88900000D03*
%TO.P,U14,7,GND*%
%TO.N,GND*%
X132080000Y-88900000D03*
%TO.P,U14,8*%
%TO.N,Net-(U14-Pad8)*%
X132080000Y-81280000D03*
%TO.P,U14,9*%
%TO.N,C0*%
X129540000Y-81280000D03*
%TO.P,U14,10*%
%TO.N,C1*%
X127000000Y-81280000D03*
%TO.P,U14,11*%
%TO.N,Net-(U14-Pad11)*%
X124460000Y-81280000D03*
%TO.P,U14,12*%
%TO.N,C2*%
X121920000Y-81280000D03*
%TO.P,U14,13*%
%TO.N,C3*%
X119380000Y-81280000D03*
%TO.P,U14,14,VCC*%
%TO.N,+5V*%
X116840000Y-81280000D03*
%TD*%
D14*
%TO.P,R23,1*%
%TO.N,BANK4*%
X170180000Y-73660000D03*
D15*
%TO.P,R23,2*%
%TO.N,Net-(D26-K)*%
X170180000Y-81280000D03*
%TD*%
D14*
%TO.P,R6,1*%
%TO.N,Net-(J1-Pin_4)*%
X160020000Y-20320000D03*
D15*
%TO.P,R6,2*%
%TO.N,Net-(U1-K)*%
X152400000Y-20320000D03*
%TD*%
D12*
%TO.P,D15,1,K*%
%TO.N,BANK5*%
X111760000Y-50800000D03*
D13*
%TO.P,D15,2,A*%
%TO.N,Net-(D15-A)*%
X111760000Y-53340000D03*
%TD*%
D17*
%TO.P,J5,1,Pin_1*%
%TO.N,GND*%
X12700000Y-78740000D03*
%TD*%
D18*
%TO.P,C4,1*%
%TO.N,Net-(C4-Pad1)*%
X169545000Y-32385000D03*
D19*
%TO.P,C4,2*%
%TO.N,-10V*%
X168045000Y-32385000D03*
%TD*%
D20*
%TO.P,U4,1,D0*%
%TO.N,/ProgramMemory/D0*%
X68580000Y-50800000D03*
D21*
%TO.P,U4,2,D1*%
%TO.N,/ProgramMemory/D1*%
X71120000Y-50800000D03*
%TO.P,U4,3,D2*%
%TO.N,/ProgramMemory/D2*%
X73660000Y-50800000D03*
%TO.P,U4,4,D3*%
%TO.N,/ProgramMemory/D3*%
X76200000Y-50800000D03*
%TO.P,U4,5,Vss*%
%TO.N,+5V*%
X78740000Y-50800000D03*
%TO.P,U4,6,CLK1*%
%TO.N,/ClockGen/CLK1*%
X81280000Y-50800000D03*
%TO.P,U4,7,CLK2*%
%TO.N,/ClockGen/CLK2*%
X83820000Y-50800000D03*
%TO.P,U4,8,SYNC*%
%TO.N,/ProgramMemory/SYNC*%
X86360000Y-50800000D03*
%TO.P,U4,9,RESET*%
%TO.N,/ProgramMemory/RESET*%
X86360000Y-43180000D03*
%TO.P,U4,10,TEST*%
%TO.N,Net-(U4-TEST)*%
X83820000Y-43180000D03*
%TO.P,U4,11,CMROM*%
%TO.N,/ProgramMemory/CM*%
X81280000Y-43180000D03*
%TO.P,U4,12,Vdd*%
%TO.N,-10V*%
X78740000Y-43180000D03*
%TO.P,U4,13,CMRAM3*%
%TO.N,unconnected-(U4-CMRAM3-Pad13)*%
X76200000Y-43180000D03*
%TO.P,U4,14,CMRAM2*%
%TO.N,unconnected-(U4-CMRAM2-Pad14)*%
X73660000Y-43180000D03*
%TO.P,U4,15,CMRAM1*%
%TO.N,CMRAM1*%
X71120000Y-43180000D03*
%TO.P,U4,16,CMRAM0*%
%TO.N,CMRAM0*%
X68580000Y-43180000D03*
%TD*%
D14*
%TO.P,R31,1*%
%TO.N,GND*%
X38100000Y-96520000D03*
D15*
%TO.P,R31,2*%
%TO.N,ROM_P1*%
X45720000Y-96520000D03*
%TD*%
D22*
%TO.P,J2,1,Pin_1*%
%TO.N,CMRAM0*%
X127000000Y-7620000D03*
D23*
%TO.P,J2,2,Pin_2*%
%TO.N,CM_RAM23*%
X127000000Y-10160000D03*
%TO.P,J2,3,Pin_3*%
%TO.N,CMRAM1*%
X127000000Y-12700000D03*
%TD*%
D16*
%TO.P,D2,1,K*%
%TO.N,Net-(D2-K)*%
X162560000Y-63500000D03*
D15*
%TO.P,D2,2,A*%
%TO.N,GND*%
X165100000Y-63500000D03*
%TD*%
D16*
%TO.P,D26,1,K*%
%TO.N,Net-(D26-K)*%
X170180000Y-83820000D03*
D15*
%TO.P,D26,2,A*%
%TO.N,GND*%
X170180000Y-86360000D03*
%TD*%
D16*
%TO.P,U8,1,D0*%
%TO.N,/ProgramMemory/D0*%
X101600000Y-30480000D03*
D15*
%TO.P,U8,2,D1*%
%TO.N,/ProgramMemory/D1*%
X104140000Y-30480000D03*
%TO.P,U8,3,D2*%
%TO.N,/ProgramMemory/D2*%
X106680000Y-30480000D03*
%TO.P,U8,4,D3*%
%TO.N,/ProgramMemory/D3*%
X109220000Y-30480000D03*
%TO.P,U8,5,Vss*%
%TO.N,+5V*%
X111760000Y-30480000D03*
%TO.P,U8,6,CLK1*%
%TO.N,/ClockGen/CLK1*%
X114300000Y-30480000D03*
%TO.P,U8,7,CLK2*%
%TO.N,/ClockGen/CLK2*%
X116840000Y-30480000D03*
%TO.P,U8,8,SYNC*%
%TO.N,/ProgramMemory/SYNC*%
X119380000Y-30480000D03*
%TO.P,U8,9,RESET*%
%TO.N,/ProgramMemory/RESET*%
X119380000Y-22860000D03*
%TO.P,U8,10,P0*%
%TO.N,+5V*%
X116840000Y-22860000D03*
%TO.P,U8,11,CM*%
%TO.N,CMRAM0*%
X114300000Y-22860000D03*
%TO.P,U8,12,Vdd*%
%TO.N,-10V*%
X111760000Y-22860000D03*
%TO.P,U8,13,O3*%
%TO.N,BANK3*%
X109220000Y-22860000D03*
%TO.P,U8,14,O2*%
%TO.N,BANK2*%
X106680000Y-22860000D03*
%TO.P,U8,15,O1*%
%TO.N,BANK1*%
X104140000Y-22860000D03*
%TO.P,U8,16,O0*%
%TO.N,BANK0*%
X101600000Y-22860000D03*
%TD*%
D14*
%TO.P,R22,1*%
%TO.N,BANK5*%
X167640000Y-73660000D03*
D15*
%TO.P,R22,2*%
%TO.N,Net-(D27-K)*%
X167640000Y-81280000D03*
%TD*%
D12*
%TO.P,D7,1,K*%
%TO.N,Net-(D7-K)*%
X111760000Y-40640000D03*
D13*
%TO.P,D7,2,A*%
%TO.N,Net-(D7-A)*%
X111760000Y-43180000D03*
%TD*%
D14*
%TO.P,R38,1*%
%TO.N,GND*%
X27940000Y-83820000D03*
D15*
%TO.P,R38,2*%
%TO.N,Net-(D38-A)*%
X27940000Y-91440000D03*
%TD*%
D14*
%TO.P,C9,1*%
%TO.N,Net-(C9-Pad1)*%
X35560000Y-45720000D03*
%TO.P,C9,2*%
%TO.N,Net-(U11-IN_B)*%
X30560000Y-45720000D03*
%TD*%
D16*
%TO.P,D3,1,K*%
%TO.N,Net-(D3-K)*%
X162560000Y-66040000D03*
D15*
%TO.P,D3,2,A*%
%TO.N,GND*%
X165100000Y-66040000D03*
%TD*%
D16*
%TO.P,U3,1*%
%TO.N,Net-(U3-Pad1)*%
X132080000Y-30480000D03*
D15*
%TO.P,U3,2*%
X134620000Y-30480000D03*
%TO.P,U3,3*%
%TO.N,/ProgramMemory/RESET*%
X137160000Y-30480000D03*
%TO.P,U3,4*%
%TO.N,Net-(U3-Pad1)*%
X139700000Y-30480000D03*
%TO.P,U3,5*%
%TO.N,Net-(C4-Pad1)*%
X142240000Y-30480000D03*
%TO.P,U3,6*%
X144780000Y-30480000D03*
%TO.P,U3,7,Vss*%
%TO.N,-10V*%
X147320000Y-30480000D03*
%TO.P,U3,8*%
%TO.N,Net-(D6-K)*%
X147320000Y-22860000D03*
%TO.P,U3,9*%
X144780000Y-22860000D03*
%TO.P,U3,10*%
%TO.N,Net-(R7-Pad1)*%
X142240000Y-22860000D03*
%TO.P,U3,11*%
%TO.N,Net-(U4-TEST)*%
X139700000Y-22860000D03*
%TO.P,U3,12*%
%TO.N,Net-(U1-Vo)*%
X137160000Y-22860000D03*
%TO.P,U3,13*%
%TO.N,Net-(C3-Pad1)*%
X134620000Y-22860000D03*
%TO.P,U3,14,Vdd*%
%TO.N,+5V*%
X132080000Y-22860000D03*
%TD*%
D16*
%TO.P,U5,1,D0*%
%TO.N,/ProgramMemory/D0*%
X68580000Y-15240000D03*
D15*
%TO.P,U5,2,D1*%
%TO.N,/ProgramMemory/D1*%
X71120000Y-15240000D03*
%TO.P,U5,3,D2*%
%TO.N,/ProgramMemory/D2*%
X73660000Y-15240000D03*
%TO.P,U5,4,D3*%
%TO.N,/ProgramMemory/D3*%
X76200000Y-15240000D03*
%TO.P,U5,5,Vss*%
%TO.N,+5V*%
X78740000Y-15240000D03*
%TO.P,U5,6,CLK1*%
%TO.N,/ClockGen/CLK1*%
X81280000Y-15240000D03*
%TO.P,U5,7,CLK2*%
%TO.N,/ClockGen/CLK2*%
X83820000Y-15240000D03*
%TO.P,U5,8,SYNC*%
%TO.N,/ProgramMemory/SYNC*%
X86360000Y-15240000D03*
%TO.P,U5,9,RESET*%
%TO.N,/ProgramMemory/RESET*%
X86360000Y-7620000D03*
%TO.P,U5,10,P0*%
%TO.N,-10V*%
X83820000Y-7620000D03*
%TO.P,U5,11,CM*%
%TO.N,CM_RAM23*%
X81280000Y-7620000D03*
%TO.P,U5,12,Vdd*%
%TO.N,-10V*%
X78740000Y-7620000D03*
%TO.P,U5,13,O3*%
%TO.N,Net-(D9-K)*%
X76200000Y-7620000D03*
%TO.P,U5,14,O2*%
%TO.N,Net-(D8-K)*%
X73660000Y-7620000D03*
%TO.P,U5,15,O1*%
%TO.N,Net-(D7-K)*%
X71120000Y-7620000D03*
%TO.P,U5,16,O0*%
%TO.N,Net-(D6-K)*%
X68580000Y-7620000D03*
%TD*%
D16*
%TO.P,D25,1,K*%
%TO.N,Net-(D25-K)*%
X172720000Y-83820000D03*
D15*
%TO.P,D25,2,A*%
%TO.N,GND*%
X172720000Y-86360000D03*
%TD*%
D14*
%TO.P,R1,1*%
%TO.N,RAM2-0*%
X152400000Y-60960000D03*
D15*
%TO.P,R1,2*%
%TO.N,Net-(D1-K)*%
X160020000Y-60960000D03*
%TD*%
D14*
%TO.P,R17,1*%
%TO.N,Net-(C10-Pad2)*%
X27940000Y-27940000D03*
D15*
%TO.P,R17,2*%
%TO.N,Net-(R17-Pad2)*%
X27940000Y-20320000D03*
%TD*%
D14*
%TO.P,C2,1*%
%TO.N,GND2*%
X165020000Y-5080000D03*
%TO.P,C2,2*%
%TO.N,VBUS*%
X160020000Y-5080000D03*
%TD*%
D16*
%TO.P,D23,1,K*%
%TO.N,Net-(D23-K)*%
X177800000Y-83820000D03*
D15*
%TO.P,D23,2,A*%
%TO.N,GND*%
X177800000Y-86360000D03*
%TD*%
D14*
%TO.P,R18,1*%
%TO.N,-10V*%
X48260000Y-43180000D03*
D15*
%TO.P,R18,2*%
%TO.N,Net-(U11-OUT_A)*%
X40640000Y-43180000D03*
%TD*%
D13*
%TO.P,SW4,*%
%TO.N,*%
X27940000Y-114300000D03*
X27940000Y-104140000D03*
D12*
%TO.P,SW4,1,A*%
%TO.N,+5V*%
X25400000Y-111760000D03*
D13*
%TO.P,SW4,2,B*%
%TO.N,Net-(D35-K)*%
X25400000Y-109260000D03*
%TO.P,SW4,3,C*%
%TO.N,unconnected-(SW4A-C-Pad3)*%
X25400000Y-106760000D03*
%TO.P,SW4,4,A*%
%TO.N,-10V*%
X30480000Y-111760000D03*
%TO.P,SW4,5,B*%
%TO.N,Net-(D36-A)*%
X30480000Y-109260000D03*
%TO.P,SW4,6,C*%
%TO.N,unconnected-(SW4B-C-Pad6)*%
X30480000Y-106760000D03*
%TD*%
D22*
%TO.P,J1,1,Pin_1*%
%TO.N,GND2*%
X180340000Y-20320000D03*
D23*
%TO.P,J1,2,Pin_2*%
%TO.N,unconnected-(J1-Pin_2-Pad2)*%
X180340000Y-22860000D03*
%TO.P,J1,3,Pin_3*%
%TO.N,VBUS*%
X180340000Y-25400000D03*
%TO.P,J1,4,Pin_4*%
%TO.N,Net-(J1-Pin_4)*%
X180340000Y-27940000D03*
%TO.P,J1,5,Pin_5*%
%TO.N,Net-(J1-Pin_5)*%
X180340000Y-30480000D03*
%TO.P,J1,6,Pin_6*%
%TO.N,unconnected-(J1-Pin_6-Pad6)*%
X180340000Y-33020000D03*
%TD*%
D16*
%TO.P,U15,1*%
%TO.N,Net-(U14-Pad2)*%
X116840000Y-76200000D03*
D15*
%TO.P,U15,2*%
%TO.N,Net-(U19-G2)*%
X119380000Y-76200000D03*
%TO.P,U15,3*%
%TO.N,Net-(U19-G1)*%
X121920000Y-76200000D03*
%TO.P,U15,4*%
%TO.N,unconnected-(U15-Pad4)*%
X124460000Y-76200000D03*
%TO.P,U15,5*%
%TO.N,+5V*%
X127000000Y-76200000D03*
%TO.P,U15,6*%
X129540000Y-76200000D03*
%TO.P,U15,7,GND*%
%TO.N,GND*%
X132080000Y-76200000D03*
%TO.P,U15,8*%
%TO.N,Net-(U14-Pad8)*%
X132080000Y-68580000D03*
%TO.P,U15,9*%
%TO.N,Net-(U14-Pad11)*%
X129540000Y-68580000D03*
%TO.P,U15,10*%
%TO.N,~{CS_ROM}*%
X127000000Y-68580000D03*
%TO.P,U15,11*%
%TO.N,+5V*%
X124460000Y-68580000D03*
%TO.P,U15,12*%
X121920000Y-68580000D03*
%TO.P,U15,13*%
%TO.N,unconnected-(U15-Pad13)*%
X119380000Y-68580000D03*
%TO.P,U15,14,VCC*%
%TO.N,+5V*%
X116840000Y-68580000D03*
%TD*%
D16*
%TO.P,U17,1,A0*%
%TO.N,Net-(U16-A0)*%
X147320000Y-104140000D03*
D15*
%TO.P,U17,2,A1*%
%TO.N,Net-(U16-A1)*%
X149860000Y-104140000D03*
%TO.P,U17,3,A2*%
%TO.N,Net-(U16-A2)*%
X152400000Y-104140000D03*
%TO.P,U17,4,A3*%
%TO.N,Net-(U16-A3)*%
X154940000Y-104140000D03*
%TO.P,U17,5,A4*%
%TO.N,Net-(U16-A4)*%
X157480000Y-104140000D03*
%TO.P,U17,6,A5*%
%TO.N,Net-(U16-A5)*%
X160020000Y-104140000D03*
%TO.P,U17,7,A6*%
%TO.N,Net-(U16-A6)*%
X162560000Y-104140000D03*
%TO.P,U17,8,A7*%
%TO.N,Net-(U16-A7)*%
X165100000Y-104140000D03*
%TO.P,U17,9,A8*%
%TO.N,Net-(D22-K)*%
X167640000Y-104140000D03*
%TO.P,U17,10,A9*%
%TO.N,Net-(D23-K)*%
X170180000Y-104140000D03*
%TO.P,U17,11,A10*%
%TO.N,Net-(D24-K)*%
X172720000Y-104140000D03*
%TO.P,U17,12,~{CS}*%
%TO.N,~{CS_RAM}*%
X175260000Y-104140000D03*
%TO.P,U17,13,~{OE}*%
%TO.N,~{OE}*%
X177800000Y-104140000D03*
%TO.P,U17,14,Vss(GND)*%
%TO.N,GND*%
X180340000Y-104140000D03*
%TO.P,U17,15,~{WE}*%
%TO.N,~{WE_OPA}*%
X180340000Y-93980000D03*
%TO.P,U17,16,I/O4*%
%TO.N,Net-(U16-D3)*%
X177800000Y-93980000D03*
%TO.P,U17,17,I/O3*%
%TO.N,Net-(U16-D2)*%
X175260000Y-93980000D03*
%TO.P,U17,18,I/O2*%
%TO.N,Net-(U16-D1)*%
X172720000Y-93980000D03*
%TO.P,U17,19,I/O1*%
%TO.N,Net-(U16-D0)*%
X170180000Y-93980000D03*
%TO.P,U17,20,NC*%
%TO.N,unconnected-(U17-NC-Pad20)*%
X167640000Y-93980000D03*
%TO.P,U17,21,A11*%
%TO.N,Net-(D25-K)*%
X165100000Y-93980000D03*
%TO.P,U17,22,A12*%
%TO.N,Net-(D26-K)*%
X162560000Y-93980000D03*
%TO.P,U17,23,A13*%
%TO.N,Net-(D27-K)*%
X160020000Y-93980000D03*
%TO.P,U17,24,A14*%
%TO.N,Net-(D28-K)*%
X157480000Y-93980000D03*
%TO.P,U17,25,A15*%
%TO.N,Net-(D29-K)*%
X154940000Y-93980000D03*
%TO.P,U17,26,A16*%
%TO.N,GND*%
X152400000Y-93980000D03*
%TO.P,U17,27,A17*%
X149860000Y-93980000D03*
%TO.P,U17,28,Vcc*%
%TO.N,+5V*%
X147320000Y-93980000D03*
%TD*%
D14*
%TO.P,R11,1*%
%TO.N,Net-(R11-Pad1)*%
X170180000Y-25400000D03*
D15*
%TO.P,R11,2*%
%TO.N,Net-(C4-Pad1)*%
X162560000Y-25400000D03*
%TD*%
D12*
%TO.P,D11,1,K*%
%TO.N,RAM2-1*%
X132080000Y-40640000D03*
D13*
%TO.P,D11,2,A*%
%TO.N,Net-(D11-A)*%
X132080000Y-43180000D03*
%TD*%
D14*
%TO.P,R36,1*%
%TO.N,+5V*%
X25400000Y-83820000D03*
D15*
%TO.P,R36,2*%
%TO.N,Net-(D34-A)*%
X25400000Y-91440000D03*
%TD*%
D14*
%TO.P,C14,1*%
%TO.N,+5V*%
X63500000Y-13890000D03*
%TO.P,C14,2*%
%TO.N,-10V*%
X63500000Y-8890000D03*
%TD*%
%TO.P,R10,1*%
%TO.N,+5V*%
X170180000Y-22860000D03*
D15*
%TO.P,R10,2*%
%TO.N,Net-(C4-Pad1)*%
X162560000Y-22860000D03*
%TD*%
D14*
%TO.P,C20,1*%
%TO.N,+5V*%
X142240000Y-96520000D03*
%TO.P,C20,2*%
%TO.N,GND*%
X142240000Y-101520000D03*
%TD*%
D16*
%TO.P,RN2,1,common*%
%TO.N,+5V*%
X137160000Y-60960000D03*
D15*
%TO.P,RN2,2,R1*%
%TO.N,Net-(D10-A)*%
X134620000Y-60960000D03*
%TO.P,RN2,3,R2*%
%TO.N,Net-(D11-A)*%
X132080000Y-60960000D03*
%TO.P,RN2,4,R3*%
%TO.N,Net-(D12-A)*%
X129540000Y-60960000D03*
%TO.P,RN2,5,R4*%
%TO.N,Net-(D13-A)*%
X127000000Y-60960000D03*
%TD*%
D16*
%TO.P,U10,1*%
%TO.N,Net-(R17-Pad2)*%
X40635000Y-15240000D03*
D15*
%TO.P,U10,2*%
X43175000Y-15240000D03*
%TO.P,U10,3*%
%TO.N,Net-(U12-CLOCK)*%
X45715000Y-15240000D03*
%TO.P,U10,4*%
%TO.N,Net-(U12-QB)*%
X48255000Y-15240000D03*
%TO.P,U10,5*%
%TO.N,Net-(U12-QC)*%
X50795000Y-15240000D03*
%TO.P,U10,6*%
%TO.N,Net-(U12-LOAD)*%
X53335000Y-15240000D03*
%TO.P,U10,7,GND*%
%TO.N,GND*%
X55875000Y-15240000D03*
%TO.P,U10,8*%
%TO.N,Net-(U10-Pad8)*%
X55875000Y-7620000D03*
%TO.P,U10,9*%
%TO.N,Net-(U12-QC)*%
X53335000Y-7620000D03*
%TO.P,U10,10*%
%TO.N,Net-(U10-Pad10)*%
X50795000Y-7620000D03*
%TO.P,U10,11*%
%TO.N,Net-(U10-Pad11)*%
X48255000Y-7620000D03*
%TO.P,U10,12*%
%TO.N,Net-(U10-Pad10)*%
X45715000Y-7620000D03*
%TO.P,U10,13*%
%TO.N,Net-(U10-Pad13)*%
X43175000Y-7620000D03*
%TO.P,U10,14,VCC*%
%TO.N,+5V*%
X40635000Y-7620000D03*
%TD*%
D16*
%TO.P,D22,1,K*%
%TO.N,Net-(D22-K)*%
X180340000Y-83820000D03*
D15*
%TO.P,D22,2,A*%
%TO.N,GND*%
X180340000Y-86360000D03*
%TD*%
D16*
%TO.P,D31,1,K*%
%TO.N,Net-(D31-K)*%
X124460000Y-114300000D03*
D15*
%TO.P,D31,2,A*%
%TO.N,GND*%
X127000000Y-114300000D03*
%TD*%
D16*
%TO.P,D27,1,K*%
%TO.N,Net-(D27-K)*%
X167640000Y-83820000D03*
D15*
%TO.P,D27,2,A*%
%TO.N,GND*%
X167640000Y-86360000D03*
%TD*%
D14*
%TO.P,R24,1*%
%TO.N,BANK3*%
X172720000Y-73660000D03*
D15*
%TO.P,R24,2*%
%TO.N,Net-(D25-K)*%
X172720000Y-81280000D03*
%TD*%
D14*
%TO.P,R16,1*%
%TO.N,Net-(C12-Pad1)*%
X12700000Y-20320000D03*
D15*
%TO.P,R16,2*%
%TO.N,Net-(C10-Pad1)*%
X12700000Y-27940000D03*
%TD*%
D14*
%TO.P,R15,1*%
%TO.N,Net-(U11-OUT_B)*%
X40640000Y-45720000D03*
D15*
%TO.P,R15,2*%
%TO.N,/ClockGen/CLK2*%
X48260000Y-45720000D03*
%TD*%
D14*
%TO.P,R29,1*%
%TO.N,GND*%
X38100000Y-91440000D03*
D15*
%TO.P,R29,2*%
%TO.N,ROM_P26*%
X45720000Y-91440000D03*
%TD*%
D14*
%TO.P,R3,1*%
%TO.N,RAM2-2*%
X152400000Y-66040000D03*
D15*
%TO.P,R3,2*%
%TO.N,Net-(D3-K)*%
X160020000Y-66040000D03*
%TD*%
D16*
%TO.P,U18,1,A0*%
%TO.N,Net-(U16-A0)*%
X147320000Y-116840000D03*
D15*
%TO.P,U18,2,A1*%
%TO.N,Net-(U16-A1)*%
X149860000Y-116840000D03*
%TO.P,U18,3,A2*%
%TO.N,Net-(U16-A2)*%
X152400000Y-116840000D03*
%TO.P,U18,4,A3*%
%TO.N,Net-(U16-A3)*%
X154940000Y-116840000D03*
%TO.P,U18,5,A4*%
%TO.N,Net-(U16-A4)*%
X157480000Y-116840000D03*
%TO.P,U18,6,A5*%
%TO.N,Net-(U16-A5)*%
X160020000Y-116840000D03*
%TO.P,U18,7,A6*%
%TO.N,Net-(U16-A6)*%
X162560000Y-116840000D03*
%TO.P,U18,8,A7*%
%TO.N,Net-(U16-A7)*%
X165100000Y-116840000D03*
%TO.P,U18,9,A8*%
%TO.N,Net-(D22-K)*%
X167640000Y-116840000D03*
%TO.P,U18,10,A9*%
%TO.N,Net-(D23-K)*%
X170180000Y-116840000D03*
%TO.P,U18,11,A10*%
%TO.N,Net-(D24-K)*%
X172720000Y-116840000D03*
%TO.P,U18,12,~{CS}*%
%TO.N,~{CS_RAM}*%
X175260000Y-116840000D03*
%TO.P,U18,13,~{OE}*%
%TO.N,~{OE}*%
X177800000Y-116840000D03*
%TO.P,U18,14,Vss(GND)*%
%TO.N,GND*%
X180340000Y-116840000D03*
%TO.P,U18,15,~{WE}*%
%TO.N,~{WE_OPR}*%
X180340000Y-106680000D03*
%TO.P,U18,16,I/O4*%
%TO.N,Net-(U16-D7)*%
X177800000Y-106680000D03*
%TO.P,U18,17,I/O3*%
%TO.N,Net-(U16-D6)*%
X175260000Y-106680000D03*
%TO.P,U18,18,I/O2*%
%TO.N,Net-(U16-D5)*%
X172720000Y-106680000D03*
%TO.P,U18,19,I/O1*%
%TO.N,Net-(U16-D4)*%
X170180000Y-106680000D03*
%TO.P,U18,20,NC*%
%TO.N,unconnected-(U18-NC-Pad20)*%
X167640000Y-106680000D03*
%TO.P,U18,21,A11*%
%TO.N,Net-(D25-K)*%
X165100000Y-106680000D03*
%TO.P,U18,22,A12*%
%TO.N,Net-(D26-K)*%
X162560000Y-106680000D03*
%TO.P,U18,23,A13*%
%TO.N,Net-(D27-K)*%
X160020000Y-106680000D03*
%TO.P,U18,24,A14*%
%TO.N,Net-(D28-K)*%
X157480000Y-106680000D03*
%TO.P,U18,25,A15*%
%TO.N,Net-(D29-K)*%
X154940000Y-106680000D03*
%TO.P,U18,26,A16*%
%TO.N,GND*%
X152400000Y-106680000D03*
%TO.P,U18,27,A17*%
X149860000Y-106680000D03*
%TO.P,U18,28,Vcc*%
%TO.N,+5V*%
X147320000Y-106680000D03*
%TD*%
D12*
%TO.P,D18,1,K*%
%TO.N,BANK0*%
X137160000Y-50800000D03*
D13*
%TO.P,D18,2,A*%
%TO.N,Net-(D18-A)*%
X137160000Y-53340000D03*
%TD*%
D12*
%TO.P,D16,1,K*%
%TO.N,BANK6*%
X106680000Y-50800000D03*
D13*
%TO.P,D16,2,A*%
%TO.N,Net-(D16-A)*%
X106680000Y-53340000D03*
%TD*%
D16*
%TO.P,RN3,1,common*%
%TO.N,+5V*%
X121920000Y-63500000D03*
D15*
%TO.P,RN3,2,R1*%
%TO.N,Net-(D14-A)*%
X119380000Y-63500000D03*
%TO.P,RN3,3,R2*%
%TO.N,Net-(D15-A)*%
X116840000Y-63500000D03*
%TO.P,RN3,4,R3*%
%TO.N,Net-(D16-A)*%
X114300000Y-63500000D03*
%TO.P,RN3,5,R4*%
%TO.N,Net-(D17-A)*%
X111760000Y-63500000D03*
%TD*%
D16*
%TO.P,D36,1,K*%
%TO.N,GND*%
X22860000Y-71120000D03*
D15*
%TO.P,D36,2,A*%
%TO.N,Net-(D36-A)*%
X22860000Y-78740000D03*
%TD*%
D16*
%TO.P,U9,1*%
%TO.N,Net-(C12-Pad1)*%
X15240000Y-15240000D03*
D15*
%TO.P,U9,2*%
%TO.N,Net-(C10-Pad1)*%
X17780000Y-15240000D03*
%TO.P,U9,3*%
%TO.N,Net-(C10-Pad2)*%
X20320000Y-15240000D03*
%TO.P,U9,4*%
%TO.N,Net-(R17-Pad2)*%
X22860000Y-15240000D03*
%TO.P,U9,5*%
%TO.N,Net-(U12-QC)*%
X25400000Y-15240000D03*
%TO.P,U9,6*%
%TO.N,Net-(U10-Pad13)*%
X27940000Y-15240000D03*
%TO.P,U9,7,GND*%
%TO.N,GND*%
X30480000Y-15240000D03*
%TO.P,U9,8*%
%TO.N,Net-(C8-Pad1)*%
X30480000Y-7620000D03*
%TO.P,U9,9*%
%TO.N,Net-(U10-Pad11)*%
X27940000Y-7620000D03*
%TO.P,U9,10*%
%TO.N,Net-(C9-Pad1)*%
X25400000Y-7620000D03*
%TO.P,U9,11*%
%TO.N,Net-(U10-Pad8)*%
X22860000Y-7620000D03*
%TO.P,U9,12*%
%TO.N,Net-(U10-Pad10)*%
X20320000Y-7620000D03*
%TO.P,U9,13*%
%TO.N,Net-(U12-QB)*%
X17780000Y-7620000D03*
%TO.P,U9,14,VCC*%
%TO.N,+5V*%
X15240000Y-7620000D03*
%TD*%
D14*
%TO.P,R34,1*%
%TO.N,Net-(U20-I{slash}O3)*%
X114300000Y-111760000D03*
D15*
%TO.P,R34,2*%
%TO.N,Net-(D32-K)*%
X121920000Y-111760000D03*
%TD*%
D12*
%TO.P,D37,1,K*%
%TO.N,Net-(D36-A)*%
X22860000Y-96520000D03*
D13*
%TO.P,D37,2,A*%
%TO.N,Net-(D37-A)*%
X22860000Y-93980000D03*
%TD*%
D16*
%TO.P,U12,1,~{CLEAR}*%
%TO.N,Net-(U12-EP)*%
X38100000Y-30480000D03*
D15*
%TO.P,U12,2,CLOCK*%
%TO.N,Net-(U12-CLOCK)*%
X40640000Y-30480000D03*
%TO.P,U12,3,A*%
%TO.N,GND*%
X43180000Y-30480000D03*
%TO.P,U12,4,B*%
X45720000Y-30480000D03*
%TO.P,U12,5,C*%
X48260000Y-30480000D03*
%TO.P,U12,6,D*%
X50800000Y-30480000D03*
%TO.P,U12,7,EP*%
%TO.N,Net-(U12-EP)*%
X53340000Y-30480000D03*
%TO.P,U12,8,GND*%
%TO.N,GND*%
X55880000Y-30480000D03*
%TO.P,U12,9,LOAD*%
%TO.N,Net-(U12-LOAD)*%
X55880000Y-22860000D03*
%TO.P,U12,10,ET*%
%TO.N,Net-(U12-EP)*%
X53340000Y-22860000D03*
%TO.P,U12,11,QD*%
%TO.N,unconnected-(U12-QD-Pad11)*%
X50800000Y-22860000D03*
%TO.P,U12,12,QC*%
%TO.N,Net-(U12-QC)*%
X48260000Y-22860000D03*
%TO.P,U12,13,QB*%
%TO.N,Net-(U12-QB)*%
X45720000Y-22860000D03*
%TO.P,U12,14,QA*%
%TO.N,unconnected-(U12-QA-Pad14)*%
X43180000Y-22860000D03*
%TO.P,U12,15,COUT*%
%TO.N,unconnected-(U12-COUT-Pad15)*%
X40640000Y-22860000D03*
%TO.P,U12,16,VCC*%
%TO.N,+5V*%
X38100000Y-22860000D03*
%TD*%
D22*
%TO.P,J3,1,Pin_1*%
%TO.N,GND*%
X178430000Y-60960000D03*
D23*
%TO.P,J3,2,Pin_2*%
%TO.N,Net-(D1-K)*%
X180970000Y-60960000D03*
%TO.P,J3,3,Pin_3*%
%TO.N,unconnected-(J3-Pin_3-Pad3)*%
X178430000Y-63500000D03*
%TO.P,J3,4,Pin_4*%
%TO.N,Net-(D2-K)*%
X180970000Y-63500000D03*
%TO.P,J3,5,Pin_5*%
%TO.N,unconnected-(J3-Pin_5-Pad5)*%
X178430000Y-66040000D03*
%TO.P,J3,6,Pin_6*%
%TO.N,Net-(D3-K)*%
X180970000Y-66040000D03*
%TO.P,J3,7,Pin_7*%
%TO.N,+5V*%
X178430000Y-68580000D03*
%TO.P,J3,8,Pin_8*%
%TO.N,Net-(D4-K)*%
X180970000Y-68580000D03*
%TD*%
D12*
%TO.P,D5,1,K*%
%TO.N,GND2*%
X180340000Y-15240000D03*
D13*
%TO.P,D5,2,A*%
%TO.N,Net-(D5-A)*%
X177800000Y-15240000D03*
%TD*%
D24*
%TO.P,Y1,1,1*%
%TO.N,Net-(C12-Pad1)*%
X17780000Y-22860000D03*
%TO.P,Y1,2,2*%
%TO.N,Net-(R17-Pad2)*%
X22660000Y-22860000D03*
%TD*%
D14*
%TO.P,R21,1*%
%TO.N,BANK6*%
X165100000Y-73660000D03*
D15*
%TO.P,R21,2*%
%TO.N,Net-(D28-K)*%
X165100000Y-81280000D03*
%TD*%
D20*
%TO.P,U20,1,D0*%
%TO.N,/ProgramMemory/D0*%
X53340000Y-81280000D03*
D21*
%TO.P,U20,2,D1*%
%TO.N,/ProgramMemory/D1*%
X55880000Y-81280000D03*
%TO.P,U20,3,D2*%
%TO.N,/ProgramMemory/D2*%
X58420000Y-81280000D03*
%TO.P,U20,4,D3*%
%TO.N,/ProgramMemory/D3*%
X60960000Y-81280000D03*
%TO.P,U20,5,OPR0*%
%TO.N,Net-(U16-D4)*%
X63500000Y-81280000D03*
%TO.P,U20,6,OPR1*%
%TO.N,Net-(U16-D5)*%
X66040000Y-81280000D03*
%TO.P,U20,7,OPR2*%
%TO.N,Net-(U16-D6)*%
X68580000Y-81280000D03*
%TO.P,U20,8,OPR3*%
%TO.N,Net-(U16-D7)*%
X71120000Y-81280000D03*
%TO.P,U20,9,OPA0*%
%TO.N,Net-(U16-D0)*%
X73660000Y-81280000D03*
%TO.P,U20,10,OPA1*%
%TO.N,Net-(U16-D1)*%
X76200000Y-81280000D03*
%TO.P,U20,11,OPA2*%
%TO.N,Net-(U16-D2)*%
X78740000Y-81280000D03*
%TO.P,U20,12,OPA3*%
%TO.N,Net-(U16-D3)*%
X81280000Y-81280000D03*
%TO.P,U20,13,CLK1*%
%TO.N,/ClockGen/CLK1*%
X83820000Y-81280000D03*
%TO.P,U20,14,CLK2*%
%TO.N,/ClockGen/CLK2*%
X86360000Y-81280000D03*
%TO.P,U20,15,SYNC*%
%TO.N,/ProgramMemory/SYNC*%
X88900000Y-81280000D03*
%TO.P,U20,16,CM*%
%TO.N,/ProgramMemory/CM*%
X91440000Y-81280000D03*
%TO.P,U20,17,RESET*%
%TO.N,/ProgramMemory/RESET*%
X93980000Y-81280000D03*
%TO.P,U20,18,IN*%
%TO.N,unconnected-(U20-IN-Pad18)*%
X96520000Y-81280000D03*
%TO.P,U20,19,OUT*%
%TO.N,Net-(U19-G1)*%
X99060000Y-81280000D03*
%TO.P,U20,20,Vss*%
%TO.N,+5V*%
X101600000Y-81280000D03*
%TO.P,U20,21,PM*%
%TO.N,Net-(U19-G2)*%
X101600000Y-66040000D03*
%TO.P,U20,22,FL*%
%TO.N,Net-(U20-FL)*%
X99060000Y-66040000D03*
%TO.P,U20,23,A0*%
%TO.N,Net-(U16-A0)*%
X96520000Y-66040000D03*
%TO.P,U20,24,A1*%
%TO.N,Net-(U16-A1)*%
X93980000Y-66040000D03*
%TO.P,U20,25,A2*%
%TO.N,Net-(U16-A2)*%
X91440000Y-66040000D03*
%TO.P,U20,26,A3*%
%TO.N,Net-(U16-A3)*%
X88900000Y-66040000D03*
%TO.P,U20,27,A4*%
%TO.N,Net-(U16-A4)*%
X86360000Y-66040000D03*
%TO.P,U20,28,A5*%
%TO.N,Net-(U16-A5)*%
X83820000Y-66040000D03*
%TO.P,U20,29,A6*%
%TO.N,Net-(U16-A6)*%
X81280000Y-66040000D03*
%TO.P,U20,30,A7*%
%TO.N,Net-(U16-A7)*%
X78740000Y-66040000D03*
%TO.P,U20,31,C0*%
%TO.N,C0*%
X76200000Y-66040000D03*
%TO.P,U20,32,C1*%
%TO.N,C1*%
X73660000Y-66040000D03*
%TO.P,U20,33,C2*%
%TO.N,C2*%
X71120000Y-66040000D03*
%TO.P,U20,34,C3*%
%TO.N,C3*%
X68580000Y-66040000D03*
%TO.P,U20,35,Vdd1*%
%TO.N,GND*%
X66040000Y-66040000D03*
%TO.P,U20,36,I/O4*%
%TO.N,Net-(U20-I{slash}O4)*%
X63500000Y-66040000D03*
%TO.P,U20,37,I/O3*%
%TO.N,Net-(U20-I{slash}O3)*%
X60960000Y-66040000D03*
%TO.P,U20,38,I/O2*%
%TO.N,Net-(U20-I{slash}O2)*%
X58420000Y-66040000D03*
%TO.P,U20,39,I/O1*%
%TO.N,Net-(U20-I{slash}O1)*%
X55880000Y-66040000D03*
%TO.P,U20,40,Vdd*%
%TO.N,-10V*%
X53340000Y-66040000D03*
%TD*%
D16*
%TO.P,U6,1,D0*%
%TO.N,/ProgramMemory/D0*%
X101600000Y-15240000D03*
D15*
%TO.P,U6,2,D1*%
%TO.N,/ProgramMemory/D1*%
X104140000Y-15240000D03*
%TO.P,U6,3,D2*%
%TO.N,/ProgramMemory/D2*%
X106680000Y-15240000D03*
%TO.P,U6,4,D3*%
%TO.N,/ProgramMemory/D3*%
X109220000Y-15240000D03*
%TO.P,U6,5,Vss*%
%TO.N,+5V*%
X111760000Y-15240000D03*
%TO.P,U6,6,CLK1*%
%TO.N,/ClockGen/CLK1*%
X114300000Y-15240000D03*
%TO.P,U6,7,CLK2*%
%TO.N,/ClockGen/CLK2*%
X116840000Y-15240000D03*
%TO.P,U6,8,SYNC*%
%TO.N,/ProgramMemory/SYNC*%
X119380000Y-15240000D03*
%TO.P,U6,9,RESET*%
%TO.N,/ProgramMemory/RESET*%
X119380000Y-7620000D03*
%TO.P,U6,10,P0*%
%TO.N,+5V*%
X116840000Y-7620000D03*
%TO.P,U6,11,CM*%
%TO.N,CM_RAM23*%
X114300000Y-7620000D03*
%TO.P,U6,12,Vdd*%
%TO.N,-10V*%
X111760000Y-7620000D03*
%TO.P,U6,13,O3*%
%TO.N,RAM2-3*%
X109220000Y-7620000D03*
%TO.P,U6,14,O2*%
%TO.N,RAM2-2*%
X106680000Y-7620000D03*
%TO.P,U6,15,O1*%
%TO.N,RAM2-1*%
X104140000Y-7620000D03*
%TO.P,U6,16,O0*%
%TO.N,RAM2-0*%
X101600000Y-7620000D03*
%TD*%
D20*
%TO.P,U16,1,NC*%
%TO.N,ROM_P1*%
X66040000Y-111760000D03*
D21*
%TO.P,U16,2,A12*%
%TO.N,ROM_P2*%
X68580000Y-111760000D03*
%TO.P,U16,3,A7*%
%TO.N,Net-(U16-A7)*%
X71120000Y-111760000D03*
%TO.P,U16,4,A6*%
%TO.N,Net-(U16-A6)*%
X73660000Y-111760000D03*
%TO.P,U16,5,A5*%
%TO.N,Net-(U16-A5)*%
X76200000Y-111760000D03*
%TO.P,U16,6,A4*%
%TO.N,Net-(U16-A4)*%
X78740000Y-111760000D03*
%TO.P,U16,7,A3*%
%TO.N,Net-(U16-A3)*%
X81280000Y-111760000D03*
%TO.P,U16,8,A2*%
%TO.N,Net-(U16-A2)*%
X83820000Y-111760000D03*
%TO.P,U16,9,A1*%
%TO.N,Net-(U16-A1)*%
X86360000Y-111760000D03*
%TO.P,U16,10,A0*%
%TO.N,Net-(U16-A0)*%
X88900000Y-111760000D03*
%TO.P,U16,11,D0*%
%TO.N,Net-(U16-D0)*%
X91440000Y-111760000D03*
%TO.P,U16,12,D1*%
%TO.N,Net-(U16-D1)*%
X93980000Y-111760000D03*
%TO.P,U16,13,D2*%
%TO.N,Net-(U16-D2)*%
X96520000Y-111760000D03*
%TO.P,U16,14,Vss(GND)*%
%TO.N,GND*%
X99060000Y-111760000D03*
%TO.P,U16,15,D3*%
%TO.N,Net-(U16-D3)*%
X99060000Y-96520000D03*
%TO.P,U16,16,D4*%
%TO.N,Net-(U16-D4)*%
X96520000Y-96520000D03*
%TO.P,U16,17,D5*%
%TO.N,Net-(U16-D5)*%
X93980000Y-96520000D03*
%TO.P,U16,18,D6*%
%TO.N,Net-(U16-D6)*%
X91440000Y-96520000D03*
%TO.P,U16,19,D7*%
%TO.N,Net-(U16-D7)*%
X88900000Y-96520000D03*
%TO.P,U16,20,~{CS}*%
%TO.N,~{CS_ROM}*%
X86360000Y-96520000D03*
%TO.P,U16,21,A10*%
%TO.N,C2*%
X83820000Y-96520000D03*
%TO.P,U16,22,~{OE}*%
%TO.N,~{OE}*%
X81280000Y-96520000D03*
%TO.P,U16,23,A11*%
%TO.N,C3*%
X78740000Y-96520000D03*
%TO.P,U16,24,A9*%
%TO.N,C1*%
X76200000Y-96520000D03*
%TO.P,U16,25,A8*%
%TO.N,C0*%
X73660000Y-96520000D03*
%TO.P,U16,26,NC*%
%TO.N,ROM_P26*%
X71120000Y-96520000D03*
%TO.P,U16,27,~{WE}*%
%TO.N,ROM_P27*%
X68580000Y-96520000D03*
%TO.P,U16,28,Vdd*%
%TO.N,+5V*%
X66040000Y-96520000D03*
%TD*%
D14*
%TO.P,C16,1*%
%TO.N,+5V*%
X63500000Y-29210000D03*
%TO.P,C16,2*%
%TO.N,-10V*%
X63500000Y-24210000D03*
%TD*%
%TO.P,C8,1*%
%TO.N,Net-(C8-Pad1)*%
X35560000Y-40640000D03*
%TO.P,C8,2*%
%TO.N,Net-(U11-IN_A)*%
X30560000Y-40640000D03*
%TD*%
%TO.P,R7,1*%
%TO.N,Net-(R7-Pad1)*%
X162560000Y-20320000D03*
D15*
%TO.P,R7,2*%
%TO.N,Net-(U2-K)*%
X170180000Y-20320000D03*
%TD*%
D14*
%TO.P,C21,1*%
%TO.N,+5V*%
X142240000Y-109220000D03*
%TO.P,C21,2*%
%TO.N,GND*%
X142240000Y-114220000D03*
%TD*%
%TO.P,C23,1*%
%TO.N,GND*%
X38100000Y-55960000D03*
%TO.P,C23,2*%
%TO.N,-10V*%
X38100000Y-60960000D03*
%TD*%
D17*
%TO.P,J6,1,Pin_1*%
%TO.N,Net-(D36-A)*%
X12700000Y-93980000D03*
%TD*%
D14*
%TO.P,C19,1*%
%TO.N,+5V*%
X109220000Y-97870000D03*
%TO.P,C19,2*%
%TO.N,GND*%
X109220000Y-102870000D03*
%TD*%
D12*
%TO.P,D21,1,K*%
%TO.N,BANK3*%
X121920000Y-50800000D03*
D13*
%TO.P,D21,2,A*%
%TO.N,Net-(D21-A)*%
X121920000Y-53340000D03*
%TD*%
D14*
%TO.P,C22,1*%
%TO.N,+5V*%
X111760000Y-81280000D03*
%TO.P,C22,2*%
%TO.N,GND*%
X111760000Y-76280000D03*
%TD*%
D16*
%TO.P,U2,1,NC*%
%TO.N,unconnected-(U2-NC-Pad1)*%
X160020000Y-15240000D03*
D15*
%TO.P,U2,2,A*%
%TO.N,+5V*%
X162560000Y-15240000D03*
%TO.P,U2,3,K*%
%TO.N,Net-(U2-K)*%
X165100000Y-15240000D03*
%TO.P,U2,4,NC*%
%TO.N,unconnected-(U2-NC-Pad4)*%
X167640000Y-15240000D03*
%TO.P,U2,5,GND*%
%TO.N,GND2*%
X167640000Y-7620000D03*
%TO.P,U2,6,Vo*%
%TO.N,Net-(J1-Pin_5)*%
X165100000Y-7620000D03*
%TO.P,U2,7,NC*%
%TO.N,unconnected-(U2-NC-Pad7)*%
X162560000Y-7620000D03*
%TO.P,U2,8,VDD*%
%TO.N,VBUS*%
X160020000Y-7620000D03*
%TD*%
D16*
%TO.P,D33,1,K*%
%TO.N,Net-(D33-K)*%
X124460000Y-109220000D03*
D15*
%TO.P,D33,2,A*%
%TO.N,GND*%
X127000000Y-109220000D03*
%TD*%
D14*
%TO.P,R19,1*%
%TO.N,-10V*%
X48260000Y-48260000D03*
D15*
%TO.P,R19,2*%
%TO.N,Net-(U11-OUT_B)*%
X40640000Y-48260000D03*
%TD*%
D16*
%TO.P,D29,1,K*%
%TO.N,Net-(D29-K)*%
X162560000Y-83820000D03*
D15*
%TO.P,D29,2,A*%
%TO.N,GND*%
X162560000Y-86360000D03*
%TD*%
D14*
%TO.P,C6,1*%
%TO.N,+5V*%
X5080000Y-20320000D03*
%TO.P,C6,2*%
%TO.N,GND*%
X10080000Y-20320000D03*
%TD*%
%TO.P,C18,1*%
%TO.N,+5V*%
X50800000Y-96440000D03*
%TO.P,C18,2*%
%TO.N,GND*%
X50800000Y-91440000D03*
%TD*%
D16*
%TO.P,D32,1,K*%
%TO.N,Net-(D32-K)*%
X124460000Y-111760000D03*
D15*
%TO.P,D32,2,A*%
%TO.N,GND*%
X127000000Y-111760000D03*
%TD*%
D14*
%TO.P,R9,1*%
%TO.N,Net-(R9-Pad1)*%
X160020000Y-25400000D03*
D15*
%TO.P,R9,2*%
%TO.N,Net-(C3-Pad1)*%
X152400000Y-25400000D03*
%TD*%
D16*
%TO.P,U7,1,D0*%
%TO.N,/ProgramMemory/D0*%
X68580000Y-30480000D03*
D15*
%TO.P,U7,2,D1*%
%TO.N,/ProgramMemory/D1*%
X71120000Y-30480000D03*
%TO.P,U7,3,D2*%
%TO.N,/ProgramMemory/D2*%
X73660000Y-30480000D03*
%TO.P,U7,4,D3*%
%TO.N,/ProgramMemory/D3*%
X76200000Y-30480000D03*
%TO.P,U7,5,Vss*%
%TO.N,+5V*%
X78740000Y-30480000D03*
%TO.P,U7,6,CLK1*%
%TO.N,/ClockGen/CLK1*%
X81280000Y-30480000D03*
%TO.P,U7,7,CLK2*%
%TO.N,/ClockGen/CLK2*%
X83820000Y-30480000D03*
%TO.P,U7,8,SYNC*%
%TO.N,/ProgramMemory/SYNC*%
X86360000Y-30480000D03*
%TO.P,U7,9,RESET*%
%TO.N,/ProgramMemory/RESET*%
X86360000Y-22860000D03*
%TO.P,U7,10,P0*%
%TO.N,-10V*%
X83820000Y-22860000D03*
%TO.P,U7,11,CM*%
%TO.N,CMRAM0*%
X81280000Y-22860000D03*
%TO.P,U7,12,Vdd*%
%TO.N,-10V*%
X78740000Y-22860000D03*
%TO.P,U7,13,O3*%
%TO.N,BANK7*%
X76200000Y-22860000D03*
%TO.P,U7,14,O2*%
%TO.N,BANK6*%
X73660000Y-22860000D03*
%TO.P,U7,15,O1*%
%TO.N,BANK5*%
X71120000Y-22860000D03*
%TO.P,U7,16,O0*%
%TO.N,BANK4*%
X68580000Y-22860000D03*
%TD*%
D14*
%TO.P,R32,1*%
%TO.N,Net-(U20-I{slash}O1)*%
X114300000Y-116840000D03*
D15*
%TO.P,R32,2*%
%TO.N,Net-(D30-K)*%
X121920000Y-116840000D03*
%TD*%
D12*
%TO.P,D8,1,K*%
%TO.N,Net-(D8-K)*%
X106680000Y-40640000D03*
D13*
%TO.P,D8,2,A*%
%TO.N,Net-(D8-A)*%
X106680000Y-43180000D03*
%TD*%
D14*
%TO.P,C3,1*%
%TO.N,Net-(C3-Pad1)*%
X155020000Y-27940000D03*
%TO.P,C3,2*%
%TO.N,-10V*%
X160020000Y-27940000D03*
%TD*%
%TO.P,R8,1*%
%TO.N,+5V*%
X160020000Y-22860000D03*
D15*
%TO.P,R8,2*%
%TO.N,Net-(C3-Pad1)*%
X152400000Y-22860000D03*
%TD*%
D12*
%TO.P,D10,1,K*%
%TO.N,RAM2-0*%
X137160000Y-40640000D03*
D13*
%TO.P,D10,2,A*%
%TO.N,Net-(D10-A)*%
X137160000Y-43180000D03*
%TD*%
D16*
%TO.P,U11,1,NC*%
%TO.N,unconnected-(U11-NC-Pad1)*%
X17780000Y-45720000D03*
D15*
%TO.P,U11,2,IN_A*%
%TO.N,Net-(U11-IN_A)*%
X20320000Y-45720000D03*
%TO.P,U11,3,V-*%
%TO.N,-10V*%
X22860000Y-45720000D03*
%TO.P,U11,4,IN_B*%
%TO.N,Net-(U11-IN_B)*%
X25400000Y-45720000D03*
%TO.P,U11,5,OUT_B*%
%TO.N,Net-(U11-OUT_B)*%
X25400000Y-38100000D03*
%TO.P,U11,6,V+*%
%TO.N,+5V*%
X22860000Y-38100000D03*
%TO.P,U11,7,OUT_A*%
%TO.N,Net-(U11-OUT_A)*%
X20320000Y-38100000D03*
%TO.P,U11,8,NC*%
%TO.N,unconnected-(U11-NC-Pad8)*%
X17780000Y-38100000D03*
%TD*%
D16*
%TO.P,U19,1,G1*%
%TO.N,Net-(U19-G1)*%
X114300000Y-104140000D03*
D15*
%TO.P,U19,2,A0*%
%TO.N,Net-(D30-K)*%
X116840000Y-104140000D03*
%TO.P,U19,3,A1*%
%TO.N,Net-(D31-K)*%
X119380000Y-104140000D03*
%TO.P,U19,4,A2*%
%TO.N,Net-(D32-K)*%
X121920000Y-104140000D03*
%TO.P,U19,5,A3*%
%TO.N,Net-(D33-K)*%
X124460000Y-104140000D03*
%TO.P,U19,6,A4*%
%TO.N,Net-(D30-K)*%
X127000000Y-104140000D03*
%TO.P,U19,7,A5*%
%TO.N,Net-(D31-K)*%
X129540000Y-104140000D03*
%TO.P,U19,8,A6*%
%TO.N,Net-(D32-K)*%
X132080000Y-104140000D03*
%TO.P,U19,9,A7*%
%TO.N,Net-(D33-K)*%
X134620000Y-104140000D03*
%TO.P,U19,10,GND*%
%TO.N,GND*%
X137160000Y-104140000D03*
%TO.P,U19,11,Y7*%
%TO.N,Net-(U16-D7)*%
X137160000Y-96520000D03*
%TO.P,U19,12,Y6*%
%TO.N,Net-(U16-D6)*%
X134620000Y-96520000D03*
%TO.P,U19,13,Y5*%
%TO.N,Net-(U16-D5)*%
X132080000Y-96520000D03*
%TO.P,U19,14,Y4*%
%TO.N,Net-(U16-D4)*%
X129540000Y-96520000D03*
%TO.P,U19,15,Y3*%
%TO.N,Net-(U16-D3)*%
X127000000Y-96520000D03*
%TO.P,U19,16,Y2*%
%TO.N,Net-(U16-D2)*%
X124460000Y-96520000D03*
%TO.P,U19,17,Y1*%
%TO.N,Net-(U16-D1)*%
X121920000Y-96520000D03*
%TO.P,U19,18,Y0*%
%TO.N,Net-(U16-D0)*%
X119380000Y-96520000D03*
%TO.P,U19,19,G2*%
%TO.N,Net-(U19-G2)*%
X116840000Y-96520000D03*
%TO.P,U19,20,VCC*%
%TO.N,+5V*%
X114300000Y-96520000D03*
%TD*%
D14*
%TO.P,R30,1*%
%TO.N,GND*%
X38100000Y-93980000D03*
D15*
%TO.P,R30,2*%
%TO.N,ROM_P2*%
X45720000Y-93980000D03*
%TD*%
D16*
%TO.P,C25,1*%
%TO.N,GND*%
X27940000Y-63500000D03*
D14*
%TO.P,C25,2*%
%TO.N,-10V*%
X30440000Y-63500000D03*
%TD*%
%TO.P,R27,1*%
%TO.N,BANK0*%
X180340000Y-73660000D03*
D15*
%TO.P,R27,2*%
%TO.N,Net-(D22-K)*%
X180340000Y-81280000D03*
%TD*%
D16*
%TO.P,RN1,1,common*%
%TO.N,+5V*%
X121920000Y-60960000D03*
D15*
%TO.P,RN1,2,R1*%
%TO.N,Net-(D6-A)*%
X119380000Y-60960000D03*
%TO.P,RN1,3,R2*%
%TO.N,Net-(D7-A)*%
X116840000Y-60960000D03*
%TO.P,RN1,4,R3*%
%TO.N,Net-(D8-A)*%
X114300000Y-60960000D03*
%TO.P,RN1,5,R4*%
%TO.N,Net-(D9-A)*%
X111760000Y-60960000D03*
%TD*%
D25*
%TO.P,SW1,1,1*%
%TO.N,-10V*%
X163980000Y-45720000D03*
X157480000Y-45720000D03*
%TO.P,SW1,2,2*%
%TO.N,Net-(R9-Pad1)*%
X163980000Y-41220000D03*
X157480000Y-41220000D03*
%TD*%
D12*
%TO.P,D14,1,K*%
%TO.N,BANK4*%
X116840000Y-50800000D03*
D13*
%TO.P,D14,2,A*%
%TO.N,Net-(D14-A)*%
X116840000Y-53340000D03*
%TD*%
D14*
%TO.P,C10,1*%
%TO.N,Net-(C10-Pad1)*%
X17780000Y-17780000D03*
%TO.P,C10,2*%
%TO.N,Net-(C10-Pad2)*%
X22780000Y-17780000D03*
%TD*%
D12*
%TO.P,D12,1,K*%
%TO.N,RAM2-2*%
X127000000Y-40640000D03*
D13*
%TO.P,D12,2,A*%
%TO.N,Net-(D12-A)*%
X127000000Y-43180000D03*
%TD*%
D12*
%TO.P,D34,1,K*%
%TO.N,GND*%
X27940000Y-96520000D03*
D13*
%TO.P,D34,2,A*%
%TO.N,Net-(D34-A)*%
X27940000Y-93980000D03*
%TD*%
D16*
%TO.P,RN4,1,common*%
%TO.N,+5V*%
X137160000Y-63500000D03*
D15*
%TO.P,RN4,2,R1*%
%TO.N,Net-(D18-A)*%
X134620000Y-63500000D03*
%TO.P,RN4,3,R2*%
%TO.N,Net-(D19-A)*%
X132080000Y-63500000D03*
%TO.P,RN4,4,R3*%
%TO.N,Net-(D20-A)*%
X129540000Y-63500000D03*
%TO.P,RN4,5,R4*%
%TO.N,Net-(D21-A)*%
X127000000Y-63500000D03*
%TD*%
D16*
%TO.P,U13,1*%
%TO.N,Net-(U19-G1)*%
X139700000Y-88900000D03*
D15*
%TO.P,U13,2*%
%TO.N,~{OE}*%
X142240000Y-88900000D03*
%TO.P,U13,3*%
%TO.N,Net-(U20-FL)*%
X144780000Y-88900000D03*
%TO.P,U13,4*%
%TO.N,Net-(U13-Pad4)*%
X147320000Y-88900000D03*
%TO.P,U13,5*%
%TO.N,~{CS_ROM}*%
X149860000Y-88900000D03*
%TO.P,U13,6*%
%TO.N,~{CS_RAM}*%
X152400000Y-88900000D03*
%TO.P,U13,7,GND*%
%TO.N,GND*%
X154940000Y-88900000D03*
%TO.P,U13,8*%
%TO.N,unconnected-(U13-Pad8)*%
X154940000Y-81280000D03*
%TO.P,U13,9*%
%TO.N,+5V*%
X152400000Y-81280000D03*
%TO.P,U13,10*%
%TO.N,unconnected-(U13-Pad10)*%
X149860000Y-81280000D03*
%TO.P,U13,11*%
%TO.N,+5V*%
X147320000Y-81280000D03*
%TO.P,U13,12*%
%TO.N,unconnected-(U13-Pad12)*%
X144780000Y-81280000D03*
%TO.P,U13,13*%
%TO.N,+5V*%
X142240000Y-81280000D03*
%TO.P,U13,14,VCC*%
X139700000Y-81280000D03*
%TD*%
D17*
%TO.P,J4,1,Pin_1*%
%TO.N,Net-(D35-K)*%
X12700000Y-63500000D03*
%TD*%
D14*
%TO.P,R35,1*%
%TO.N,Net-(U20-I{slash}O4)*%
X114300000Y-109220000D03*
D15*
%TO.P,R35,2*%
%TO.N,Net-(D33-K)*%
X121920000Y-109220000D03*
%TD*%
D14*
%TO.P,R4,1*%
%TO.N,RAM2-3*%
X152400000Y-68580000D03*
D15*
%TO.P,R4,2*%
%TO.N,Net-(D4-K)*%
X160020000Y-68580000D03*
%TD*%
D16*
%TO.P,D30,1,K*%
%TO.N,Net-(D30-K)*%
X124460000Y-116840000D03*
D15*
%TO.P,D30,2,A*%
%TO.N,GND*%
X127000000Y-116840000D03*
%TD*%
D16*
%TO.P,C24,1*%
%TO.N,+5V*%
X5802621Y-38100000D03*
D14*
%TO.P,C24,2*%
%TO.N,GND*%
X8302621Y-38100000D03*
%TD*%
%TO.P,C11,1*%
%TO.N,GND*%
X35560000Y-49530000D03*
%TO.P,C11,2*%
%TO.N,-10V*%
X30560000Y-49530000D03*
%TD*%
D16*
%TO.P,D35,1,K*%
%TO.N,Net-(D35-K)*%
X22860000Y-55880000D03*
D15*
%TO.P,D35,2,A*%
%TO.N,GND*%
X22860000Y-63500000D03*
%TD*%
D14*
%TO.P,R28,1*%
%TO.N,ROM_P27*%
X45720000Y-88900000D03*
D15*
%TO.P,R28,2*%
%TO.N,+5V*%
X38100000Y-88900000D03*
%TD*%
D14*
%TO.P,R14,1*%
%TO.N,Net-(U11-OUT_A)*%
X40640000Y-40640000D03*
D15*
%TO.P,R14,2*%
%TO.N,/ClockGen/CLK1*%
X48260000Y-40640000D03*
%TD*%
D25*
%TO.P,SW2,1,1*%
%TO.N,-10V*%
X176680000Y-45720000D03*
X170180000Y-45720000D03*
%TO.P,SW2,2,2*%
%TO.N,Net-(R11-Pad1)*%
X176680000Y-41220000D03*
X170180000Y-41220000D03*
%TD*%
D16*
%TO.P,U1,1,NC*%
%TO.N,unconnected-(U1-NC-Pad1)*%
X144780000Y-15240000D03*
D15*
%TO.P,U1,2,A*%
%TO.N,VBUS*%
X147320000Y-15240000D03*
%TO.P,U1,3,K*%
%TO.N,Net-(U1-K)*%
X149860000Y-15240000D03*
%TO.P,U1,4,NC*%
%TO.N,unconnected-(U1-NC-Pad4)*%
X152400000Y-15240000D03*
%TO.P,U1,5,GND*%
%TO.N,-10V*%
X152400000Y-7620000D03*
%TO.P,U1,6,Vo*%
%TO.N,Net-(U1-Vo)*%
X149860000Y-7620000D03*
%TO.P,U1,7,NC*%
%TO.N,unconnected-(U1-NC-Pad7)*%
X147320000Y-7620000D03*
%TO.P,U1,8,VDD*%
%TO.N,+5V*%
X144780000Y-7620000D03*
%TD*%
D14*
%TO.P,R25,1*%
%TO.N,BANK2*%
X175260000Y-73660000D03*
D15*
%TO.P,R25,2*%
%TO.N,Net-(D24-K)*%
X175260000Y-81280000D03*
%TD*%
D12*
%TO.P,D6,1,K*%
%TO.N,Net-(D6-K)*%
X116840000Y-40640000D03*
D13*
%TO.P,D6,2,A*%
%TO.N,Net-(D6-A)*%
X116840000Y-43180000D03*
%TD*%
D26*
%TO.N,+5V*%
X12065000Y-8890000D03*
X45720000Y-35560000D03*
X180340000Y-71120000D03*
X13335000Y-8890000D03*
X111760000Y-105410000D03*
X45720000Y-34290000D03*
X44450000Y-34290000D03*
X133350000Y-15240000D03*
X111760000Y-106680000D03*
X59690000Y-48260000D03*
X179070000Y-71120000D03*
X12065000Y-7620000D03*
X58420000Y-48260000D03*
X115570000Y-12700000D03*
X132080000Y-15240000D03*
X13335000Y-7620000D03*
X44450000Y-35560000D03*
%TO.N,-10V*%
X58420000Y-43180000D03*
X50800000Y-64770000D03*
X49530000Y-64770000D03*
X50800000Y-66040000D03*
X59690000Y-43180000D03*
X49530000Y-66040000D03*
%TO.N,GND*%
X133350000Y-85090000D03*
X134620000Y-85090000D03*
X57150000Y-106680000D03*
X50800000Y-87630000D03*
X157480000Y-77470000D03*
X50800000Y-88900000D03*
X157480000Y-76200000D03*
X106680000Y-85090000D03*
X106680000Y-86360000D03*
X57150000Y-107950000D03*
X57150000Y-109220000D03*
%TO.N,RAM2-0*%
X152400000Y-40640000D03*
%TO.N,RAM2-1*%
X151130000Y-41910000D03*
%TO.N,RAM2-2*%
X149860000Y-43180000D03*
%TO.N,RAM2-3*%
X148590000Y-44450000D03*
%TO.N,BANK4*%
X170815000Y-55880000D03*
X90805000Y-18415000D03*
X91440000Y-47625000D03*
%TO.N,BANK5*%
X90170000Y-19685000D03*
X169545000Y-56515000D03*
X90805000Y-48895000D03*
%TO.N,BANK6*%
X168275000Y-57150000D03*
X89535000Y-20955000D03*
X90170000Y-50165000D03*
%TO.N,BANK7*%
X89535000Y-51435000D03*
X88900000Y-22225000D03*
X167005000Y-57785000D03*
%TO.N,BANK0*%
X137160000Y-46990000D03*
X122555000Y-46756838D03*
X175895000Y-53340000D03*
X123190000Y-18415000D03*
%TO.N,BANK1*%
X174625000Y-53975000D03*
X122555000Y-19685000D03*
X132080000Y-47625000D03*
X121285000Y-47553245D03*
%TO.N,BANK2*%
X120015000Y-48260000D03*
X127000000Y-48260000D03*
X173355000Y-54610000D03*
X121920000Y-20955000D03*
%TO.N,BANK3*%
X121285000Y-22225000D03*
X172085000Y-55245000D03*
%TO.N,Net-(D22-K)*%
X179070000Y-101600000D03*
%TO.N,Net-(D23-K)*%
X176530000Y-102324500D03*
%TO.N,Net-(D33-K)*%
X124460000Y-102235000D03*
%TO.N,CMRAM0*%
X67310000Y-17780000D03*
X127000000Y-19050000D03*
X80010000Y-17780000D03*
%TO.N,CMRAM1*%
X77470000Y-16510000D03*
X80010000Y-35014500D03*
X127000000Y-17145000D03*
%TO.N,Net-(R7-Pad1)*%
X142240000Y-19050000D03*
%TO.N,/ClockGen/CLK1*%
X82550000Y-35560000D03*
%TO.N,/ClockGen/CLK2*%
X85090000Y-36830000D03*
%TO.N,ROM_P27*%
X52705000Y-94615000D03*
%TO.N,Net-(U20-I{slash}O1)*%
X54610000Y-116840000D03*
%TO.N,Net-(U20-I{slash}O2)*%
X57150000Y-116115500D03*
%TO.N,Net-(U20-I{slash}O3)*%
X59690000Y-115391000D03*
%TO.N,Net-(U20-I{slash}O4)*%
X62230000Y-114666500D03*
%TO.N,/ProgramMemory/RESET*%
X86360000Y-4990500D03*
X92710000Y-58420000D03*
X85090000Y-58420000D03*
X119380000Y-27940000D03*
%TO.N,/ProgramMemory/D0*%
X69850000Y-32385000D03*
%TO.N,/ProgramMemory/D1*%
X72390000Y-33020000D03*
%TO.N,/ProgramMemory/D2*%
X74930000Y-33655000D03*
%TO.N,/ProgramMemory/D3*%
X77470000Y-34290000D03*
%TO.N,/ProgramMemory/SYNC*%
X87630000Y-38100000D03*
%TO.N,/ProgramMemory/CM*%
X90170000Y-59690000D03*
X80010000Y-59690000D03*
%TO.N,Net-(U4-TEST)*%
X147320000Y-39370000D03*
%TO.N,Net-(U12-QB)*%
X46994762Y-5572969D03*
%TO.N,~{OE}*%
X176530000Y-114935000D03*
X81280000Y-91440000D03*
X144272000Y-115058162D03*
%TO.N,Net-(U13-Pad4)*%
X124460000Y-86360000D03*
%TO.N,~{CS_ROM}*%
X148590000Y-73660000D03*
X104775000Y-69850000D03*
X104775000Y-97790000D03*
%TO.N,~{CS_RAM}*%
X173990000Y-114300000D03*
X145325500Y-114300000D03*
%TO.N,C0*%
X74930000Y-78015500D03*
%TO.N,C1*%
X72390000Y-78740000D03*
X72390000Y-94615000D03*
%TO.N,C2*%
X69850000Y-91440000D03*
X69850000Y-79230500D03*
%TO.N,C3*%
X67310000Y-80010000D03*
X67310000Y-91440000D03*
%TO.N,Net-(U19-G1)*%
X99060000Y-71755000D03*
X121920000Y-71755000D03*
X113030000Y-83185000D03*
X140970000Y-71755000D03*
%TO.N,Net-(U20-FL)*%
X100330000Y-90805000D03*
X144780000Y-91529500D03*
%TO.N,Net-(U19-G2)*%
X119380000Y-71030500D03*
%TO.N,Net-(U16-D0)*%
X170180000Y-98881000D03*
X100965000Y-88265000D03*
X100965000Y-99060000D03*
%TO.N,Net-(U16-D1)*%
X102235000Y-100330000D03*
X102235000Y-87630000D03*
X172720000Y-99605500D03*
X121920000Y-99695000D03*
%TO.N,Net-(U16-D2)*%
X104140000Y-100965000D03*
X175260000Y-100330000D03*
X124460000Y-100330000D03*
X103505000Y-86995000D03*
%TO.N,Net-(U16-D3)*%
X99060000Y-85635500D03*
%TO.N,Net-(U16-D4)*%
X128905000Y-111125000D03*
X96520000Y-90170000D03*
%TO.N,Net-(U16-D5)*%
X93980000Y-89445500D03*
X130810000Y-111760000D03*
%TO.N,Net-(U16-D6)*%
X133350000Y-112395000D03*
X91440000Y-88810500D03*
%TO.N,Net-(U16-D7)*%
X135890000Y-113030000D03*
X88900000Y-88175500D03*
%TO.N,Net-(U10-Pad13)*%
X44450000Y-17780000D03*
%TO.N,Net-(U10-Pad8)*%
X22860000Y-3810000D03*
%TO.N,Net-(U10-Pad10)*%
X20320000Y-4848469D03*
%TO.N,Net-(D6-K)*%
X147320000Y-45720000D03*
X93980000Y-46355000D03*
%TO.N,Net-(D7-K)*%
X93345000Y-45085000D03*
%TO.N,Net-(D8-K)*%
X92710000Y-41910000D03*
%TO.N,Net-(D9-K)*%
X92075000Y-40640000D03*
%TO.N,Net-(R17-Pad2)*%
X40640000Y-20320000D03*
%TD*%
D27*
%TO.N,Net-(D35-K)*%
X2000000Y-105505000D02*
X2000000Y-67310000D01*
D28*
%TO.N,+5V*%
X63500000Y-29210000D02*
X63500000Y-36830000D01*
D29*
X39370000Y-97790000D02*
X43180000Y-101600000D01*
D28*
X66040000Y-100330000D02*
X66040000Y-101600000D01*
X30560000Y-35480000D02*
X30560000Y-36630000D01*
X62150000Y-13890000D02*
X58420000Y-10160000D01*
X144725000Y-93980000D02*
X142240000Y-96465000D01*
X48260000Y-98980000D02*
X48260000Y-101600000D01*
X50800000Y-96440000D02*
X65960000Y-96440000D01*
D27*
X99060000Y-101600000D02*
X101600000Y-104140000D01*
D28*
X15240000Y-7620000D02*
X11430000Y-7620000D01*
D29*
X39370000Y-90170000D02*
X39370000Y-97790000D01*
D28*
X78740000Y-14108630D02*
X80148630Y-12700000D01*
D29*
X26525000Y-82695000D02*
X25400000Y-83820000D01*
D27*
X98485000Y-101025000D02*
X99060000Y-101600000D01*
D28*
X15875000Y-9525000D02*
X16510000Y-10160000D01*
D30*
X137950000Y-83030000D02*
X139700000Y-81280000D01*
D28*
X147320000Y-93980000D02*
X144725000Y-93980000D01*
X40635000Y-8751370D02*
X40635000Y-7620000D01*
D27*
X110462641Y-105870000D02*
X110706321Y-105626320D01*
D28*
X111760000Y-30480000D02*
X111760000Y-29348630D01*
X111760000Y-14108630D02*
X113168630Y-12700000D01*
X147320000Y-106680000D02*
X144780000Y-106680000D01*
X66040000Y-96520000D02*
X66040000Y-100330000D01*
X44260000Y-34290000D02*
X44450000Y-34290000D01*
X12065000Y-8890000D02*
X13970000Y-8890000D01*
X113030000Y-106680000D02*
X147320000Y-106680000D01*
X110490000Y-27940000D02*
X111760000Y-29210000D01*
D29*
X121920000Y-68580000D02*
X124460000Y-68580000D01*
D28*
X36750000Y-10160000D02*
X43180000Y-10160000D01*
D29*
X38100000Y-88900000D02*
X31895000Y-82695000D01*
X148590000Y-80010000D02*
X147320000Y-81280000D01*
X143510000Y-80010000D02*
X142240000Y-81280000D01*
D28*
X45720000Y-34290000D02*
X47770610Y-35560000D01*
X126640862Y-15240000D02*
X133350000Y-15240000D01*
X78740000Y-13970000D02*
X78740000Y-15240000D01*
D29*
X146050000Y-80010000D02*
X143510000Y-80010000D01*
D28*
X31210000Y-34830000D02*
X30560000Y-35480000D01*
X44450000Y-35560000D02*
X45720000Y-35560000D01*
X144780000Y-7620000D02*
X144780000Y-5080000D01*
D27*
X66040000Y-100330000D02*
X63500000Y-97790000D01*
D31*
X144780000Y-93980000D02*
X142240000Y-96520000D01*
D27*
X107140000Y-105870000D02*
X110462641Y-105870000D01*
D28*
X42043630Y-10160000D02*
X40635000Y-8751370D01*
X96520000Y-13970000D02*
X97319999Y-13170001D01*
X50800000Y-96440000D02*
X48260000Y-98980000D01*
X97319999Y-13170001D02*
X110960001Y-13170001D01*
X109855000Y-96520000D02*
X114300000Y-96520000D01*
X11430000Y-7620000D02*
X11430000Y-8890000D01*
X63500000Y-13890000D02*
X62150000Y-13890000D01*
D29*
X137215000Y-16565000D02*
X135890000Y-15240000D01*
D28*
X136430000Y-65500000D02*
X137160000Y-64770000D01*
X64299999Y-13090001D02*
X77860001Y-13090001D01*
X77860001Y-13090001D02*
X78740000Y-13970000D01*
X43720000Y-34830000D02*
X44260000Y-34290000D01*
D31*
X144780000Y-71120000D02*
X137160000Y-63500000D01*
D27*
X97215000Y-101025000D02*
X98485000Y-101025000D01*
D28*
X65960000Y-96440000D02*
X66040000Y-96520000D01*
D29*
X170180000Y-22860000D02*
X162560000Y-15240000D01*
D28*
X15240000Y-7620000D02*
X15240000Y-8751370D01*
D29*
X38100000Y-88900000D02*
X39370000Y-90170000D01*
D28*
X124100862Y-12700000D02*
X126640862Y-15240000D01*
X49040610Y-36830000D02*
X63500000Y-36830000D01*
X34370000Y-10160000D02*
X35560000Y-8970000D01*
D29*
X127000000Y-76200000D02*
X129540000Y-76200000D01*
X161235000Y-16565000D02*
X137215000Y-16565000D01*
D28*
X43720000Y-34830000D02*
X31210000Y-34830000D01*
X96520000Y-29210000D02*
X97790000Y-27940000D01*
X133350000Y-15240000D02*
X137160000Y-15240000D01*
D27*
X101600000Y-104140000D02*
X105410000Y-104140000D01*
D30*
X118590000Y-83030000D02*
X137950000Y-83030000D01*
D29*
X152400000Y-81280000D02*
X151130000Y-80010000D01*
D28*
X111760000Y-15240000D02*
X111760000Y-14108630D01*
D29*
X151130000Y-80010000D02*
X148590000Y-80010000D01*
X162560000Y-15240000D02*
X161235000Y-16565000D01*
D28*
X58420000Y-10160000D02*
X42043630Y-10160000D01*
X44450000Y-35560000D02*
X43720000Y-34830000D01*
D31*
X180340000Y-71120000D02*
X144780000Y-71120000D01*
D28*
X78740000Y-29210000D02*
X78740000Y-30480000D01*
D32*
X63500000Y-97790000D02*
X50800000Y-97790000D01*
D28*
X110490000Y-106680000D02*
X113030000Y-106680000D01*
X35560000Y-8970000D02*
X36750000Y-10160000D01*
D29*
X115570000Y-12700000D02*
X110490000Y-12700000D01*
D28*
X137160000Y-15240000D02*
X144780000Y-7620000D01*
D27*
X66040000Y-100330000D02*
X66735000Y-101025000D01*
X66735000Y-101025000D02*
X97215000Y-101025000D01*
D28*
X113168630Y-12700000D02*
X124100862Y-12700000D01*
X137160000Y-64770000D02*
X137160000Y-63500000D01*
X78740000Y-50800000D02*
X78740000Y-49530000D01*
D29*
X142240000Y-81280000D02*
X139700000Y-81280000D01*
D28*
X77470000Y-27940000D02*
X78740000Y-29210000D01*
X111760000Y-13970000D02*
X111760000Y-15240000D01*
X111760000Y-105410000D02*
X110490000Y-105410000D01*
D31*
X147320000Y-93980000D02*
X144780000Y-93980000D01*
D28*
X113030000Y-106680000D02*
X111760000Y-105410000D01*
X109220000Y-97155000D02*
X109855000Y-96520000D01*
X95250000Y-27940000D02*
X96520000Y-29210000D01*
X64770000Y-27940000D02*
X77470000Y-27940000D01*
X78740000Y-49530000D02*
X77470000Y-48260000D01*
X63500000Y-13890000D02*
X64299999Y-13090001D01*
D29*
X31895000Y-82695000D02*
X26525000Y-82695000D01*
D28*
X97790000Y-27940000D02*
X110490000Y-27940000D01*
X123920000Y-65500000D02*
X136430000Y-65500000D01*
X110960001Y-13170001D02*
X111760000Y-13970000D01*
X16648630Y-10160000D02*
X34370000Y-10160000D01*
X63500000Y-29210000D02*
X64770000Y-27940000D01*
X80148630Y-27940000D02*
X95250000Y-27940000D01*
X78740000Y-29348630D02*
X80148630Y-27940000D01*
D27*
X105410000Y-104140000D02*
X107140000Y-105870000D01*
D28*
X111760000Y-29210000D02*
X111760000Y-30480000D01*
X78740000Y-15240000D02*
X78740000Y-14108630D01*
D30*
X116840000Y-81280000D02*
X118590000Y-83030000D01*
D29*
X147320000Y-81280000D02*
X146050000Y-80010000D01*
D28*
X45720000Y-35560000D02*
X45720000Y-34290000D01*
X47770610Y-35560000D02*
X49040610Y-36830000D01*
X101600000Y-81280000D02*
X116840000Y-81280000D01*
X109220000Y-97870000D02*
X109220000Y-97155000D01*
X15240000Y-8751370D02*
X16648630Y-10160000D01*
X121920000Y-63500000D02*
X123920000Y-65500000D01*
X77470000Y-48260000D02*
X55880000Y-48260000D01*
X80148630Y-12700000D02*
X95250000Y-12700000D01*
X144780000Y-106680000D02*
X142240000Y-109220000D01*
X95250000Y-12700000D02*
X96520000Y-13970000D01*
%TO.N,-10V*%
X110490000Y-25400000D02*
X111760000Y-24130000D01*
X55880000Y-43260000D02*
X63580000Y-43260000D01*
X96520000Y-24210000D02*
X97710000Y-25400000D01*
D27*
X49530000Y-66040000D02*
X50165000Y-66040000D01*
D28*
X78740000Y-24130000D02*
X78740000Y-22860000D01*
X64770000Y-44450000D02*
X58420000Y-44450000D01*
D27*
X33680000Y-60960000D02*
X31140000Y-63500000D01*
D28*
X111760000Y-24130000D02*
X111760000Y-22860000D01*
X63500000Y-24210000D02*
X64690000Y-25400000D01*
D27*
X31140000Y-63500000D02*
X33680000Y-66040000D01*
D28*
X147320000Y-27940000D02*
X147320000Y-30480000D01*
X63580000Y-43260000D02*
X64770000Y-44450000D01*
X147320000Y-30480000D02*
X157480000Y-30480000D01*
D27*
X38100000Y-63500000D02*
X35560000Y-63500000D01*
D28*
X97710000Y-25400000D02*
X110490000Y-25400000D01*
X95330000Y-10160000D02*
X109508428Y-10160000D01*
X64690000Y-25400000D02*
X77470000Y-25400000D01*
X111760000Y-7908428D02*
X111760000Y-7675000D01*
D29*
X176680000Y-45720000D02*
X157480000Y-45720000D01*
D28*
X78740000Y-23991370D02*
X80148630Y-25400000D01*
X157480000Y-30480000D02*
X160020000Y-27940000D01*
X78740000Y-22860000D02*
X78740000Y-23991370D01*
X111760000Y-22860000D02*
X111760000Y-23991370D01*
D29*
X83820000Y-22860000D02*
X83820000Y-25400000D01*
D28*
X58340000Y-45720000D02*
X55880000Y-43260000D01*
D27*
X38100000Y-60960000D02*
X38100000Y-63500000D01*
D28*
X78740000Y-8890000D02*
X78740000Y-7620000D01*
X95330000Y-10160000D02*
X96520000Y-8970000D01*
D29*
X160020000Y-27940000D02*
X162560000Y-27940000D01*
D28*
X64770000Y-10160000D02*
X77470000Y-10160000D01*
X77470000Y-45720000D02*
X58340000Y-45720000D01*
X77470000Y-10160000D02*
X78740000Y-8890000D01*
D27*
X33680000Y-66040000D02*
X49530000Y-66040000D01*
D28*
X53340000Y-66040000D02*
X50800000Y-66040000D01*
X78740000Y-44450000D02*
X77470000Y-45720000D01*
X144780000Y-25400000D02*
X147320000Y-27940000D01*
D29*
X83820000Y-7620000D02*
X83820000Y-10160000D01*
D28*
X77470000Y-25400000D02*
X78740000Y-24130000D01*
X113168630Y-25400000D02*
X144780000Y-25400000D01*
X95330000Y-25400000D02*
X96520000Y-24210000D01*
X77470000Y-10160000D02*
X95330000Y-10160000D01*
X111760000Y-23991370D02*
X113168630Y-25400000D01*
D27*
X38100000Y-60960000D02*
X33680000Y-60960000D01*
D28*
X63500000Y-8890000D02*
X64770000Y-10160000D01*
X80148630Y-25400000D02*
X95330000Y-25400000D01*
X109508428Y-10160000D02*
X111760000Y-7908428D01*
%TO.N,GND2*%
X167640000Y-7620000D02*
X167640000Y-6488630D01*
X178160000Y-10160000D02*
X168910000Y-10160000D01*
X168910000Y-10160000D02*
X167640000Y-8890000D01*
X180340000Y-15240000D02*
X180340000Y-12340000D01*
X167640000Y-8890000D02*
X167640000Y-7620000D01*
X166231370Y-5080000D02*
X165020000Y-5080000D01*
X167640000Y-6488630D02*
X166231370Y-5080000D01*
X180340000Y-12340000D02*
X178160000Y-10160000D01*
X180340000Y-20320000D02*
X180340000Y-15240000D01*
%TO.N,VBUS*%
X172720000Y-22860000D02*
X175260000Y-25400000D01*
X160020000Y-7620000D02*
X154940000Y-12700000D01*
X170180000Y-12700000D02*
X172720000Y-15240000D01*
X160020000Y-7620000D02*
X160020000Y-10160000D01*
X172720000Y-15240000D02*
X172720000Y-22860000D01*
X175260000Y-25400000D02*
X180340000Y-25400000D01*
X154940000Y-12700000D02*
X148590000Y-12700000D01*
X160020000Y-5080000D02*
X160020000Y-7620000D01*
X162560000Y-12700000D02*
X170180000Y-12700000D01*
X148590000Y-12700000D02*
X147320000Y-13970000D01*
X160020000Y-10160000D02*
X162560000Y-12700000D01*
X147320000Y-13970000D02*
X147320000Y-15240000D01*
D27*
%TO.N,GND*%
X22860000Y-62230000D02*
X13335000Y-52705000D01*
D28*
X179070000Y-119380000D02*
X180340000Y-118110000D01*
D29*
X27940000Y-96520000D02*
X29210000Y-97790000D01*
D28*
X130671370Y-73660000D02*
X132080000Y-75068630D01*
D27*
X9440001Y-48948631D02*
X9440001Y-18579999D01*
D30*
X99060000Y-111760000D02*
X99060000Y-107950000D01*
X154940000Y-88900000D02*
X151050000Y-85010000D01*
X134620000Y-85090000D02*
X134540000Y-85010000D01*
D27*
X9440001Y-18579999D02*
X10240000Y-17780000D01*
X22860000Y-71120000D02*
X43180000Y-71120000D01*
X45720000Y-74930000D02*
X25400000Y-74930000D01*
X22860000Y-62368630D02*
X25860000Y-59368630D01*
X12700000Y-78740000D02*
X15240000Y-78740000D01*
D29*
X54755000Y-29355000D02*
X55880000Y-30480000D01*
D28*
X50800000Y-79700000D02*
X54300000Y-76200000D01*
X30480000Y-15240000D02*
X30480000Y-14108630D01*
D27*
X50800000Y-74930000D02*
X111760000Y-74930000D01*
D28*
X30480000Y-14108630D02*
X29611370Y-13240000D01*
D29*
X24275000Y-87485000D02*
X24275000Y-92855000D01*
D28*
X157480000Y-86360000D02*
X154940000Y-88900000D01*
X127000000Y-116840000D02*
X140970000Y-116840000D01*
D27*
X15240000Y-50800000D02*
X20320000Y-50800000D01*
D31*
X165100000Y-60960000D02*
X178430000Y-60960000D01*
D27*
X19050000Y-54610000D02*
X19050000Y-53690000D01*
D28*
X55080001Y-13170001D02*
X55875000Y-13965000D01*
D30*
X106680000Y-85090000D02*
X106680000Y-86360000D01*
D27*
X25860000Y-59368630D02*
X25860000Y-53800000D01*
D29*
X50800000Y-102235000D02*
X50110000Y-102925000D01*
D27*
X21590000Y-52070000D02*
X16510000Y-52070000D01*
X43180000Y-71120000D02*
X46355000Y-74295000D01*
X57150000Y-107950000D02*
X97790000Y-107950000D01*
D29*
X50800000Y-30480000D02*
X51925000Y-29355000D01*
D28*
X145860000Y-119380000D02*
X179070000Y-119380000D01*
X35560000Y-13970000D02*
X36359999Y-13170001D01*
D30*
X134540000Y-85010000D02*
X133430000Y-85010000D01*
D27*
X49530000Y-73660000D02*
X50800000Y-74930000D01*
X20320000Y-50800000D02*
X21590000Y-52070000D01*
D28*
X23495000Y-64135000D02*
X24130000Y-64135000D01*
D27*
X20955000Y-48895000D02*
X9525000Y-48895000D01*
D28*
X50800000Y-91440000D02*
X50800000Y-79700000D01*
D29*
X29210000Y-97790000D02*
X36830000Y-97790000D01*
D27*
X13335000Y-52705000D02*
X15240000Y-50800000D01*
D28*
X142240000Y-115760000D02*
X145860000Y-119380000D01*
X114300000Y-73660000D02*
X130671370Y-73660000D01*
X43180000Y-58420000D02*
X40640000Y-55880000D01*
X10240000Y-16430000D02*
X10240000Y-17780000D01*
X22860000Y-63500000D02*
X23495000Y-64135000D01*
X27940000Y-63500000D02*
X22860000Y-63500000D01*
D27*
X49530000Y-73660000D02*
X52070000Y-76200000D01*
X19050000Y-53690000D02*
X19860000Y-52880000D01*
D30*
X106760000Y-85010000D02*
X106680000Y-85090000D01*
D27*
X46990000Y-71120000D02*
X49530000Y-73660000D01*
D30*
X133270000Y-85010000D02*
X106760000Y-85010000D01*
D31*
X57150000Y-106680000D02*
X57150000Y-109220000D01*
D28*
X66040000Y-66040000D02*
X66040000Y-60960000D01*
X25860000Y-68120000D02*
X25400000Y-68580000D01*
D27*
X26115000Y-55960000D02*
X26035000Y-55880000D01*
X52070000Y-76200000D02*
X52070000Y-74930000D01*
D28*
X114300000Y-73740000D02*
X114300000Y-73660000D01*
D27*
X43815000Y-60325000D02*
X63500000Y-60325000D01*
X13335000Y-52705000D02*
X10160000Y-49530000D01*
D29*
X52070000Y-101600000D02*
X57150000Y-106680000D01*
D28*
X111760000Y-76280000D02*
X114300000Y-73740000D01*
D30*
X157480000Y-76200000D02*
X157480000Y-77470000D01*
D29*
X51925000Y-29355000D02*
X54755000Y-29355000D01*
D28*
X24130000Y-64135000D02*
X24130000Y-69850000D01*
D27*
X22860000Y-63500000D02*
X22860000Y-62368630D01*
D28*
X142240000Y-114220000D02*
X142240000Y-115760000D01*
D29*
X162560000Y-86360000D02*
X180340000Y-86360000D01*
D28*
X63500000Y-58420000D02*
X43180000Y-58420000D01*
X55875000Y-13965000D02*
X55875000Y-15240000D01*
X40560000Y-55960000D02*
X38100000Y-55960000D01*
X36359999Y-13170001D02*
X55080001Y-13170001D01*
X54690000Y-76280000D02*
X111760000Y-76280000D01*
X132080000Y-76200000D02*
X157480000Y-76200000D01*
X54300000Y-76200000D02*
X54610000Y-76200000D01*
D29*
X50800000Y-101600000D02*
X50800000Y-102235000D01*
D28*
X142240000Y-115570000D02*
X142240000Y-114220000D01*
X127000000Y-116840000D02*
X127000000Y-109220000D01*
X20670000Y-59690000D02*
X20670000Y-69500000D01*
D27*
X38100000Y-55960000D02*
X39450000Y-55960000D01*
X19860000Y-52880000D02*
X24130000Y-52880000D01*
X22860000Y-62368630D02*
X22860000Y-62230000D01*
D28*
X140970000Y-116840000D02*
X142240000Y-115570000D01*
X30480000Y-15240000D02*
X34290000Y-15240000D01*
D29*
X50110000Y-102925000D02*
X41965000Y-102925000D01*
D28*
X66040000Y-73660000D02*
X63500000Y-76200000D01*
D30*
X133350000Y-85090000D02*
X133270000Y-85010000D01*
D29*
X43180000Y-30480000D02*
X50800000Y-30480000D01*
D27*
X46355000Y-74295000D02*
X45720000Y-74930000D01*
X25860000Y-53800000D02*
X20955000Y-48895000D01*
D30*
X151050000Y-85010000D02*
X134700000Y-85010000D01*
X133430000Y-85010000D02*
X133350000Y-85090000D01*
D27*
X19050000Y-54610000D02*
X19050000Y-58070000D01*
D29*
X50800000Y-101600000D02*
X52070000Y-101600000D01*
D30*
X134700000Y-85010000D02*
X134620000Y-85090000D01*
D29*
X36830000Y-97790000D02*
X38100000Y-96520000D01*
D33*
X15240000Y-78740000D02*
X22860000Y-71120000D01*
D27*
X16510000Y-52070000D02*
X19050000Y-54610000D01*
D29*
X24275000Y-92855000D02*
X27940000Y-96520000D01*
D28*
X54610000Y-76200000D02*
X54690000Y-76280000D01*
X25860000Y-59368630D02*
X25860000Y-68120000D01*
D29*
X27940000Y-83820000D02*
X24275000Y-87485000D01*
D28*
X66040000Y-60960000D02*
X63500000Y-58420000D01*
D27*
X39450000Y-55960000D02*
X43815000Y-60325000D01*
X20670000Y-59690000D02*
X22860000Y-59690000D01*
D28*
X180340000Y-118110000D02*
X180340000Y-116840000D01*
D27*
X38100000Y-55960000D02*
X26115000Y-55960000D01*
X22860000Y-71120000D02*
X22860000Y-63500000D01*
D28*
X13430000Y-13240000D02*
X10240000Y-16430000D01*
X180340000Y-86360000D02*
X157480000Y-86360000D01*
D29*
X41965000Y-102925000D02*
X38100000Y-99060000D01*
D28*
X29611370Y-13240000D02*
X13430000Y-13240000D01*
X34290000Y-15240000D02*
X35560000Y-13970000D01*
X66040000Y-66040000D02*
X66040000Y-73660000D01*
X132080000Y-75068630D02*
X132080000Y-76200000D01*
D27*
X43180000Y-71120000D02*
X46990000Y-71120000D01*
D28*
X40640000Y-55880000D02*
X40560000Y-55960000D01*
D27*
X46355000Y-74295000D02*
X50800000Y-78740000D01*
D29*
X38100000Y-99060000D02*
X38100000Y-96520000D01*
D27*
X19050000Y-58070000D02*
X20670000Y-59690000D01*
D29*
%TO.N,Net-(D2-K)*%
X179795000Y-64675000D02*
X180970000Y-63500000D01*
X162560000Y-63500000D02*
X163735000Y-64675000D01*
X163735000Y-64675000D02*
X179795000Y-64675000D01*
X160020000Y-63500000D02*
X162560000Y-63500000D01*
%TO.N,Net-(D3-K)*%
X162560000Y-66040000D02*
X163735000Y-67215000D01*
X163735000Y-67215000D02*
X179795000Y-67215000D01*
X160020000Y-66040000D02*
X162560000Y-66040000D01*
X179795000Y-67215000D02*
X180970000Y-66040000D01*
%TO.N,Net-(D4-K)*%
X162560000Y-68580000D02*
X163735000Y-69755000D01*
X160020000Y-68580000D02*
X162560000Y-68580000D01*
X163735000Y-69755000D02*
X179795000Y-69755000D01*
X179795000Y-69755000D02*
X180970000Y-68580000D01*
%TO.N,RAM2-0*%
X152400000Y-40640000D02*
X137160000Y-40640000D01*
%TO.N,RAM2-1*%
X133350000Y-41910000D02*
X132080000Y-40640000D01*
X151130000Y-41910000D02*
X133350000Y-41910000D01*
%TO.N,RAM2-2*%
X130810000Y-44450000D02*
X127000000Y-40640000D01*
X138430000Y-44450000D02*
X130810000Y-44450000D01*
X149860000Y-43180000D02*
X139700000Y-43180000D01*
X139700000Y-43180000D02*
X138430000Y-44450000D01*
%TO.N,RAM2-3*%
X148590000Y-44450000D02*
X148140000Y-44900000D01*
X126180000Y-44900000D02*
X121920000Y-40640000D01*
X148140000Y-44900000D02*
X126180000Y-44900000D01*
%TO.N,BANK4*%
X116840000Y-50800000D02*
X113665000Y-47625000D01*
X90715000Y-18505000D02*
X69125000Y-18505000D01*
X121830000Y-55790000D02*
X116840000Y-50800000D01*
X90805000Y-18415000D02*
X90715000Y-18505000D01*
X69125000Y-18505000D02*
X68580000Y-19050000D01*
X170815000Y-55880000D02*
X170725000Y-55790000D01*
X68580000Y-19050000D02*
X68580000Y-22860000D01*
X170725000Y-55790000D02*
X121830000Y-55790000D01*
X113665000Y-47625000D02*
X91440000Y-47625000D01*
%TO.N,BANK5*%
X169545000Y-56515000D02*
X169455000Y-56425000D01*
X117385000Y-56425000D02*
X111760000Y-50800000D01*
X71120000Y-20320000D02*
X71120000Y-22860000D01*
X71755000Y-19685000D02*
X71120000Y-20320000D01*
X111760000Y-50800000D02*
X109855000Y-48895000D01*
X109855000Y-48895000D02*
X90805000Y-48895000D01*
X169455000Y-56425000D02*
X117385000Y-56425000D01*
X90170000Y-19685000D02*
X71755000Y-19685000D01*
%TO.N,BANK6*%
X98380000Y-49575000D02*
X97790000Y-50165000D01*
X105455000Y-49575000D02*
X98380000Y-49575000D01*
X89535000Y-20955000D02*
X74295000Y-20955000D01*
X168275000Y-57150000D02*
X168185000Y-57060000D01*
X106680000Y-50800000D02*
X105455000Y-49575000D01*
X112940000Y-57060000D02*
X106680000Y-50800000D01*
X74295000Y-20955000D02*
X73660000Y-21590000D01*
X97790000Y-50165000D02*
X90170000Y-50165000D01*
X168185000Y-57060000D02*
X112940000Y-57060000D01*
X73660000Y-21590000D02*
X73660000Y-22860000D01*
%TO.N,BANK7*%
X98425000Y-50800000D02*
X97790000Y-51435000D01*
X76200000Y-22225000D02*
X76200000Y-22860000D01*
X76890000Y-21535000D02*
X76200000Y-22225000D01*
X97790000Y-51435000D02*
X89535000Y-51435000D01*
X108585000Y-57785000D02*
X101600000Y-50800000D01*
X88900000Y-22225000D02*
X88210000Y-21535000D01*
X101600000Y-50800000D02*
X98425000Y-50800000D01*
X167005000Y-57785000D02*
X108585000Y-57785000D01*
X88210000Y-21535000D02*
X76890000Y-21535000D01*
%TO.N,BANK0*%
X140425000Y-53250000D02*
X140335000Y-53340000D01*
X137795000Y-50800000D02*
X137160000Y-50800000D01*
X102690500Y-18594500D02*
X101600000Y-19685000D01*
X137070000Y-46900000D02*
X137160000Y-46990000D01*
X123190000Y-18415000D02*
X123010500Y-18594500D01*
X123010500Y-18594500D02*
X102690500Y-18594500D01*
X101600000Y-19685000D02*
X101600000Y-22860000D01*
X175895000Y-53340000D02*
X175805000Y-53250000D01*
X175805000Y-53250000D02*
X140425000Y-53250000D01*
X140335000Y-53340000D02*
X137795000Y-50800000D01*
X137070000Y-46900000D02*
X122645000Y-46900000D01*
%TO.N,BANK1*%
X121375000Y-47535000D02*
X121285000Y-47625000D01*
X132080000Y-50800000D02*
X133305000Y-52025000D01*
X104865000Y-19595000D02*
X104140000Y-20320000D01*
X132080000Y-47625000D02*
X131990000Y-47535000D01*
X139700000Y-53975000D02*
X137750000Y-52025000D01*
X174535000Y-53885000D02*
X139790000Y-53885000D01*
X137750000Y-52025000D02*
X133305000Y-52025000D01*
X174625000Y-53975000D02*
X174535000Y-53885000D01*
X139790000Y-53885000D02*
X139700000Y-53975000D01*
X104140000Y-20320000D02*
X104140000Y-22860000D01*
X131990000Y-47535000D02*
X121375000Y-47535000D01*
X122555000Y-19685000D02*
X104775000Y-19685000D01*
%TO.N,BANK2*%
X127000000Y-48260000D02*
X126910000Y-48350000D01*
X120105000Y-48350000D02*
X120015000Y-48260000D01*
X106680000Y-20955000D02*
X106680000Y-22860000D01*
X121285000Y-20320000D02*
X107315000Y-20320000D01*
X126910000Y-48350000D02*
X120105000Y-48350000D01*
X121920000Y-20955000D02*
X121285000Y-20320000D01*
X137980000Y-54520000D02*
X137935000Y-54565000D01*
X173355000Y-54610000D02*
X173265000Y-54520000D01*
X173265000Y-54520000D02*
X137980000Y-54520000D01*
X107315000Y-20320000D02*
X106680000Y-20955000D01*
X130765000Y-54565000D02*
X127000000Y-50800000D01*
X137935000Y-54565000D02*
X130765000Y-54565000D01*
%TO.N,BANK3*%
X171995000Y-55155000D02*
X172085000Y-55245000D01*
X126275000Y-55155000D02*
X171995000Y-55155000D01*
X121920000Y-50800000D02*
X126275000Y-55155000D01*
X109220000Y-21590000D02*
X109220000Y-22860000D01*
X109855000Y-20955000D02*
X109220000Y-21590000D01*
X120015000Y-20955000D02*
X109855000Y-20955000D01*
X121285000Y-22225000D02*
X120015000Y-20955000D01*
%TO.N,Net-(D22-K)*%
X167640000Y-102235000D02*
X167640000Y-104140000D01*
X168275000Y-101600000D02*
X167640000Y-102235000D01*
X179070000Y-101600000D02*
X168275000Y-101600000D01*
%TO.N,Net-(D23-K)*%
X176530000Y-102324500D02*
X170725500Y-102324500D01*
X170725500Y-102324500D02*
X170180000Y-102870000D01*
X170180000Y-102870000D02*
X170180000Y-104140000D01*
%TO.N,Net-(D30-K)*%
X121920000Y-116840000D02*
X124460000Y-116840000D01*
%TO.N,Net-(D31-K)*%
X121920000Y-114300000D02*
X124460000Y-114300000D01*
X119380000Y-104140000D02*
X120505000Y-103015000D01*
X128415000Y-103015000D02*
X129540000Y-104140000D01*
X120505000Y-103015000D02*
X128415000Y-103015000D01*
%TO.N,Net-(D32-K)*%
X123045000Y-105265000D02*
X121920000Y-104140000D01*
X130955000Y-105265000D02*
X123045000Y-105265000D01*
X121920000Y-111760000D02*
X124460000Y-111760000D01*
X132080000Y-104140000D02*
X130955000Y-105265000D01*
%TO.N,Net-(D33-K)*%
X121920000Y-109220000D02*
X124460000Y-109220000D01*
X134620000Y-104140000D02*
X134620000Y-102870000D01*
X133985000Y-102235000D02*
X124460000Y-102235000D01*
X134620000Y-102870000D02*
X133985000Y-102235000D01*
%TO.N,CMRAM0*%
X80010000Y-17780000D02*
X80100000Y-17690000D01*
X115425000Y-23985000D02*
X114300000Y-22860000D01*
X67310000Y-17780000D02*
X67400000Y-17870000D01*
X79920000Y-17870000D02*
X67400000Y-17870000D01*
X122065000Y-23985000D02*
X115425000Y-23985000D01*
X80100000Y-17690000D02*
X125640000Y-17690000D01*
X127000000Y-19050000D02*
X122065000Y-23985000D01*
X80010000Y-17780000D02*
X79920000Y-17870000D01*
X125640000Y-17690000D02*
X127000000Y-19050000D01*
%TO.N,CM_RAM23*%
X81280000Y-6350000D02*
X81915000Y-5715000D01*
X114300000Y-7620000D02*
X114300000Y-8890000D01*
X115570000Y-10160000D02*
X127000000Y-10160000D01*
X113665000Y-5715000D02*
X81915000Y-5715000D01*
X114300000Y-8890000D02*
X115570000Y-10160000D01*
X114300000Y-7620000D02*
X114300000Y-6350000D01*
X114300000Y-6350000D02*
X113665000Y-5715000D01*
X81280000Y-7620000D02*
X81280000Y-6350000D01*
%TO.N,CMRAM1*%
X126420000Y-16565000D02*
X127000000Y-17145000D01*
X71665500Y-35014500D02*
X71120000Y-35560000D01*
X77470000Y-16510000D02*
X77525000Y-16565000D01*
X80010000Y-35014500D02*
X71665500Y-35014500D01*
X77525000Y-16565000D02*
X126420000Y-16565000D01*
X71120000Y-35560000D02*
X71120000Y-43180000D01*
%TO.N,Net-(R7-Pad1)*%
X161290000Y-17780000D02*
X143510000Y-17780000D01*
X162560000Y-19050000D02*
X161290000Y-17780000D01*
X162560000Y-20320000D02*
X162560000Y-19050000D01*
X143510000Y-17780000D02*
X142240000Y-19050000D01*
%TO.N,Net-(J1-Pin_4)*%
X180340000Y-27940000D02*
X172053833Y-27940000D01*
X162094009Y-26525000D02*
X161290000Y-25720991D01*
X170638833Y-26525000D02*
X162094009Y-26525000D01*
X161290000Y-21590000D02*
X160020000Y-20320000D01*
X172053833Y-27940000D02*
X170638833Y-26525000D01*
X161290000Y-25720991D02*
X161290000Y-21590000D01*
D34*
%TO.N,/ClockGen/CLK1*%
X114300000Y-30480000D02*
X114300000Y-33020000D01*
X114300000Y-33020000D02*
X111760000Y-35560000D01*
X52070000Y-41910000D02*
X52070000Y-50800000D01*
X111760000Y-35560000D02*
X82550000Y-35560000D01*
X81280000Y-52070000D02*
X80010000Y-53340000D01*
X50800000Y-40640000D02*
X52070000Y-41910000D01*
X48260000Y-40640000D02*
X50800000Y-40640000D01*
X81280000Y-50800000D02*
X81280000Y-52070000D01*
X52070000Y-50800000D02*
X54610000Y-53340000D01*
X54610000Y-53340000D02*
X80010000Y-53340000D01*
%TO.N,/ClockGen/CLK2*%
X49530000Y-45720000D02*
X50800000Y-46990000D01*
X82550000Y-55880000D02*
X83820000Y-54610000D01*
X116840000Y-30480000D02*
X116840000Y-33020000D01*
X50800000Y-46990000D02*
X50800000Y-53340000D01*
X116840000Y-33020000D02*
X113030000Y-36830000D01*
X83820000Y-54610000D02*
X83820000Y-50800000D01*
X113030000Y-36830000D02*
X85090000Y-36830000D01*
X48260000Y-45720000D02*
X49530000Y-45720000D01*
X50800000Y-53340000D02*
X53340000Y-55880000D01*
X53340000Y-55880000D02*
X82550000Y-55880000D01*
D29*
%TO.N,ROM_P27*%
X52705000Y-94615000D02*
X66675000Y-94615000D01*
X66675000Y-94615000D02*
X68580000Y-96520000D01*
%TO.N,ROM_P26*%
X71120000Y-96520000D02*
X68395000Y-93795000D01*
X46990000Y-91440000D02*
X45720000Y-91440000D01*
X68395000Y-93795000D02*
X49345000Y-93795000D01*
X49345000Y-93795000D02*
X46990000Y-91440000D01*
%TO.N,ROM_P2*%
X68580000Y-111760000D02*
X67255000Y-110435000D01*
X46990000Y-110490000D02*
X45720000Y-109220000D01*
X47045000Y-110435000D02*
X46990000Y-110490000D01*
X67255000Y-110435000D02*
X47045000Y-110435000D01*
D34*
%TO.N,ROM_P1*%
X66040000Y-111760000D02*
X45720000Y-111760000D01*
X45720000Y-111760000D02*
X43180000Y-109220000D01*
D29*
%TO.N,Net-(U2-K)*%
X168910000Y-20320000D02*
X170180000Y-20320000D01*
X165100000Y-15240000D02*
X165100000Y-16510000D01*
X165100000Y-16510000D02*
X168910000Y-20320000D01*
%TO.N,Net-(U12-EP)*%
X38100000Y-30480000D02*
X39370000Y-31750000D01*
X52070000Y-31750000D02*
X53340000Y-30480000D01*
X39370000Y-31750000D02*
X52070000Y-31750000D01*
%TO.N,Net-(U20-I{slash}O1)*%
X54610000Y-116840000D02*
X114300000Y-116840000D01*
%TO.N,Net-(U20-I{slash}O2)*%
X57150000Y-116115500D02*
X112484500Y-116115500D01*
X112484500Y-116115500D02*
X114300000Y-114300000D01*
%TO.N,Net-(U20-I{slash}O3)*%
X113030000Y-111760000D02*
X114300000Y-111760000D01*
X111304000Y-115391000D02*
X112395000Y-114300000D01*
X112395000Y-114300000D02*
X112395000Y-112395000D01*
X59690000Y-115391000D02*
X111304000Y-115391000D01*
X112395000Y-112395000D02*
X113030000Y-111760000D01*
%TO.N,Net-(U20-I{slash}O4)*%
X111760000Y-109855000D02*
X112395000Y-109220000D01*
X111760000Y-113665000D02*
X111760000Y-109855000D01*
X112395000Y-109220000D02*
X114300000Y-109220000D01*
X62230000Y-114666500D02*
X110758500Y-114666500D01*
X110758500Y-114666500D02*
X111760000Y-113665000D01*
%TO.N,Net-(U3-Pad1)*%
X132080000Y-30480000D02*
X134620000Y-30480000D01*
X135890000Y-31750000D02*
X138430000Y-31750000D01*
X138430000Y-31750000D02*
X139700000Y-30480000D01*
X134620000Y-30480000D02*
X135890000Y-31750000D01*
%TO.N,/ProgramMemory/RESET*%
X86449500Y-5080000D02*
X86360000Y-4990500D01*
X92710000Y-58420000D02*
X85090000Y-58420000D01*
X134620000Y-27940000D02*
X119380000Y-27940000D01*
X137160000Y-30480000D02*
X134620000Y-27940000D01*
X119380000Y-7620000D02*
X119380000Y-5715000D01*
X118745000Y-5080000D02*
X86449500Y-5080000D01*
X119380000Y-5715000D02*
X118745000Y-5080000D01*
%TO.N,/ProgramMemory/D0*%
X69940000Y-32295000D02*
X100801000Y-32295000D01*
X101600000Y-31496000D02*
X101600000Y-30480000D01*
X100801000Y-32295000D02*
X101600000Y-31496000D01*
X69850000Y-32385000D02*
X69940000Y-32295000D01*
%TO.N,/ProgramMemory/D1*%
X72390000Y-33020000D02*
X72480000Y-32930000D01*
X103595000Y-32930000D02*
X104140000Y-32385000D01*
X104140000Y-32385000D02*
X104140000Y-30480000D01*
X72480000Y-32930000D02*
X103595000Y-32930000D01*
%TO.N,/ProgramMemory/D2*%
X106045000Y-33655000D02*
X106680000Y-33020000D01*
X105955000Y-33565000D02*
X106045000Y-33655000D01*
X74930000Y-33655000D02*
X75020000Y-33565000D01*
X106680000Y-33020000D02*
X106680000Y-30480000D01*
X75020000Y-33565000D02*
X105955000Y-33565000D01*
%TO.N,/ProgramMemory/D3*%
X108585000Y-34290000D02*
X109220000Y-33655000D01*
X109220000Y-33655000D02*
X109220000Y-30480000D01*
X77470000Y-34290000D02*
X108585000Y-34290000D01*
D34*
%TO.N,/ProgramMemory/SYNC*%
X87630000Y-38100000D02*
X114300000Y-38100000D01*
X119380000Y-33020000D02*
X119380000Y-30480000D01*
X114300000Y-38100000D02*
X119380000Y-33020000D01*
D29*
%TO.N,/ProgramMemory/CM*%
X90170000Y-59690000D02*
X80010000Y-59690000D01*
%TO.N,Net-(U4-TEST)*%
X83820000Y-40005000D02*
X84455000Y-39370000D01*
X83820000Y-43180000D02*
X83820000Y-40005000D01*
X84455000Y-39370000D02*
X147320000Y-39370000D01*
%TO.N,Net-(U12-QB)*%
X46994762Y-5572969D02*
X18557031Y-5572969D01*
X18557031Y-5572969D02*
X17780000Y-6350000D01*
X17780000Y-6350000D02*
X17780000Y-7620000D01*
%TO.N,Net-(U12-QC)*%
X29300000Y-18505000D02*
X47530000Y-18505000D01*
X25400000Y-15240000D02*
X28575000Y-18415000D01*
X29210000Y-18415000D02*
X29300000Y-18505000D01*
X47530000Y-18505000D02*
X50795000Y-15240000D01*
X28575000Y-18415000D02*
X29210000Y-18415000D01*
%TO.N,~{OE}*%
X99214695Y-90895000D02*
X100574695Y-89535000D01*
X81915000Y-90805000D02*
X82005000Y-90895000D01*
X140520000Y-87180000D02*
X142240000Y-88900000D01*
X176406838Y-115058162D02*
X176530000Y-114935000D01*
X176279838Y-115058162D02*
X176530000Y-114808000D01*
X144272000Y-115058162D02*
X176279838Y-115058162D01*
X81280000Y-91440000D02*
X81915000Y-90805000D01*
X113480000Y-87180000D02*
X140520000Y-87180000D01*
X111125000Y-89535000D02*
X113480000Y-87180000D01*
X100574695Y-89535000D02*
X111125000Y-89535000D01*
X82005000Y-90895000D02*
X99214695Y-90895000D01*
%TO.N,Net-(U13-Pad4)*%
X147320000Y-87630000D02*
X147320000Y-88900000D01*
X146050000Y-86360000D02*
X147320000Y-87630000D01*
X124460000Y-86360000D02*
X146050000Y-86360000D01*
%TO.N,~{CS_ROM}*%
X104720000Y-97845000D02*
X87685000Y-97845000D01*
X104775000Y-69850000D02*
X125730000Y-69850000D01*
X125730000Y-69850000D02*
X127000000Y-68580000D01*
X138430000Y-67310000D02*
X144780000Y-73660000D01*
X144780000Y-73660000D02*
X148590000Y-73660000D01*
X87685000Y-97845000D02*
X86360000Y-96520000D01*
X104775000Y-97790000D02*
X104720000Y-97845000D01*
X128270000Y-67310000D02*
X138430000Y-67310000D01*
X127000000Y-68580000D02*
X128270000Y-67310000D01*
%TO.N,~{CS_RAM}*%
X145325500Y-114300000D02*
X173990000Y-114300000D01*
%TO.N,~{WE_OPA}*%
X180340000Y-93980000D02*
X180340000Y-91440000D01*
X179705000Y-90805000D02*
X122555000Y-90805000D01*
X122555000Y-90805000D02*
X121920000Y-90170000D01*
X121920000Y-90170000D02*
X121920000Y-88900000D01*
X180340000Y-91440000D02*
X179705000Y-90805000D01*
%TO.N,~{WE_OPR}*%
X180340000Y-106680000D02*
X181610000Y-105410000D01*
X129540000Y-89535000D02*
X129540000Y-88900000D01*
X180975000Y-90170000D02*
X180920000Y-90225000D01*
X130230000Y-90225000D02*
X129540000Y-89535000D01*
X181610000Y-105410000D02*
X181610000Y-90805000D01*
X181610000Y-90805000D02*
X180975000Y-90170000D01*
X180920000Y-90225000D02*
X130230000Y-90225000D01*
%TO.N,C0*%
X129540000Y-81280000D02*
X129540000Y-78740000D01*
X129540000Y-78740000D02*
X128905000Y-78105000D01*
X128905000Y-78105000D02*
X75019500Y-78105000D01*
X75019500Y-78105000D02*
X74930000Y-78015500D01*
%TO.N,C1*%
X72390000Y-78740000D02*
X126365000Y-78740000D01*
X76200000Y-95250000D02*
X76200000Y-96520000D01*
X75565000Y-94615000D02*
X76200000Y-95250000D01*
X72390000Y-94615000D02*
X75565000Y-94615000D01*
X127000000Y-81280000D02*
X127000000Y-79375000D01*
X127000000Y-79375000D02*
X126365000Y-78740000D01*
%TO.N,C2*%
X70124500Y-79505000D02*
X69850000Y-79230500D01*
X71120000Y-92710000D02*
X83185000Y-92710000D01*
X121920000Y-80270000D02*
X121920000Y-81280000D01*
X83820000Y-93345000D02*
X83820000Y-96520000D01*
X83185000Y-92710000D02*
X83820000Y-93345000D01*
X69850000Y-91440000D02*
X71120000Y-92710000D01*
X121155000Y-79505000D02*
X121920000Y-80270000D01*
X121155000Y-79505000D02*
X70124500Y-79505000D01*
%TO.N,C3*%
X69215000Y-93345000D02*
X78105000Y-93345000D01*
X118690000Y-79955000D02*
X67365000Y-79955000D01*
X78740000Y-93980000D02*
X78740000Y-96520000D01*
X78105000Y-93345000D02*
X78740000Y-93980000D01*
X118745000Y-80010000D02*
X118690000Y-79955000D01*
X67310000Y-91440000D02*
X69215000Y-93345000D01*
X119380000Y-81280000D02*
X119380000Y-80645000D01*
X67365000Y-79955000D02*
X67310000Y-80010000D01*
X119380000Y-80645000D02*
X118745000Y-80010000D01*
%TO.N,Net-(U19-G1)*%
X99060000Y-71755000D02*
X121920000Y-71755000D01*
X121920000Y-71755000D02*
X140970000Y-71755000D01*
X99695000Y-83185000D02*
X99060000Y-82550000D01*
X113030000Y-83185000D02*
X99695000Y-83185000D01*
X99060000Y-82550000D02*
X99060000Y-81280000D01*
%TO.N,Net-(U20-FL)*%
X116840000Y-88900000D02*
X119469500Y-91529500D01*
X114935000Y-90805000D02*
X100330000Y-90805000D01*
X119469500Y-91529500D02*
X144780000Y-91529500D01*
X116840000Y-88900000D02*
X114935000Y-90805000D01*
%TO.N,Net-(U19-G2)*%
X101600000Y-69850000D02*
X102870000Y-71120000D01*
X101600000Y-66040000D02*
X101600000Y-69850000D01*
X102870000Y-71120000D02*
X119380000Y-71120000D01*
%TO.N,Net-(U16-D0)*%
X119380000Y-98425000D02*
X119380000Y-96520000D01*
X119836000Y-98881000D02*
X119380000Y-98425000D01*
X101100000Y-99195000D02*
X118610000Y-99195000D01*
X118610000Y-99195000D02*
X119380000Y-98425000D01*
X73660000Y-86995000D02*
X73660000Y-81280000D01*
X100150500Y-87450500D02*
X74115500Y-87450500D01*
X100965000Y-99060000D02*
X101100000Y-99195000D01*
X170180000Y-98881000D02*
X119836000Y-98881000D01*
X100965000Y-88265000D02*
X100150500Y-87450500D01*
X74115500Y-87450500D02*
X73660000Y-86995000D01*
%TO.N,Net-(U16-D1)*%
X76200000Y-86360000D02*
X76650500Y-86810500D01*
X121920000Y-99695000D02*
X102870000Y-99695000D01*
X101415500Y-86810500D02*
X76650500Y-86810500D01*
X122009500Y-99605500D02*
X121920000Y-99695000D01*
X102235000Y-87630000D02*
X101415500Y-86810500D01*
X102870000Y-99695000D02*
X102235000Y-100330000D01*
X76200000Y-86360000D02*
X76200000Y-81280000D01*
X172720000Y-99605500D02*
X122009500Y-99605500D01*
%TO.N,Net-(U16-D2)*%
X175260000Y-100330000D02*
X124460000Y-100330000D01*
X104140000Y-100965000D02*
X123825000Y-100965000D01*
X78740000Y-81280000D02*
X78740000Y-85725000D01*
X79375500Y-86360500D02*
X78740000Y-85725000D01*
X103505000Y-86995000D02*
X102870500Y-86360500D01*
X123825000Y-100965000D02*
X124460000Y-100330000D01*
X102870500Y-86360500D02*
X79375500Y-86360500D01*
%TO.N,Net-(U16-D3)*%
X177165000Y-97790000D02*
X177800000Y-97155000D01*
X99060000Y-95250000D02*
X99695000Y-94615000D01*
X81915000Y-85725000D02*
X98970500Y-85725000D01*
X98970500Y-85725000D02*
X99060000Y-85635500D01*
X127635000Y-97790000D02*
X177165000Y-97790000D01*
X127000000Y-96520000D02*
X127000000Y-97155000D01*
X81280000Y-85090000D02*
X81915000Y-85725000D01*
X177800000Y-97155000D02*
X177800000Y-93980000D01*
X127000000Y-97155000D02*
X127635000Y-97790000D01*
X99695000Y-94615000D02*
X126365000Y-94615000D01*
X99060000Y-96520000D02*
X99060000Y-95250000D01*
X126365000Y-94615000D02*
X127000000Y-95250000D01*
X127000000Y-95250000D02*
X127000000Y-96520000D01*
X81280000Y-81280000D02*
X81280000Y-85090000D01*
%TO.N,Net-(U16-D4)*%
X129540000Y-94615000D02*
X129540000Y-96520000D01*
X128905000Y-111125000D02*
X129066755Y-110963245D01*
X97155000Y-93980000D02*
X128905000Y-93980000D01*
X64135000Y-90170000D02*
X96520000Y-90170000D01*
X63500000Y-81280000D02*
X63500000Y-89535000D01*
X128905000Y-93980000D02*
X129540000Y-94615000D01*
X170180000Y-110490000D02*
X170180000Y-106680000D01*
X96520000Y-96520000D02*
X96520000Y-94615000D01*
X129066755Y-110963245D02*
X169706755Y-110963245D01*
X169706755Y-110963245D02*
X170180000Y-110490000D01*
X96520000Y-94615000D02*
X97155000Y-93980000D01*
X63500000Y-89535000D02*
X64135000Y-90170000D01*
%TO.N,Net-(U16-D5)*%
X172720000Y-111125000D02*
X172720000Y-106680000D01*
X66675000Y-89535000D02*
X93890500Y-89535000D01*
X94615000Y-93345000D02*
X131445000Y-93345000D01*
X93980000Y-96520000D02*
X93980000Y-93980000D01*
X66040000Y-88900000D02*
X66675000Y-89535000D01*
X93890500Y-89535000D02*
X93980000Y-89445500D01*
X172175000Y-111670000D02*
X172720000Y-111125000D01*
X66040000Y-81280000D02*
X66040000Y-88900000D01*
X93980000Y-93980000D02*
X94615000Y-93345000D01*
X132080000Y-93980000D02*
X132080000Y-96520000D01*
X131445000Y-93345000D02*
X132080000Y-93980000D01*
X130810000Y-111760000D02*
X130900000Y-111670000D01*
X130900000Y-111670000D02*
X172175000Y-111670000D01*
%TO.N,Net-(U16-D6)*%
X174715000Y-112305000D02*
X175260000Y-111760000D01*
X175260000Y-111760000D02*
X175260000Y-106680000D01*
X92075000Y-92710000D02*
X133985000Y-92710000D01*
X133350000Y-112395000D02*
X133440000Y-112305000D01*
X68580000Y-88265000D02*
X69215000Y-88900000D01*
X133985000Y-92710000D02*
X134620000Y-93345000D01*
X91440000Y-93345000D02*
X92075000Y-92710000D01*
X68580000Y-81280000D02*
X68580000Y-88265000D01*
X91350500Y-88900000D02*
X91440000Y-88810500D01*
X133440000Y-112305000D02*
X174715000Y-112305000D01*
X69215000Y-88900000D02*
X91350500Y-88900000D01*
X91440000Y-96520000D02*
X91440000Y-93345000D01*
X134620000Y-93345000D02*
X134620000Y-96520000D01*
%TO.N,Net-(U16-D7)*%
X177800000Y-112395000D02*
X177800000Y-106680000D01*
X136025000Y-112895000D02*
X177300000Y-112895000D01*
X71120000Y-87630000D02*
X71755000Y-88265000D01*
X89535000Y-92075000D02*
X136525000Y-92075000D01*
X137160000Y-92710000D02*
X137160000Y-96520000D01*
X136525000Y-92075000D02*
X137160000Y-92710000D01*
X88900000Y-96520000D02*
X88900000Y-92710000D01*
X177300000Y-112895000D02*
X177800000Y-112395000D01*
X71120000Y-81280000D02*
X71120000Y-87630000D01*
X71755000Y-88265000D02*
X88810500Y-88265000D01*
X135890000Y-113030000D02*
X136025000Y-112895000D01*
X88900000Y-92710000D02*
X89535000Y-92075000D01*
X88810500Y-88265000D02*
X88900000Y-88175500D01*
%TO.N,Net-(D34-A)*%
X27940000Y-93980000D02*
X25400000Y-91440000D01*
%TO.N,Net-(U10-Pad13)*%
X27940000Y-16510000D02*
X27940000Y-15240000D01*
X29210000Y-17780000D02*
X27940000Y-16510000D01*
X44450000Y-17780000D02*
X29210000Y-17780000D01*
%TO.N,Net-(U10-Pad11)*%
X46990000Y-6355000D02*
X46990000Y-6350000D01*
X29265000Y-6295000D02*
X27940000Y-7620000D01*
X46935000Y-6295000D02*
X29265000Y-6295000D01*
X48255000Y-7620000D02*
X46990000Y-6355000D01*
X46990000Y-6350000D02*
X46935000Y-6295000D01*
%TO.N,Net-(U10-Pad8)*%
X55875000Y-4450000D02*
X55875000Y-7620000D01*
X55245000Y-3810000D02*
X55880000Y-4445000D01*
X55880000Y-4445000D02*
X55875000Y-4450000D01*
X22860000Y-3810000D02*
X55245000Y-3810000D01*
%TO.N,Net-(U10-Pad10)*%
X49580000Y-8835000D02*
X50795000Y-7620000D01*
X50795000Y-5720000D02*
X50795000Y-7620000D01*
X49933469Y-4848469D02*
X50800000Y-5715000D01*
X50800000Y-5715000D02*
X50795000Y-5720000D01*
X45715000Y-8751370D02*
X45798630Y-8835000D01*
X20320000Y-4848469D02*
X49933469Y-4848469D01*
X45715000Y-7620000D02*
X45715000Y-8751370D01*
X45798630Y-8835000D02*
X49580000Y-8835000D01*
%TO.N,Net-(C3-Pad1)*%
X152480000Y-25400000D02*
X152400000Y-25400000D01*
X155020000Y-27940000D02*
X152480000Y-25400000D01*
X135890000Y-21590000D02*
X151130000Y-21590000D01*
X152400000Y-22860000D02*
X152400000Y-25400000D01*
X134620000Y-22860000D02*
X135890000Y-21590000D01*
X151130000Y-21590000D02*
X152400000Y-22860000D01*
%TO.N,Net-(C4-Pad1)*%
X147320000Y-33020000D02*
X165100000Y-33020000D01*
X165100000Y-33020000D02*
X170180000Y-27940000D01*
X147320000Y-33020000D02*
X144780000Y-30480000D01*
X142240000Y-30480000D02*
X144780000Y-30480000D01*
D34*
%TO.N,Net-(U11-IN_B)*%
X30560000Y-45720000D02*
X25400000Y-45720000D01*
D31*
%TO.N,Net-(C12-Pad1)*%
X12700000Y-20320000D02*
X15240000Y-22860000D01*
X15240000Y-15240000D02*
X15240000Y-17780000D01*
X15240000Y-22860000D02*
X17780000Y-22860000D01*
X15240000Y-17780000D02*
X12700000Y-20320000D01*
D29*
%TO.N,Net-(D1-K)*%
X162560000Y-60960000D02*
X163830000Y-62230000D01*
X160020000Y-60960000D02*
X162560000Y-60960000D01*
X179700000Y-62230000D02*
X180970000Y-60960000D01*
X163830000Y-62230000D02*
X179700000Y-62230000D01*
%TO.N,Net-(D6-K)*%
X144780000Y-22860000D02*
X147320000Y-22860000D01*
X116840000Y-45720000D02*
X114300000Y-43180000D01*
X147320000Y-45720000D02*
X116840000Y-45720000D01*
X111125000Y-46355000D02*
X93980000Y-46355000D01*
X116840000Y-40640000D02*
X111125000Y-46355000D01*
%TO.N,Net-(D7-K)*%
X111760000Y-40640000D02*
X107315000Y-45085000D01*
X107315000Y-45085000D02*
X93345000Y-45085000D01*
%TO.N,Net-(D8-K)*%
X105365000Y-41955000D02*
X94570000Y-41955000D01*
X92710000Y-41910000D02*
X94615000Y-41910000D01*
X106680000Y-40640000D02*
X105365000Y-41955000D01*
%TO.N,Net-(D9-K)*%
X92075000Y-40640000D02*
X101600000Y-40640000D01*
D28*
%TO.N,Net-(D36-A)*%
X22571572Y-81280000D02*
X12700000Y-91151572D01*
D27*
X13970000Y-100330000D02*
X13970000Y-95250000D01*
X18835000Y-100115000D02*
X17145000Y-98425000D01*
X17145000Y-98425000D02*
X17145000Y-97790000D01*
X28995000Y-100115000D02*
X18835000Y-100115000D01*
D30*
X30480000Y-109260000D02*
X31752792Y-109260000D01*
D27*
X18620000Y-100330000D02*
X13970000Y-100330000D01*
D31*
X30480000Y-109260000D02*
X28880000Y-107660000D01*
D30*
X32330000Y-105913704D02*
X28016296Y-101600000D01*
D29*
X22860000Y-96520000D02*
X22860000Y-99060000D01*
D30*
X31752792Y-109260000D02*
X32330000Y-108682792D01*
D28*
X30480000Y-109260000D02*
X32980000Y-109260000D01*
D27*
X33580000Y-104700000D02*
X28995000Y-100115000D01*
D31*
X28880000Y-105740000D02*
X30480000Y-104140000D01*
D27*
X13970000Y-95250000D02*
X12700000Y-93980000D01*
D28*
X22860000Y-81280000D02*
X22571572Y-81280000D01*
D30*
X28016296Y-101600000D02*
X19050000Y-101600000D01*
D28*
X22860000Y-78740000D02*
X22860000Y-81280000D01*
D31*
X28880000Y-107660000D02*
X28880000Y-105740000D01*
D27*
X18835000Y-100115000D02*
X18620000Y-100330000D01*
X33580000Y-108660000D02*
X33580000Y-104700000D01*
D28*
X32980000Y-109260000D02*
X33020000Y-109220000D01*
D30*
X32330000Y-108682792D02*
X32330000Y-105913704D01*
D27*
X33020000Y-109220000D02*
X33580000Y-108660000D01*
D28*
X12700000Y-91151572D02*
X12700000Y-93980000D01*
D29*
%TO.N,Net-(R9-Pad1)*%
X157480000Y-41220000D02*
X163980000Y-41220000D01*
%TO.N,Net-(R11-Pad1)*%
X170180000Y-41220000D02*
X176680000Y-41220000D01*
D34*
%TO.N,Net-(U11-OUT_A)*%
X27147767Y-38080000D02*
X25897767Y-36830000D01*
X38080000Y-38080000D02*
X27147767Y-38080000D01*
X21590000Y-36830000D02*
X20320000Y-38100000D01*
X40640000Y-43180000D02*
X40640000Y-40640000D01*
X25897767Y-36830000D02*
X21590000Y-36830000D01*
X40640000Y-40640000D02*
X38080000Y-38080000D01*
%TO.N,Net-(U11-OUT_B)*%
X38100000Y-43180000D02*
X27940000Y-43180000D01*
X27940000Y-43180000D02*
X25400000Y-40640000D01*
X40640000Y-45720000D02*
X38100000Y-43180000D01*
X40640000Y-48260000D02*
X40640000Y-45720000D01*
X25400000Y-40640000D02*
X25400000Y-38100000D01*
D29*
%TO.N,Net-(D38-A)*%
X33020000Y-93980000D02*
X30480000Y-91440000D01*
X30480000Y-91440000D02*
X27940000Y-91440000D01*
%TO.N,Net-(U14-Pad2)*%
X125730000Y-87630000D02*
X127000000Y-88900000D01*
X119380000Y-88900000D02*
X120650000Y-87630000D01*
X120650000Y-87630000D02*
X125730000Y-87630000D01*
D31*
%TO.N,Net-(R17-Pad2)*%
X27940000Y-20320000D02*
X25400000Y-22860000D01*
X25400000Y-22860000D02*
X22660000Y-22860000D01*
X22860000Y-15240000D02*
X27940000Y-20320000D01*
D29*
X43175000Y-15240000D02*
X40635000Y-15240000D01*
X40640000Y-20320000D02*
X27940000Y-20320000D01*
D27*
%TO.N,Net-(D35-K)*%
X2000000Y-106140000D02*
X2000000Y-99060000D01*
D31*
X25400000Y-109260000D02*
X27000000Y-107660000D01*
D30*
X22860000Y-107992792D02*
X22860000Y-105410000D01*
D27*
X20320000Y-106680000D02*
X22860000Y-109220000D01*
D31*
X26420000Y-105160000D02*
X20570000Y-105160000D01*
X20570000Y-105160000D02*
X20320000Y-105410000D01*
D27*
X3302000Y-66548000D02*
X3302000Y-71120000D01*
X22860000Y-109220000D02*
X12700000Y-109220000D01*
X6350000Y-63500000D02*
X3302000Y-66548000D01*
X10160000Y-106680000D02*
X20320000Y-106680000D01*
X6350000Y-63500000D02*
X12700000Y-63500000D01*
D31*
X27000000Y-105740000D02*
X26420000Y-105160000D01*
D28*
X25400000Y-109260000D02*
X22900000Y-109260000D01*
D27*
X9906000Y-105410000D02*
X22365937Y-105410000D01*
X12700000Y-109220000D02*
X10160000Y-106680000D01*
X12700000Y-109220000D02*
X5080000Y-109220000D01*
X8890000Y-109220000D02*
X2000000Y-102330000D01*
D31*
X27000000Y-107660000D02*
X27000000Y-105740000D01*
D28*
X22900000Y-109260000D02*
X22860000Y-109220000D01*
D27*
X3302000Y-70358000D02*
X7620000Y-66040000D01*
D30*
X24127208Y-109260000D02*
X22860000Y-107992792D01*
D27*
X10160000Y-106680000D02*
X2540000Y-99060000D01*
X5080000Y-109220000D02*
X2000000Y-106140000D01*
D30*
X25400000Y-109260000D02*
X24127208Y-109260000D01*
D27*
X3302000Y-98806000D02*
X9906000Y-105410000D01*
X3302000Y-71120000D02*
X3302000Y-70358000D01*
X3302000Y-71120000D02*
X3302000Y-98806000D01*
%TD*%
M02*
