M48
; DRILL file {KiCad 7.0.1} date Wed Apr  5 20:47:39 2023
; FORMAT={-:-/ absolute / inch / decimal}
; #@! TF.CreationDate,2023-04-05T20:47:39+09:00
; #@! TF.GenerationSoftware,Kicad,Pcbnew,7.0.1
; #@! TF.FileFunction,Plated,1,2,PTH
FMAT,2
INCH
; #@! TA.AperFunction,Plated,PTH,ViaDrill
T1C0.0157
; #@! TA.AperFunction,Plated,PTH,ComponentDrill
T2C0.0236
; #@! TA.AperFunction,Plated,PTH,ComponentDrill
T3C0.0315
; #@! TA.AperFunction,Plated,PTH,ComponentDrill
T4C0.0354
; #@! TA.AperFunction,Plated,PTH,ComponentDrill
T5C0.0394
; #@! TA.AperFunction,Plated,PTH,ComponentDrill
T6C0.0433
; #@! TA.AperFunction,Plated,PTH,ComponentDrill
T7C0.2402
%
G90
G05
T1
X0.475Y-0.3
X0.475Y-0.35
X0.525Y-0.3
X0.525Y-0.35
X0.8Y-0.1909
X0.9Y-0.15
X1.6Y-0.8
X1.75Y-0.7
X1.75Y-1.35
X1.75Y-1.4
X1.8Y-1.35
X1.8Y-1.4
X1.8502Y-0.2194
X1.95Y-2.55
X1.95Y-2.6
X2.0Y-2.55
X2.0Y-2.6
X2.0Y-3.45
X2.0Y-3.5
X2.075Y-3.725
X2.15Y-4.6
X2.25Y-4.2
X2.25Y-4.25
X2.25Y-4.3
X2.25Y-4.5715
X2.3Y-1.7
X2.3Y-1.9
X2.35Y-1.7
X2.35Y-1.9
X2.35Y-4.543
X2.45Y-4.5144
X2.65Y-0.7
X2.65Y-3.15
X2.65Y-3.6
X2.75Y-1.275
X2.75Y-3.1193
X2.75Y-3.6
X2.85Y-1.3
X2.85Y-3.1
X2.85Y-3.725
X2.95Y-1.325
X2.95Y-3.0715
X3.05Y-0.65
X3.05Y-1.35
X3.15Y-0.7
X3.15Y-1.3785
X3.15Y-2.35
X3.2Y-3.6
X3.25Y-1.4
X3.35Y-1.45
X3.35Y-2.3
X3.4Y-0.1965
X3.45Y-1.5
X3.5Y-0.875
X3.5Y-3.4715
X3.525Y-0.825
X3.525Y-2.025
X3.55Y-0.775
X3.55Y-1.975
X3.55Y-2.35
X3.575Y-0.725
X3.575Y-1.925
X3.6Y-1.875
X3.6Y-3.4965
X3.625Y-1.6
X3.65Y-1.65
X3.65Y-2.3
X3.675Y-1.775
X3.7Y-1.825
X3.7Y-3.5215
X3.8Y-3.55
X3.9Y-2.825
X3.9Y-3.3715
X3.95Y-3.575
X3.975Y-3.475
X3.975Y-3.9
X4.025Y-3.45
X4.025Y-3.95
X4.075Y-3.425
X4.1Y-3.975
X4.125Y-2.75
X4.125Y-3.85
X4.2Y-3.35
X4.2Y-3.4
X4.4Y-4.15
X4.4Y-4.2
X4.45Y-3.275
X4.55Y-0.5
X4.7Y-1.1
X4.7Y-2.7965
X4.725Y-1.9
X4.775Y-0.875
X4.775Y-1.8722
X4.8Y-0.825
X4.8Y-2.825
X4.8Y-3.925
X4.825Y-0.775
X4.825Y-1.8408
X4.85Y-0.725
X4.9Y-3.4
X4.9Y-3.95
X4.9Y-4.025
X5.0Y-0.675
X5.0Y-0.75
X5.0Y-1.9
X5.075Y-4.375
X5.15Y-4.4
X5.2Y-0.6
X5.2Y-1.875
X5.25Y-0.6
X5.25Y-3.35
X5.25Y-4.425
X5.3Y-3.35
X5.35Y-4.45
X5.4Y-1.85
X5.55Y-2.825
X5.6Y-0.75
X5.68Y-4.5298
X5.7Y-3.6035
X5.7215Y-4.5
X5.8Y-1.55
X5.8Y-1.8
X5.85Y-1.75
X5.85Y-2.9
X5.9Y-1.7
X5.95Y-1.65
X6.0Y-1.6
X6.2Y-3.0
X6.2Y-3.05
X6.575Y-2.275
X6.625Y-2.25
X6.675Y-2.225
X6.7Y-3.893
X6.725Y-2.2
X6.775Y-2.175
X6.8Y-3.9215
X6.825Y-2.15
X6.85Y-4.5
X6.875Y-2.125
X6.9Y-3.95
X6.925Y-2.1
X6.95Y-4.0285
X6.95Y-4.525
X7.05Y-2.8
X7.05Y-4.0
X7.1Y-2.8
T2
X6.6159Y-1.275
X6.675Y-1.275
T3
X0.2Y-0.8
X0.2284Y-1.5
X0.3269Y-1.5
X0.3969Y-0.8
X0.4031Y-0.7
X0.5Y-0.8
X0.5Y-1.1
X0.6Y-0.3
X0.6Y-0.6
X0.6Y-0.7
X0.7Y-0.3
X0.7Y-0.6
X0.7Y-0.7
X0.7Y-0.9
X0.7Y-1.5
X0.7Y-1.8
X0.8Y-0.3
X0.8Y-0.6
X0.8Y-1.5
X0.8Y-1.8
X0.8921Y-0.9
X0.8969Y-0.7
X0.9Y-0.3
X0.9Y-0.6
X0.9Y-1.5
X0.9Y-1.8
X0.9Y-2.2
X0.9Y-2.5
X0.9Y-2.8
X0.9Y-3.1
X0.9Y-3.3
X0.9Y-3.6
X1.0Y-0.3
X1.0Y-0.6
X1.0Y-1.5
X1.0Y-1.8
X1.0Y-3.3
X1.0Y-3.6
X1.1Y-0.3
X1.1Y-0.6
X1.1Y-0.8
X1.1Y-1.1
X1.1Y-2.5
X1.1Y-3.3
X1.1Y-3.6
X1.1984Y-2.5
X1.2Y-0.3
X1.2Y-0.6
X1.2031Y-1.45
X1.2031Y-1.6
X1.2031Y-1.8
X1.2031Y-1.95
X1.4Y-0.3531
X1.4Y-0.55
X1.4Y-1.45
X1.4Y-1.6
X1.4Y-1.8
X1.4Y-1.95
X1.5Y-0.9
X1.5Y-1.2
X1.5Y-2.2031
X1.5Y-2.4
X1.5Y-3.5
X1.5Y-3.6
X1.5Y-3.7
X1.5Y-3.8
X1.5998Y-0.3
X1.5998Y-0.6
X1.6Y-0.9
X1.6Y-1.2
X1.6Y-1.6
X1.6Y-1.7
X1.6Y-1.8
X1.6Y-1.9
X1.6998Y-0.3
X1.6998Y-0.6
X1.7Y-0.9
X1.7Y-1.2
X1.7Y-4.0
X1.7Y-4.3
X1.7998Y-0.3
X1.7998Y-0.6
X1.8Y-0.9
X1.8Y-1.2
X1.8Y-3.5
X1.8Y-3.6
X1.8Y-3.7
X1.8Y-3.8
X1.8Y-4.0
X1.8Y-4.3
X1.8998Y-0.3
X1.8998Y-0.6
X1.9Y-0.9
X1.9Y-1.2
X1.9Y-1.6
X1.9Y-1.7
X1.9Y-1.8
X1.9Y-1.9
X1.9Y-4.0
X1.9Y-4.3
X1.9998Y-0.3
X1.9998Y-0.6
X2.0Y-0.9
X2.0Y-1.2
X2.0Y-3.6
X2.0Y-3.7969
X2.0Y-4.0
X2.0Y-4.3
X2.0998Y-0.3
X2.0998Y-0.6
X2.1Y-0.9
X2.1Y-1.2
X2.1Y-1.35
X2.1998Y-0.3
X2.1998Y-0.6
X2.2Y-0.9
X2.2Y-1.2
X2.2Y-1.7031
X2.2Y-1.9
X2.4Y-1.35
X2.5Y-0.35
X2.5Y-0.5469
X2.5Y-0.9531
X2.5Y-1.15
X2.7Y-0.3
X2.7Y-0.6
X2.7Y-0.9
X2.7Y-1.2
X2.8Y-0.3
X2.8Y-0.6
X2.8Y-0.9
X2.8Y-1.2
X2.9Y-0.3
X2.9Y-0.6
X2.9Y-0.9
X2.9Y-1.2
X3.0Y-0.3
X3.0Y-0.6
X3.0Y-0.9
X3.0Y-1.2
X3.1Y-0.3
X3.1Y-0.6
X3.1Y-0.9
X3.1Y-1.2
X3.2Y-0.3
X3.2Y-0.6
X3.2Y-0.9
X3.2Y-1.2
X3.3Y-0.3
X3.3Y-0.6
X3.3Y-0.9
X3.3Y-1.2
X3.4Y-0.3
X3.4Y-0.6
X3.4Y-0.9
X3.4Y-1.2
X3.8Y-0.3531
X3.8Y-0.55
X3.8Y-0.9531
X3.8Y-1.15
X4.0Y-0.3
X4.0Y-0.6
X4.0Y-0.9
X4.0Y-1.2
X4.1Y-0.3
X4.1Y-0.6
X4.1Y-0.9
X4.1Y-1.2
X4.2Y-0.3
X4.2Y-0.6
X4.2Y-0.9
X4.2Y-1.2
X4.3Y-0.3
X4.3Y-0.6
X4.3Y-0.9
X4.3Y-1.2
X4.3Y-3.8531
X4.3Y-4.05
X4.4Y-0.3
X4.4Y-0.6
X4.4Y-0.9
X4.4Y-1.2
X4.4Y-2.4
X4.4Y-2.5
X4.4Y-3.0031
X4.4Y-3.2
X4.5Y-0.3
X4.5Y-0.6
X4.5Y-0.9
X4.5Y-1.2
X4.5Y-2.4
X4.5Y-2.5
X4.5Y-3.8
X4.5Y-4.1
X4.5Y-4.3
X4.5Y-4.4
X4.5Y-4.5
X4.5Y-4.6
X4.6Y-0.3
X4.6Y-0.6
X4.6Y-0.9
X4.6Y-1.2
X4.6Y-2.4
X4.6Y-2.5
X4.6Y-2.7
X4.6Y-3.0
X4.6Y-3.2
X4.6Y-3.5
X4.6Y-3.8
X4.6Y-4.1
X4.7Y-0.3
X4.7Y-0.6
X4.7Y-0.9
X4.7Y-1.2
X4.7Y-2.4
X4.7Y-2.5
X4.7Y-2.7
X4.7Y-3.0
X4.7Y-3.2
X4.7Y-3.5
X4.7Y-3.8
X4.7Y-4.1
X4.8Y-2.4
X4.8Y-2.5
X4.8Y-2.7
X4.8Y-3.0
X4.8Y-3.2
X4.8Y-3.5
X4.8Y-3.8
X4.8Y-4.1
X4.8Y-4.3
X4.8Y-4.4
X4.8Y-4.5
X4.8Y-4.6
X4.9Y-2.7
X4.9Y-3.0
X4.9Y-3.2
X4.9Y-3.5
X4.9Y-3.8
X4.9Y-4.1
X4.9Y-4.3
X4.9Y-4.4
X4.9Y-4.5
X4.9Y-4.6
X5.0Y-2.4
X5.0Y-2.5
X5.0Y-2.7
X5.0Y-3.0
X5.0Y-3.2
X5.0Y-3.5
X5.0Y-3.8
X5.0Y-4.1
X5.0Y-4.3
X5.0Y-4.4
X5.0Y-4.5
X5.0Y-4.6
X5.1Y-2.4
X5.1Y-2.5
X5.1Y-2.7
X5.1Y-3.0
X5.1Y-3.2
X5.1Y-3.5
X5.1Y-3.8
X5.1Y-4.1
X5.2Y-0.9
X5.2Y-1.2
X5.2Y-2.4
X5.2Y-2.5
X5.2Y-2.7
X5.2Y-3.0
X5.2Y-3.2
X5.2Y-3.5
X5.2Y-3.8
X5.2Y-4.1
X5.3Y-0.9
X5.3Y-1.2
X5.3Y-2.4
X5.3Y-2.5
X5.3Y-3.8
X5.3Y-4.1
X5.4Y-0.9
X5.4Y-1.2
X5.4Y-2.4
X5.4Y-2.5
X5.4Y-3.8
X5.4Y-4.1
X5.5Y-0.9
X5.5Y-1.2
X5.5Y-3.2
X5.5Y-3.5
X5.6Y-0.9
X5.6Y-1.2
X5.6Y-3.2
X5.6Y-3.5
X5.6Y-3.8
X5.6Y-3.9969
X5.6Y-4.3
X5.6Y-4.4969
X5.7Y-0.2
X5.7Y-0.3
X5.7Y-0.6
X5.7Y-0.9
X5.7Y-1.2
X5.7Y-3.2
X5.7Y-3.5
X5.8Y-0.3
X5.8Y-0.6
X5.8Y-0.9
X5.8Y-1.2
X5.8Y-3.2
X5.8Y-3.5
X5.8Y-3.7
X5.8Y-4.1
X5.8Y-4.2
X5.8Y-4.6
X5.8969Y-0.2
X5.9Y-0.3
X5.9Y-0.6
X5.9Y-3.2
X5.9Y-3.5
X5.9Y-3.7
X5.9Y-4.1
X5.9Y-4.2
X5.9Y-4.6
X6.0Y-0.3
X6.0Y-0.6
X6.0Y-0.8
X6.0Y-0.9
X6.0Y-1.0
X6.0Y-2.4
X6.0Y-2.5
X6.0Y-2.6
X6.0Y-2.7
X6.0Y-3.2
X6.0Y-3.5
X6.0Y-3.7
X6.0Y-4.1
X6.0Y-4.2
X6.0Y-4.6
X6.1Y-3.2
X6.1Y-3.5
X6.1Y-3.7
X6.1Y-4.1
X6.1Y-4.2
X6.1Y-4.6
X6.1031Y-1.1
X6.2Y-3.7
X6.2Y-4.1
X6.2Y-4.2
X6.2Y-4.6
X6.3Y-0.2
X6.3Y-0.3
X6.3Y-0.6
X6.3Y-0.8
X6.3Y-0.9
X6.3Y-1.0
X6.3Y-1.1
X6.3Y-2.4
X6.3Y-2.5
X6.3Y-2.6
X6.3Y-2.7
X6.3Y-3.7
X6.3Y-4.1
X6.3Y-4.2
X6.3Y-4.6
X6.4Y-0.3
X6.4Y-0.6
X6.4Y-0.8
X6.4Y-0.9
X6.4Y-1.0
X6.4Y-1.1
X6.4Y-2.4
X6.4Y-2.5
X6.4Y-2.6
X6.4Y-2.7
X6.4Y-2.9
X6.4Y-3.2
X6.4Y-3.3
X6.4Y-3.4
X6.4Y-3.7
X6.4Y-4.1
X6.4Y-4.2
X6.4Y-4.6
X6.4969Y-0.2
X6.5Y-0.3
X6.5Y-0.6
X6.5Y-2.4
X6.5Y-2.5
X6.5Y-2.6
X6.5Y-2.7
X6.5Y-2.9
X6.5Y-3.2
X6.5Y-3.3
X6.5Y-3.4
X6.5Y-3.7
X6.5Y-4.1
X6.5Y-4.2
X6.5Y-4.6
X6.6Y-0.3
X6.6Y-0.6
X6.6Y-2.9
X6.6Y-3.2
X6.6Y-3.3
X6.6Y-3.4
X6.6Y-3.7
X6.6Y-4.1
X6.6Y-4.2
X6.6Y-4.6
X6.7Y-0.8
X6.7Y-0.9
X6.7Y-1.0
X6.7Y-1.1
X6.7Y-2.9
X6.7Y-3.2
X6.7Y-3.3
X6.7Y-3.4
X6.7Y-3.7
X6.7Y-4.1
X6.7Y-4.2
X6.7Y-4.6
X6.8Y-0.3
X6.8Y-0.6
X6.8Y-2.9
X6.8Y-3.2
X6.8Y-3.3
X6.8Y-3.4
X6.8Y-3.7
X6.8Y-4.1
X6.8Y-4.2
X6.8Y-4.6
X6.9Y-2.9
X6.9Y-3.2
X6.9Y-3.3
X6.9Y-3.4
X6.9Y-3.7
X6.9Y-4.1
X6.9Y-4.2
X6.9Y-4.6
X7.0Y-2.9
X7.0Y-3.2
X7.0Y-3.3
X7.0Y-3.4
X7.0Y-3.7
X7.0Y-4.1
X7.0Y-4.2
X7.0Y-4.6
X7.1Y-2.9
X7.1Y-3.2
X7.1Y-3.3
X7.1Y-3.4
X7.1Y-3.7
X7.1Y-4.1
X7.1Y-4.2
X7.1Y-4.6
T4
X0.9Y-3.7
X0.9Y-3.8
X1.0Y-4.2031
X1.0Y-4.3016
X1.0Y-4.4
X1.1Y-3.7
X1.1Y-3.8
X1.2Y-4.2031
X1.2Y-4.3016
X1.2Y-4.4
X1.3Y-3.7
X1.3Y-3.8
X4.0Y-1.6
X4.0Y-1.7
X4.0Y-2.0
X4.0Y-2.1
X4.2Y-1.6
X4.2Y-1.7
X4.2Y-2.0
X4.2Y-2.1
X4.4Y-1.6
X4.4Y-1.7
X4.4Y-2.0
X4.4Y-2.1
X4.6Y-1.6
X4.6Y-1.7
X4.6Y-2.0
X4.6Y-2.1
X4.8Y-1.6
X4.8Y-1.7
X4.8Y-2.0
X4.8Y-2.1
X5.0Y-1.6
X5.0Y-1.7
X5.0Y-2.0
X5.0Y-2.1
X5.2Y-1.6
X5.2Y-1.7
X5.2Y-2.0
X5.2Y-2.1
X5.4Y-1.6
X5.4Y-1.7
X5.4Y-2.0
X5.4Y-2.1
X7.0Y-0.6
X7.1Y-0.6
T5
X2.1Y-2.6
X2.1Y-3.2
X2.2Y-2.6
X2.2Y-3.2
X2.3Y-2.6
X2.3Y-3.2
X2.4Y-2.6
X2.4Y-3.2
X2.5Y-2.6
X2.5Y-3.2
X2.6Y-2.6
X2.6Y-3.2
X2.6Y-3.8
X2.6Y-4.4
X2.7Y-1.7
X2.7Y-2.0
X2.7Y-2.6
X2.7Y-3.2
X2.7Y-3.8
X2.7Y-4.4
X2.8Y-1.7
X2.8Y-2.0
X2.8Y-2.6
X2.8Y-3.2
X2.8Y-3.8
X2.8Y-4.4
X2.9Y-1.7
X2.9Y-2.0
X2.9Y-2.6
X2.9Y-3.2
X2.9Y-3.8
X2.9Y-4.4
X3.0Y-1.7
X3.0Y-2.0
X3.0Y-2.6
X3.0Y-3.2
X3.0Y-3.8
X3.0Y-4.4
X3.1Y-1.7
X3.1Y-2.0
X3.1Y-2.6
X3.1Y-3.2
X3.1Y-3.8
X3.1Y-4.4
X3.2Y-1.7
X3.2Y-2.0
X3.2Y-2.6
X3.2Y-3.2
X3.2Y-3.8
X3.2Y-4.4
X3.3Y-1.7
X3.3Y-2.0
X3.3Y-2.6
X3.3Y-3.2
X3.3Y-3.8
X3.3Y-4.4
X3.4Y-1.7
X3.4Y-2.0
X3.4Y-2.6
X3.4Y-3.2
X3.4Y-3.8
X3.4Y-4.4
X3.5Y-2.6
X3.5Y-3.2
X3.5Y-3.8
X3.5Y-4.4
X3.6Y-2.6
X3.6Y-3.2
X3.6Y-3.8
X3.6Y-4.4
X3.7Y-2.6
X3.7Y-3.2
X3.7Y-3.8
X3.7Y-4.4
X3.8Y-2.6
X3.8Y-3.2
X3.8Y-3.8
X3.8Y-4.4
X3.9Y-2.6
X3.9Y-3.2
X3.9Y-3.8
X3.9Y-4.4
X4.0Y-2.6
X4.0Y-3.2
X5.0Y-0.3
X5.0Y-0.4
X5.0Y-0.5
X7.0248Y-2.4
X7.0248Y-2.5
X7.0248Y-2.6
X7.0248Y-2.7
X7.1Y-0.8
X7.1Y-0.9
X7.1Y-1.0
X7.1Y-1.1
X7.1Y-1.2
X7.1Y-1.3
X7.1248Y-2.4
X7.1248Y-2.5
X7.1248Y-2.6
X7.1248Y-2.7
T6
X1.1Y-4.1
X1.1Y-4.5
X6.2Y-1.6228
X6.2Y-1.8
X6.4559Y-1.6228
X6.4559Y-1.8
X6.7Y-1.6228
X6.7Y-1.8
X6.9559Y-1.6228
X6.9559Y-1.8
T7
X0.5Y-2.5
X0.5Y-3.1
X0.5Y-3.7
T0
M30
