%TF.GenerationSoftware,KiCad,Pcbnew,7.0.1*%
%TF.CreationDate,2023-04-05T20:47:30+09:00*%
%TF.ProjectId,test4004,74657374-3430-4303-942e-6b696361645f,rev?*%
%TF.SameCoordinates,Original*%
%TF.FileFunction,Copper,L2,Bot*%
%TF.FilePolarity,Positive*%
%FSLAX46Y46*%
G04 Gerber Fmt 4.6, Leading zero omitted, Abs format (unit mm)*
G04 Created by KiCad (PCBNEW 7.0.1) date 2023-04-05 20:47:30*
%MOMM*%
%LPD*%
G01*
G04 APERTURE LIST*
%ADD10C,0.300000*%
%TA.AperFunction,NonConductor*%
%ADD11C,0.300000*%
%TD*%
%TA.AperFunction,ComponentPad*%
%ADD12R,1.800000X1.800000*%
%TD*%
%TA.AperFunction,ComponentPad*%
%ADD13C,1.800000*%
%TD*%
%TA.AperFunction,ComponentPad*%
%ADD14C,1.600000*%
%TD*%
%TA.AperFunction,ComponentPad*%
%ADD15O,1.600000X1.600000*%
%TD*%
%TA.AperFunction,ComponentPad*%
%ADD16R,1.600000X1.600000*%
%TD*%
%TA.AperFunction,ComponentPad*%
%ADD17C,10.160000*%
%TD*%
%TA.AperFunction,ComponentPad*%
%ADD18R,1.200000X1.200000*%
%TD*%
%TA.AperFunction,ComponentPad*%
%ADD19C,1.200000*%
%TD*%
%TA.AperFunction,ComponentPad*%
%ADD20R,1.440000X2.000000*%
%TD*%
%TA.AperFunction,ComponentPad*%
%ADD21O,1.440000X2.000000*%
%TD*%
%TA.AperFunction,ComponentPad*%
%ADD22R,1.700000X1.700000*%
%TD*%
%TA.AperFunction,ComponentPad*%
%ADD23O,1.700000X1.700000*%
%TD*%
%TA.AperFunction,ComponentPad*%
%ADD24C,1.500000*%
%TD*%
%TA.AperFunction,ComponentPad*%
%ADD25C,2.000000*%
%TD*%
%TA.AperFunction,ViaPad*%
%ADD26C,0.800000*%
%TD*%
%TA.AperFunction,Conductor*%
%ADD27C,4.000000*%
%TD*%
%TA.AperFunction,Conductor*%
%ADD28C,2.000000*%
%TD*%
%TA.AperFunction,Conductor*%
%ADD29C,1.500000*%
%TD*%
%TA.AperFunction,Conductor*%
%ADD30C,0.500000*%
%TD*%
%TA.AperFunction,Conductor*%
%ADD31C,1.000000*%
%TD*%
%TA.AperFunction,Conductor*%
%ADD32C,0.250000*%
%TD*%
G04 APERTURE END LIST*
D10*
D11*
X57943809Y-122245238D02*
X57943809Y-120245238D01*
X57943809Y-120245238D02*
X57467619Y-120245238D01*
X57467619Y-120245238D02*
X57181904Y-120340476D01*
X57181904Y-120340476D02*
X56991428Y-120530952D01*
X56991428Y-120530952D02*
X56896190Y-120721428D01*
X56896190Y-120721428D02*
X56800952Y-121102380D01*
X56800952Y-121102380D02*
X56800952Y-121388095D01*
X56800952Y-121388095D02*
X56896190Y-121769047D01*
X56896190Y-121769047D02*
X56991428Y-121959523D01*
X56991428Y-121959523D02*
X57181904Y-122150000D01*
X57181904Y-122150000D02*
X57467619Y-122245238D01*
X57467619Y-122245238D02*
X57943809Y-122245238D01*
X55181904Y-122150000D02*
X55372380Y-122245238D01*
X55372380Y-122245238D02*
X55753333Y-122245238D01*
X55753333Y-122245238D02*
X55943809Y-122150000D01*
X55943809Y-122150000D02*
X56039047Y-121959523D01*
X56039047Y-121959523D02*
X56039047Y-121197619D01*
X56039047Y-121197619D02*
X55943809Y-121007142D01*
X55943809Y-121007142D02*
X55753333Y-120911904D01*
X55753333Y-120911904D02*
X55372380Y-120911904D01*
X55372380Y-120911904D02*
X55181904Y-121007142D01*
X55181904Y-121007142D02*
X55086666Y-121197619D01*
X55086666Y-121197619D02*
X55086666Y-121388095D01*
X55086666Y-121388095D02*
X56039047Y-121578571D01*
X54324761Y-122150000D02*
X54134285Y-122245238D01*
X54134285Y-122245238D02*
X53753333Y-122245238D01*
X53753333Y-122245238D02*
X53562856Y-122150000D01*
X53562856Y-122150000D02*
X53467618Y-121959523D01*
X53467618Y-121959523D02*
X53467618Y-121864285D01*
X53467618Y-121864285D02*
X53562856Y-121673809D01*
X53562856Y-121673809D02*
X53753333Y-121578571D01*
X53753333Y-121578571D02*
X54039047Y-121578571D01*
X54039047Y-121578571D02*
X54229523Y-121483333D01*
X54229523Y-121483333D02*
X54324761Y-121292857D01*
X54324761Y-121292857D02*
X54324761Y-121197619D01*
X54324761Y-121197619D02*
X54229523Y-121007142D01*
X54229523Y-121007142D02*
X54039047Y-120911904D01*
X54039047Y-120911904D02*
X53753333Y-120911904D01*
X53753333Y-120911904D02*
X53562856Y-121007142D01*
X52610475Y-122245238D02*
X52610475Y-120911904D01*
X52610475Y-120245238D02*
X52705713Y-120340476D01*
X52705713Y-120340476D02*
X52610475Y-120435714D01*
X52610475Y-120435714D02*
X52515237Y-120340476D01*
X52515237Y-120340476D02*
X52610475Y-120245238D01*
X52610475Y-120245238D02*
X52610475Y-120435714D01*
X50800951Y-120911904D02*
X50800951Y-122530952D01*
X50800951Y-122530952D02*
X50896189Y-122721428D01*
X50896189Y-122721428D02*
X50991427Y-122816666D01*
X50991427Y-122816666D02*
X51181904Y-122911904D01*
X51181904Y-122911904D02*
X51467618Y-122911904D01*
X51467618Y-122911904D02*
X51658094Y-122816666D01*
X50800951Y-122150000D02*
X50991427Y-122245238D01*
X50991427Y-122245238D02*
X51372380Y-122245238D01*
X51372380Y-122245238D02*
X51562856Y-122150000D01*
X51562856Y-122150000D02*
X51658094Y-122054761D01*
X51658094Y-122054761D02*
X51753332Y-121864285D01*
X51753332Y-121864285D02*
X51753332Y-121292857D01*
X51753332Y-121292857D02*
X51658094Y-121102380D01*
X51658094Y-121102380D02*
X51562856Y-121007142D01*
X51562856Y-121007142D02*
X51372380Y-120911904D01*
X51372380Y-120911904D02*
X50991427Y-120911904D01*
X50991427Y-120911904D02*
X50800951Y-121007142D01*
X49848570Y-120911904D02*
X49848570Y-122245238D01*
X49848570Y-121102380D02*
X49753332Y-121007142D01*
X49753332Y-121007142D02*
X49562856Y-120911904D01*
X49562856Y-120911904D02*
X49277141Y-120911904D01*
X49277141Y-120911904D02*
X49086665Y-121007142D01*
X49086665Y-121007142D02*
X48991427Y-121197619D01*
X48991427Y-121197619D02*
X48991427Y-122245238D01*
X47277141Y-122150000D02*
X47467617Y-122245238D01*
X47467617Y-122245238D02*
X47848570Y-122245238D01*
X47848570Y-122245238D02*
X48039046Y-122150000D01*
X48039046Y-122150000D02*
X48134284Y-121959523D01*
X48134284Y-121959523D02*
X48134284Y-121197619D01*
X48134284Y-121197619D02*
X48039046Y-121007142D01*
X48039046Y-121007142D02*
X47848570Y-120911904D01*
X47848570Y-120911904D02*
X47467617Y-120911904D01*
X47467617Y-120911904D02*
X47277141Y-121007142D01*
X47277141Y-121007142D02*
X47181903Y-121197619D01*
X47181903Y-121197619D02*
X47181903Y-121388095D01*
X47181903Y-121388095D02*
X48134284Y-121578571D01*
X45467617Y-122245238D02*
X45467617Y-120245238D01*
X45467617Y-122150000D02*
X45658093Y-122245238D01*
X45658093Y-122245238D02*
X46039046Y-122245238D01*
X46039046Y-122245238D02*
X46229522Y-122150000D01*
X46229522Y-122150000D02*
X46324760Y-122054761D01*
X46324760Y-122054761D02*
X46419998Y-121864285D01*
X46419998Y-121864285D02*
X46419998Y-121292857D01*
X46419998Y-121292857D02*
X46324760Y-121102380D01*
X46324760Y-121102380D02*
X46229522Y-121007142D01*
X46229522Y-121007142D02*
X46039046Y-120911904D01*
X46039046Y-120911904D02*
X45658093Y-120911904D01*
X45658093Y-120911904D02*
X45467617Y-121007142D01*
X42991426Y-122245238D02*
X42991426Y-120245238D01*
X42991426Y-121007142D02*
X42800950Y-120911904D01*
X42800950Y-120911904D02*
X42419997Y-120911904D01*
X42419997Y-120911904D02*
X42229521Y-121007142D01*
X42229521Y-121007142D02*
X42134283Y-121102380D01*
X42134283Y-121102380D02*
X42039045Y-121292857D01*
X42039045Y-121292857D02*
X42039045Y-121864285D01*
X42039045Y-121864285D02*
X42134283Y-122054761D01*
X42134283Y-122054761D02*
X42229521Y-122150000D01*
X42229521Y-122150000D02*
X42419997Y-122245238D01*
X42419997Y-122245238D02*
X42800950Y-122245238D01*
X42800950Y-122245238D02*
X42991426Y-122150000D01*
X41372378Y-120911904D02*
X40896188Y-122245238D01*
X40419997Y-120911904D02*
X40896188Y-122245238D01*
X40896188Y-122245238D02*
X41086664Y-122721428D01*
X41086664Y-122721428D02*
X41181902Y-122816666D01*
X41181902Y-122816666D02*
X41372378Y-122911904D01*
X36991425Y-122245238D02*
X37658092Y-121292857D01*
X38134282Y-122245238D02*
X38134282Y-120245238D01*
X38134282Y-120245238D02*
X37372377Y-120245238D01*
X37372377Y-120245238D02*
X37181901Y-120340476D01*
X37181901Y-120340476D02*
X37086663Y-120435714D01*
X37086663Y-120435714D02*
X36991425Y-120626190D01*
X36991425Y-120626190D02*
X36991425Y-120911904D01*
X36991425Y-120911904D02*
X37086663Y-121102380D01*
X37086663Y-121102380D02*
X37181901Y-121197619D01*
X37181901Y-121197619D02*
X37372377Y-121292857D01*
X37372377Y-121292857D02*
X38134282Y-121292857D01*
X36324758Y-120911904D02*
X35848568Y-122245238D01*
X35372377Y-120911904D02*
X35848568Y-122245238D01*
X35848568Y-122245238D02*
X36039044Y-122721428D01*
X36039044Y-122721428D02*
X36134282Y-122816666D01*
X36134282Y-122816666D02*
X36324758Y-122911904D01*
X34324758Y-122245238D02*
X34515234Y-122150000D01*
X34515234Y-122150000D02*
X34610472Y-122054761D01*
X34610472Y-122054761D02*
X34705710Y-121864285D01*
X34705710Y-121864285D02*
X34705710Y-121292857D01*
X34705710Y-121292857D02*
X34610472Y-121102380D01*
X34610472Y-121102380D02*
X34515234Y-121007142D01*
X34515234Y-121007142D02*
X34324758Y-120911904D01*
X34324758Y-120911904D02*
X34039043Y-120911904D01*
X34039043Y-120911904D02*
X33848567Y-121007142D01*
X33848567Y-121007142D02*
X33753329Y-121102380D01*
X33753329Y-121102380D02*
X33658091Y-121292857D01*
X33658091Y-121292857D02*
X33658091Y-121864285D01*
X33658091Y-121864285D02*
X33753329Y-122054761D01*
X33753329Y-122054761D02*
X33848567Y-122150000D01*
X33848567Y-122150000D02*
X34039043Y-122245238D01*
X34039043Y-122245238D02*
X34324758Y-122245238D01*
X31277138Y-122245238D02*
X31277138Y-120245238D01*
X31277138Y-120245238D02*
X30610471Y-121673809D01*
X30610471Y-121673809D02*
X29943805Y-120245238D01*
X29943805Y-120245238D02*
X29943805Y-122245238D01*
X28134281Y-120911904D02*
X28134281Y-122245238D01*
X28991424Y-120911904D02*
X28991424Y-121959523D01*
X28991424Y-121959523D02*
X28896186Y-122150000D01*
X28896186Y-122150000D02*
X28705710Y-122245238D01*
X28705710Y-122245238D02*
X28419995Y-122245238D01*
X28419995Y-122245238D02*
X28229519Y-122150000D01*
X28229519Y-122150000D02*
X28134281Y-122054761D01*
X27181900Y-122245238D02*
X27181900Y-120245238D01*
X26991424Y-121483333D02*
X26419995Y-122245238D01*
X26419995Y-120911904D02*
X27181900Y-121673809D01*
X24705709Y-122245238D02*
X24705709Y-121197619D01*
X24705709Y-121197619D02*
X24800947Y-121007142D01*
X24800947Y-121007142D02*
X24991423Y-120911904D01*
X24991423Y-120911904D02*
X25372376Y-120911904D01*
X25372376Y-120911904D02*
X25562852Y-121007142D01*
X24705709Y-122150000D02*
X24896185Y-122245238D01*
X24896185Y-122245238D02*
X25372376Y-122245238D01*
X25372376Y-122245238D02*
X25562852Y-122150000D01*
X25562852Y-122150000D02*
X25658090Y-121959523D01*
X25658090Y-121959523D02*
X25658090Y-121769047D01*
X25658090Y-121769047D02*
X25562852Y-121578571D01*
X25562852Y-121578571D02*
X25372376Y-121483333D01*
X25372376Y-121483333D02*
X24896185Y-121483333D01*
X24896185Y-121483333D02*
X24705709Y-121388095D01*
X23753328Y-122245238D02*
X23753328Y-120911904D01*
X23753328Y-120245238D02*
X23848566Y-120340476D01*
X23848566Y-120340476D02*
X23753328Y-120435714D01*
X23753328Y-120435714D02*
X23658090Y-120340476D01*
X23658090Y-120340476D02*
X23753328Y-120245238D01*
X23753328Y-120245238D02*
X23753328Y-120435714D01*
X57943809Y-125485238D02*
X57943809Y-123485238D01*
X57086666Y-125485238D02*
X57086666Y-124437619D01*
X57086666Y-124437619D02*
X57181904Y-124247142D01*
X57181904Y-124247142D02*
X57372380Y-124151904D01*
X57372380Y-124151904D02*
X57658095Y-124151904D01*
X57658095Y-124151904D02*
X57848571Y-124247142D01*
X57848571Y-124247142D02*
X57943809Y-124342380D01*
X56419999Y-124151904D02*
X55658095Y-124151904D01*
X56134285Y-123485238D02*
X56134285Y-125199523D01*
X56134285Y-125199523D02*
X56039047Y-125390000D01*
X56039047Y-125390000D02*
X55848571Y-125485238D01*
X55848571Y-125485238D02*
X55658095Y-125485238D01*
X55277142Y-124151904D02*
X54515238Y-124151904D01*
X54991428Y-123485238D02*
X54991428Y-125199523D01*
X54991428Y-125199523D02*
X54896190Y-125390000D01*
X54896190Y-125390000D02*
X54705714Y-125485238D01*
X54705714Y-125485238D02*
X54515238Y-125485238D01*
X53848571Y-124151904D02*
X53848571Y-126151904D01*
X53848571Y-124247142D02*
X53658095Y-124151904D01*
X53658095Y-124151904D02*
X53277142Y-124151904D01*
X53277142Y-124151904D02*
X53086666Y-124247142D01*
X53086666Y-124247142D02*
X52991428Y-124342380D01*
X52991428Y-124342380D02*
X52896190Y-124532857D01*
X52896190Y-124532857D02*
X52896190Y-125104285D01*
X52896190Y-125104285D02*
X52991428Y-125294761D01*
X52991428Y-125294761D02*
X53086666Y-125390000D01*
X53086666Y-125390000D02*
X53277142Y-125485238D01*
X53277142Y-125485238D02*
X53658095Y-125485238D01*
X53658095Y-125485238D02*
X53848571Y-125390000D01*
X52134285Y-125390000D02*
X51943809Y-125485238D01*
X51943809Y-125485238D02*
X51562857Y-125485238D01*
X51562857Y-125485238D02*
X51372380Y-125390000D01*
X51372380Y-125390000D02*
X51277142Y-125199523D01*
X51277142Y-125199523D02*
X51277142Y-125104285D01*
X51277142Y-125104285D02*
X51372380Y-124913809D01*
X51372380Y-124913809D02*
X51562857Y-124818571D01*
X51562857Y-124818571D02*
X51848571Y-124818571D01*
X51848571Y-124818571D02*
X52039047Y-124723333D01*
X52039047Y-124723333D02*
X52134285Y-124532857D01*
X52134285Y-124532857D02*
X52134285Y-124437619D01*
X52134285Y-124437619D02*
X52039047Y-124247142D01*
X52039047Y-124247142D02*
X51848571Y-124151904D01*
X51848571Y-124151904D02*
X51562857Y-124151904D01*
X51562857Y-124151904D02*
X51372380Y-124247142D01*
X50419999Y-125294761D02*
X50324761Y-125390000D01*
X50324761Y-125390000D02*
X50419999Y-125485238D01*
X50419999Y-125485238D02*
X50515237Y-125390000D01*
X50515237Y-125390000D02*
X50419999Y-125294761D01*
X50419999Y-125294761D02*
X50419999Y-125485238D01*
X50419999Y-124247142D02*
X50324761Y-124342380D01*
X50324761Y-124342380D02*
X50419999Y-124437619D01*
X50419999Y-124437619D02*
X50515237Y-124342380D01*
X50515237Y-124342380D02*
X50419999Y-124247142D01*
X50419999Y-124247142D02*
X50419999Y-124437619D01*
X48039047Y-123390000D02*
X49753332Y-125961428D01*
X45943809Y-123390000D02*
X47658094Y-125961428D01*
X44419999Y-124151904D02*
X44419999Y-125770952D01*
X44419999Y-125770952D02*
X44515237Y-125961428D01*
X44515237Y-125961428D02*
X44610475Y-126056666D01*
X44610475Y-126056666D02*
X44800952Y-126151904D01*
X44800952Y-126151904D02*
X45086666Y-126151904D01*
X45086666Y-126151904D02*
X45277142Y-126056666D01*
X44419999Y-125390000D02*
X44610475Y-125485238D01*
X44610475Y-125485238D02*
X44991428Y-125485238D01*
X44991428Y-125485238D02*
X45181904Y-125390000D01*
X45181904Y-125390000D02*
X45277142Y-125294761D01*
X45277142Y-125294761D02*
X45372380Y-125104285D01*
X45372380Y-125104285D02*
X45372380Y-124532857D01*
X45372380Y-124532857D02*
X45277142Y-124342380D01*
X45277142Y-124342380D02*
X45181904Y-124247142D01*
X45181904Y-124247142D02*
X44991428Y-124151904D01*
X44991428Y-124151904D02*
X44610475Y-124151904D01*
X44610475Y-124151904D02*
X44419999Y-124247142D01*
X43467618Y-125485238D02*
X43467618Y-124151904D01*
X43467618Y-123485238D02*
X43562856Y-123580476D01*
X43562856Y-123580476D02*
X43467618Y-123675714D01*
X43467618Y-123675714D02*
X43372380Y-123580476D01*
X43372380Y-123580476D02*
X43467618Y-123485238D01*
X43467618Y-123485238D02*
X43467618Y-123675714D01*
X42800951Y-124151904D02*
X42039047Y-124151904D01*
X42515237Y-123485238D02*
X42515237Y-125199523D01*
X42515237Y-125199523D02*
X42419999Y-125390000D01*
X42419999Y-125390000D02*
X42229523Y-125485238D01*
X42229523Y-125485238D02*
X42039047Y-125485238D01*
X41372380Y-125485238D02*
X41372380Y-123485238D01*
X40515237Y-125485238D02*
X40515237Y-124437619D01*
X40515237Y-124437619D02*
X40610475Y-124247142D01*
X40610475Y-124247142D02*
X40800951Y-124151904D01*
X40800951Y-124151904D02*
X41086666Y-124151904D01*
X41086666Y-124151904D02*
X41277142Y-124247142D01*
X41277142Y-124247142D02*
X41372380Y-124342380D01*
X38705713Y-124151904D02*
X38705713Y-125485238D01*
X39562856Y-124151904D02*
X39562856Y-125199523D01*
X39562856Y-125199523D02*
X39467618Y-125390000D01*
X39467618Y-125390000D02*
X39277142Y-125485238D01*
X39277142Y-125485238D02*
X38991427Y-125485238D01*
X38991427Y-125485238D02*
X38800951Y-125390000D01*
X38800951Y-125390000D02*
X38705713Y-125294761D01*
X37753332Y-125485238D02*
X37753332Y-123485238D01*
X37753332Y-124247142D02*
X37562856Y-124151904D01*
X37562856Y-124151904D02*
X37181903Y-124151904D01*
X37181903Y-124151904D02*
X36991427Y-124247142D01*
X36991427Y-124247142D02*
X36896189Y-124342380D01*
X36896189Y-124342380D02*
X36800951Y-124532857D01*
X36800951Y-124532857D02*
X36800951Y-125104285D01*
X36800951Y-125104285D02*
X36896189Y-125294761D01*
X36896189Y-125294761D02*
X36991427Y-125390000D01*
X36991427Y-125390000D02*
X37181903Y-125485238D01*
X37181903Y-125485238D02*
X37562856Y-125485238D01*
X37562856Y-125485238D02*
X37753332Y-125390000D01*
X35943808Y-125294761D02*
X35848570Y-125390000D01*
X35848570Y-125390000D02*
X35943808Y-125485238D01*
X35943808Y-125485238D02*
X36039046Y-125390000D01*
X36039046Y-125390000D02*
X35943808Y-125294761D01*
X35943808Y-125294761D02*
X35943808Y-125485238D01*
X34134284Y-125390000D02*
X34324760Y-125485238D01*
X34324760Y-125485238D02*
X34705713Y-125485238D01*
X34705713Y-125485238D02*
X34896189Y-125390000D01*
X34896189Y-125390000D02*
X34991427Y-125294761D01*
X34991427Y-125294761D02*
X35086665Y-125104285D01*
X35086665Y-125104285D02*
X35086665Y-124532857D01*
X35086665Y-124532857D02*
X34991427Y-124342380D01*
X34991427Y-124342380D02*
X34896189Y-124247142D01*
X34896189Y-124247142D02*
X34705713Y-124151904D01*
X34705713Y-124151904D02*
X34324760Y-124151904D01*
X34324760Y-124151904D02*
X34134284Y-124247142D01*
X32991427Y-125485238D02*
X33181903Y-125390000D01*
X33181903Y-125390000D02*
X33277141Y-125294761D01*
X33277141Y-125294761D02*
X33372379Y-125104285D01*
X33372379Y-125104285D02*
X33372379Y-124532857D01*
X33372379Y-124532857D02*
X33277141Y-124342380D01*
X33277141Y-124342380D02*
X33181903Y-124247142D01*
X33181903Y-124247142D02*
X32991427Y-124151904D01*
X32991427Y-124151904D02*
X32705712Y-124151904D01*
X32705712Y-124151904D02*
X32515236Y-124247142D01*
X32515236Y-124247142D02*
X32419998Y-124342380D01*
X32419998Y-124342380D02*
X32324760Y-124532857D01*
X32324760Y-124532857D02*
X32324760Y-125104285D01*
X32324760Y-125104285D02*
X32419998Y-125294761D01*
X32419998Y-125294761D02*
X32515236Y-125390000D01*
X32515236Y-125390000D02*
X32705712Y-125485238D01*
X32705712Y-125485238D02*
X32991427Y-125485238D01*
X31467617Y-125485238D02*
X31467617Y-124151904D01*
X31467617Y-124342380D02*
X31372379Y-124247142D01*
X31372379Y-124247142D02*
X31181903Y-124151904D01*
X31181903Y-124151904D02*
X30896188Y-124151904D01*
X30896188Y-124151904D02*
X30705712Y-124247142D01*
X30705712Y-124247142D02*
X30610474Y-124437619D01*
X30610474Y-124437619D02*
X30610474Y-125485238D01*
X30610474Y-124437619D02*
X30515236Y-124247142D01*
X30515236Y-124247142D02*
X30324760Y-124151904D01*
X30324760Y-124151904D02*
X30039046Y-124151904D01*
X30039046Y-124151904D02*
X29848569Y-124247142D01*
X29848569Y-124247142D02*
X29753331Y-124437619D01*
X29753331Y-124437619D02*
X29753331Y-125485238D01*
X27372379Y-123390000D02*
X29086664Y-125961428D01*
X26705712Y-125485238D02*
X26705712Y-124151904D01*
X26705712Y-124532857D02*
X26610474Y-124342380D01*
X26610474Y-124342380D02*
X26515236Y-124247142D01*
X26515236Y-124247142D02*
X26324760Y-124151904D01*
X26324760Y-124151904D02*
X26134283Y-124151904D01*
X25658093Y-124151904D02*
X25181903Y-125485238D01*
X24705712Y-124151904D02*
X25181903Y-125485238D01*
X25181903Y-125485238D02*
X25372379Y-125961428D01*
X25372379Y-125961428D02*
X25467617Y-126056666D01*
X25467617Y-126056666D02*
X25658093Y-126151904D01*
X23658093Y-125485238D02*
X23848569Y-125390000D01*
X23848569Y-125390000D02*
X23943807Y-125294761D01*
X23943807Y-125294761D02*
X24039045Y-125104285D01*
X24039045Y-125104285D02*
X24039045Y-124532857D01*
X24039045Y-124532857D02*
X23943807Y-124342380D01*
X23943807Y-124342380D02*
X23848569Y-124247142D01*
X23848569Y-124247142D02*
X23658093Y-124151904D01*
X23658093Y-124151904D02*
X23372378Y-124151904D01*
X23372378Y-124151904D02*
X23181902Y-124247142D01*
X23181902Y-124247142D02*
X23086664Y-124342380D01*
X23086664Y-124342380D02*
X22991426Y-124532857D01*
X22991426Y-124532857D02*
X22991426Y-125104285D01*
X22991426Y-125104285D02*
X23086664Y-125294761D01*
X23086664Y-125294761D02*
X23181902Y-125390000D01*
X23181902Y-125390000D02*
X23372378Y-125485238D01*
X23372378Y-125485238D02*
X23658093Y-125485238D01*
X22134283Y-125485238D02*
X22134283Y-124151904D01*
X22134283Y-124342380D02*
X22039045Y-124247142D01*
X22039045Y-124247142D02*
X21848569Y-124151904D01*
X21848569Y-124151904D02*
X21562854Y-124151904D01*
X21562854Y-124151904D02*
X21372378Y-124247142D01*
X21372378Y-124247142D02*
X21277140Y-124437619D01*
X21277140Y-124437619D02*
X21277140Y-125485238D01*
X21277140Y-124437619D02*
X21181902Y-124247142D01*
X21181902Y-124247142D02*
X20991426Y-124151904D01*
X20991426Y-124151904D02*
X20705712Y-124151904D01*
X20705712Y-124151904D02*
X20515235Y-124247142D01*
X20515235Y-124247142D02*
X20419997Y-124437619D01*
X20419997Y-124437619D02*
X20419997Y-125485238D01*
X18610473Y-124151904D02*
X18610473Y-125485238D01*
X19467616Y-124151904D02*
X19467616Y-125199523D01*
X19467616Y-125199523D02*
X19372378Y-125390000D01*
X19372378Y-125390000D02*
X19181902Y-125485238D01*
X19181902Y-125485238D02*
X18896187Y-125485238D01*
X18896187Y-125485238D02*
X18705711Y-125390000D01*
X18705711Y-125390000D02*
X18610473Y-125294761D01*
X17658092Y-125485238D02*
X17658092Y-123485238D01*
X17467616Y-124723333D02*
X16896187Y-125485238D01*
X16896187Y-124151904D02*
X17658092Y-124913809D01*
D12*
%TO.P,D19,1,K*%
%TO.N,BANK1*%
X132080000Y-50800000D03*
D13*
%TO.P,D19,2,A*%
%TO.N,Net-(D19-A)*%
X132080000Y-53340000D03*
%TD*%
D14*
%TO.P,C12,1*%
%TO.N,Net-(C12-Pad1)*%
X15240000Y-17780000D03*
%TO.P,C12,2*%
%TO.N,GND*%
X10240000Y-17780000D03*
%TD*%
%TO.P,C7,1*%
%TO.N,GND*%
X35560000Y-36830000D03*
%TO.P,C7,2*%
%TO.N,+5V*%
X30560000Y-36830000D03*
%TD*%
D12*
%TO.P,D20,1,K*%
%TO.N,BANK2*%
X127000000Y-50800000D03*
D13*
%TO.P,D20,2,A*%
%TO.N,Net-(D20-A)*%
X127000000Y-53340000D03*
%TD*%
D14*
%TO.P,R5,1*%
%TO.N,Net-(D5-A)*%
X172720000Y-7620000D03*
D15*
%TO.P,R5,2*%
%TO.N,VBUS*%
X172720000Y-15240000D03*
%TD*%
D16*
%TO.P,D28,1,K*%
%TO.N,Net-(D28-K)*%
X165100000Y-83820000D03*
D15*
%TO.P,D28,2,A*%
%TO.N,GND*%
X165100000Y-86360000D03*
%TD*%
D14*
%TO.P,R26,1*%
%TO.N,BANK1*%
X177800000Y-73660000D03*
D15*
%TO.P,R26,2*%
%TO.N,Net-(D23-K)*%
X177800000Y-81280000D03*
%TD*%
D12*
%TO.P,D9,1,K*%
%TO.N,Net-(D9-K)*%
X101600000Y-40640000D03*
D13*
%TO.P,D9,2,A*%
%TO.N,Net-(D9-A)*%
X101600000Y-43180000D03*
%TD*%
D14*
%TO.P,R33,1*%
%TO.N,Net-(U20-I{slash}O2)*%
X114300000Y-114300000D03*
D15*
%TO.P,R33,2*%
%TO.N,Net-(D31-K)*%
X121920000Y-114300000D03*
%TD*%
D16*
%TO.P,D1,1,K*%
%TO.N,Net-(D1-K)*%
X162560000Y-60960000D03*
D15*
%TO.P,D1,2,A*%
%TO.N,GND*%
X165100000Y-60960000D03*
%TD*%
D14*
%TO.P,R12,1*%
%TO.N,Net-(C4-Pad1)*%
X170180000Y-27940000D03*
D15*
%TO.P,R12,2*%
%TO.N,-10V*%
X162560000Y-27940000D03*
%TD*%
D14*
%TO.P,C15,1*%
%TO.N,+5V*%
X96520000Y-13970000D03*
%TO.P,C15,2*%
%TO.N,-10V*%
X96520000Y-8970000D03*
%TD*%
%TO.P,C1,1*%
%TO.N,-10V*%
X149780000Y-5080000D03*
%TO.P,C1,2*%
%TO.N,+5V*%
X144780000Y-5080000D03*
%TD*%
%TO.P,R2,1*%
%TO.N,RAM2-1*%
X152400000Y-63500000D03*
D15*
%TO.P,R2,2*%
%TO.N,Net-(D2-K)*%
X160020000Y-63500000D03*
%TD*%
D14*
%TO.P,R37,1*%
%TO.N,Net-(D35-K)*%
X22860000Y-83820000D03*
D15*
%TO.P,R37,2*%
%TO.N,Net-(D37-A)*%
X22860000Y-91440000D03*
%TD*%
D12*
%TO.P,D13,1,K*%
%TO.N,RAM2-3*%
X121920000Y-40640000D03*
D13*
%TO.P,D13,2,A*%
%TO.N,Net-(D13-A)*%
X121920000Y-43180000D03*
%TD*%
D16*
%TO.P,D4,1,K*%
%TO.N,Net-(D4-K)*%
X162560000Y-68580000D03*
D15*
%TO.P,D4,2,A*%
%TO.N,GND*%
X165100000Y-68580000D03*
%TD*%
D16*
%TO.P,SW3,1*%
%TO.N,ROM_P1*%
X43180000Y-109220000D03*
D15*
%TO.P,SW3,2*%
%TO.N,ROM_P2*%
X45720000Y-109220000D03*
%TO.P,SW3,3*%
%TO.N,ROM_P26*%
X48260000Y-109220000D03*
%TO.P,SW3,4*%
%TO.N,ROM_P27*%
X50800000Y-109220000D03*
%TO.P,SW3,5*%
%TO.N,GND*%
X50800000Y-101600000D03*
%TO.P,SW3,6*%
%TO.N,+5V*%
X48260000Y-101600000D03*
%TO.P,SW3,7*%
X45720000Y-101600000D03*
%TO.P,SW3,8*%
X43180000Y-101600000D03*
%TD*%
D14*
%TO.P,R20,1*%
%TO.N,BANK7*%
X162560000Y-73660000D03*
D15*
%TO.P,R20,2*%
%TO.N,Net-(D29-K)*%
X162560000Y-81280000D03*
%TD*%
D12*
%TO.P,D17,1,K*%
%TO.N,BANK7*%
X101600000Y-50800000D03*
D13*
%TO.P,D17,2,A*%
%TO.N,Net-(D17-A)*%
X101600000Y-53340000D03*
%TD*%
D14*
%TO.P,C5,1*%
%TO.N,+5V*%
X35560000Y-8970000D03*
%TO.P,C5,2*%
%TO.N,GND*%
X35560000Y-13970000D03*
%TD*%
D12*
%TO.P,D38,1,K*%
%TO.N,-10V*%
X33020000Y-96520000D03*
D13*
%TO.P,D38,2,A*%
%TO.N,Net-(D38-A)*%
X33020000Y-93980000D03*
%TD*%
D14*
%TO.P,C17,1*%
%TO.N,+5V*%
X96520000Y-29210000D03*
%TO.P,C17,2*%
%TO.N,-10V*%
X96520000Y-24210000D03*
%TD*%
%TO.P,R13,1*%
%TO.N,Net-(U12-EP)*%
X53340000Y-34290000D03*
D15*
%TO.P,R13,2*%
%TO.N,+5V*%
X60960000Y-34290000D03*
%TD*%
D16*
%TO.P,D24,1,K*%
%TO.N,Net-(D24-K)*%
X175260000Y-83820000D03*
D15*
%TO.P,D24,2,A*%
%TO.N,GND*%
X175260000Y-86360000D03*
%TD*%
D14*
%TO.P,C13,1*%
%TO.N,+5V*%
X55880000Y-48260000D03*
%TO.P,C13,2*%
%TO.N,-10V*%
X55880000Y-43260000D03*
%TD*%
D16*
%TO.P,U14,1*%
%TO.N,Net-(U20-FL)*%
X116840000Y-88900000D03*
D15*
%TO.P,U14,2*%
%TO.N,Net-(U14-Pad2)*%
X119380000Y-88900000D03*
%TO.P,U14,3*%
%TO.N,~{WE_OPA}*%
X121920000Y-88900000D03*
%TO.P,U14,4*%
%TO.N,Net-(U13-Pad4)*%
X124460000Y-88900000D03*
%TO.P,U14,5*%
%TO.N,Net-(U14-Pad2)*%
X127000000Y-88900000D03*
%TO.P,U14,6*%
%TO.N,~{WE_OPR}*%
X129540000Y-88900000D03*
%TO.P,U14,7,GND*%
%TO.N,GND*%
X132080000Y-88900000D03*
%TO.P,U14,8*%
%TO.N,Net-(U14-Pad8)*%
X132080000Y-81280000D03*
%TO.P,U14,9*%
%TO.N,C0*%
X129540000Y-81280000D03*
%TO.P,U14,10*%
%TO.N,C1*%
X127000000Y-81280000D03*
%TO.P,U14,11*%
%TO.N,Net-(U14-Pad11)*%
X124460000Y-81280000D03*
%TO.P,U14,12*%
%TO.N,C2*%
X121920000Y-81280000D03*
%TO.P,U14,13*%
%TO.N,C3*%
X119380000Y-81280000D03*
%TO.P,U14,14,VCC*%
%TO.N,+5V*%
X116840000Y-81280000D03*
%TD*%
D14*
%TO.P,R23,1*%
%TO.N,BANK4*%
X170180000Y-73660000D03*
D15*
%TO.P,R23,2*%
%TO.N,Net-(D26-K)*%
X170180000Y-81280000D03*
%TD*%
D14*
%TO.P,R6,1*%
%TO.N,Net-(J1-Pin_4)*%
X160020000Y-20320000D03*
D15*
%TO.P,R6,2*%
%TO.N,Net-(U1-K)*%
X152400000Y-20320000D03*
%TD*%
D12*
%TO.P,D15,1,K*%
%TO.N,BANK5*%
X111760000Y-50800000D03*
D13*
%TO.P,D15,2,A*%
%TO.N,Net-(D15-A)*%
X111760000Y-53340000D03*
%TD*%
D17*
%TO.P,J5,1,Pin_1*%
%TO.N,GND*%
X12700000Y-78740000D03*
%TD*%
D18*
%TO.P,C4,1*%
%TO.N,Net-(C4-Pad1)*%
X169545000Y-32385000D03*
D19*
%TO.P,C4,2*%
%TO.N,-10V*%
X168045000Y-32385000D03*
%TD*%
D20*
%TO.P,U4,1,D0*%
%TO.N,/ProgramMemory/D0*%
X68580000Y-50800000D03*
D21*
%TO.P,U4,2,D1*%
%TO.N,/ProgramMemory/D1*%
X71120000Y-50800000D03*
%TO.P,U4,3,D2*%
%TO.N,/ProgramMemory/D2*%
X73660000Y-50800000D03*
%TO.P,U4,4,D3*%
%TO.N,/ProgramMemory/D3*%
X76200000Y-50800000D03*
%TO.P,U4,5,Vss*%
%TO.N,+5V*%
X78740000Y-50800000D03*
%TO.P,U4,6,CLK1*%
%TO.N,/ClockGen/CLK1*%
X81280000Y-50800000D03*
%TO.P,U4,7,CLK2*%
%TO.N,/ClockGen/CLK2*%
X83820000Y-50800000D03*
%TO.P,U4,8,SYNC*%
%TO.N,/ProgramMemory/SYNC*%
X86360000Y-50800000D03*
%TO.P,U4,9,RESET*%
%TO.N,/ProgramMemory/RESET*%
X86360000Y-43180000D03*
%TO.P,U4,10,TEST*%
%TO.N,Net-(U4-TEST)*%
X83820000Y-43180000D03*
%TO.P,U4,11,CMROM*%
%TO.N,/ProgramMemory/CM*%
X81280000Y-43180000D03*
%TO.P,U4,12,Vdd*%
%TO.N,-10V*%
X78740000Y-43180000D03*
%TO.P,U4,13,CMRAM3*%
%TO.N,unconnected-(U4-CMRAM3-Pad13)*%
X76200000Y-43180000D03*
%TO.P,U4,14,CMRAM2*%
%TO.N,unconnected-(U4-CMRAM2-Pad14)*%
X73660000Y-43180000D03*
%TO.P,U4,15,CMRAM1*%
%TO.N,CMRAM1*%
X71120000Y-43180000D03*
%TO.P,U4,16,CMRAM0*%
%TO.N,CMRAM0*%
X68580000Y-43180000D03*
%TD*%
D14*
%TO.P,R31,1*%
%TO.N,GND*%
X38100000Y-96520000D03*
D15*
%TO.P,R31,2*%
%TO.N,ROM_P1*%
X45720000Y-96520000D03*
%TD*%
D22*
%TO.P,J2,1,Pin_1*%
%TO.N,CMRAM0*%
X127000000Y-7620000D03*
D23*
%TO.P,J2,2,Pin_2*%
%TO.N,CM_RAM23*%
X127000000Y-10160000D03*
%TO.P,J2,3,Pin_3*%
%TO.N,CMRAM1*%
X127000000Y-12700000D03*
%TD*%
D16*
%TO.P,D2,1,K*%
%TO.N,Net-(D2-K)*%
X162560000Y-63500000D03*
D15*
%TO.P,D2,2,A*%
%TO.N,GND*%
X165100000Y-63500000D03*
%TD*%
D16*
%TO.P,D26,1,K*%
%TO.N,Net-(D26-K)*%
X170180000Y-83820000D03*
D15*
%TO.P,D26,2,A*%
%TO.N,GND*%
X170180000Y-86360000D03*
%TD*%
D16*
%TO.P,U8,1,D0*%
%TO.N,/ProgramMemory/D0*%
X101600000Y-30480000D03*
D15*
%TO.P,U8,2,D1*%
%TO.N,/ProgramMemory/D1*%
X104140000Y-30480000D03*
%TO.P,U8,3,D2*%
%TO.N,/ProgramMemory/D2*%
X106680000Y-30480000D03*
%TO.P,U8,4,D3*%
%TO.N,/ProgramMemory/D3*%
X109220000Y-30480000D03*
%TO.P,U8,5,Vss*%
%TO.N,+5V*%
X111760000Y-30480000D03*
%TO.P,U8,6,CLK1*%
%TO.N,/ClockGen/CLK1*%
X114300000Y-30480000D03*
%TO.P,U8,7,CLK2*%
%TO.N,/ClockGen/CLK2*%
X116840000Y-30480000D03*
%TO.P,U8,8,SYNC*%
%TO.N,/ProgramMemory/SYNC*%
X119380000Y-30480000D03*
%TO.P,U8,9,RESET*%
%TO.N,/ProgramMemory/RESET*%
X119380000Y-22860000D03*
%TO.P,U8,10,P0*%
%TO.N,+5V*%
X116840000Y-22860000D03*
%TO.P,U8,11,CM*%
%TO.N,CMRAM0*%
X114300000Y-22860000D03*
%TO.P,U8,12,Vdd*%
%TO.N,-10V*%
X111760000Y-22860000D03*
%TO.P,U8,13,O3*%
%TO.N,BANK3*%
X109220000Y-22860000D03*
%TO.P,U8,14,O2*%
%TO.N,BANK2*%
X106680000Y-22860000D03*
%TO.P,U8,15,O1*%
%TO.N,BANK1*%
X104140000Y-22860000D03*
%TO.P,U8,16,O0*%
%TO.N,BANK0*%
X101600000Y-22860000D03*
%TD*%
D14*
%TO.P,R22,1*%
%TO.N,BANK5*%
X167640000Y-73660000D03*
D15*
%TO.P,R22,2*%
%TO.N,Net-(D27-K)*%
X167640000Y-81280000D03*
%TD*%
D12*
%TO.P,D7,1,K*%
%TO.N,Net-(D7-K)*%
X111760000Y-40640000D03*
D13*
%TO.P,D7,2,A*%
%TO.N,Net-(D7-A)*%
X111760000Y-43180000D03*
%TD*%
D14*
%TO.P,R38,1*%
%TO.N,GND*%
X27940000Y-83820000D03*
D15*
%TO.P,R38,2*%
%TO.N,Net-(D38-A)*%
X27940000Y-91440000D03*
%TD*%
D14*
%TO.P,C9,1*%
%TO.N,Net-(C9-Pad1)*%
X35560000Y-45720000D03*
%TO.P,C9,2*%
%TO.N,Net-(U11-IN_B)*%
X30560000Y-45720000D03*
%TD*%
D16*
%TO.P,D3,1,K*%
%TO.N,Net-(D3-K)*%
X162560000Y-66040000D03*
D15*
%TO.P,D3,2,A*%
%TO.N,GND*%
X165100000Y-66040000D03*
%TD*%
D16*
%TO.P,U3,1*%
%TO.N,Net-(U3-Pad1)*%
X132080000Y-30480000D03*
D15*
%TO.P,U3,2*%
X134620000Y-30480000D03*
%TO.P,U3,3*%
%TO.N,/ProgramMemory/RESET*%
X137160000Y-30480000D03*
%TO.P,U3,4*%
%TO.N,Net-(U3-Pad1)*%
X139700000Y-30480000D03*
%TO.P,U3,5*%
%TO.N,Net-(C4-Pad1)*%
X142240000Y-30480000D03*
%TO.P,U3,6*%
X144780000Y-30480000D03*
%TO.P,U3,7,Vss*%
%TO.N,-10V*%
X147320000Y-30480000D03*
%TO.P,U3,8*%
%TO.N,Net-(D6-K)*%
X147320000Y-22860000D03*
%TO.P,U3,9*%
X144780000Y-22860000D03*
%TO.P,U3,10*%
%TO.N,Net-(R7-Pad1)*%
X142240000Y-22860000D03*
%TO.P,U3,11*%
%TO.N,Net-(U4-TEST)*%
X139700000Y-22860000D03*
%TO.P,U3,12*%
%TO.N,Net-(U1-Vo)*%
X137160000Y-22860000D03*
%TO.P,U3,13*%
%TO.N,Net-(C3-Pad1)*%
X134620000Y-22860000D03*
%TO.P,U3,14,Vdd*%
%TO.N,+5V*%
X132080000Y-22860000D03*
%TD*%
D16*
%TO.P,U5,1,D0*%
%TO.N,/ProgramMemory/D0*%
X68580000Y-15240000D03*
D15*
%TO.P,U5,2,D1*%
%TO.N,/ProgramMemory/D1*%
X71120000Y-15240000D03*
%TO.P,U5,3,D2*%
%TO.N,/ProgramMemory/D2*%
X73660000Y-15240000D03*
%TO.P,U5,4,D3*%
%TO.N,/ProgramMemory/D3*%
X76200000Y-15240000D03*
%TO.P,U5,5,Vss*%
%TO.N,+5V*%
X78740000Y-15240000D03*
%TO.P,U5,6,CLK1*%
%TO.N,/ClockGen/CLK1*%
X81280000Y-15240000D03*
%TO.P,U5,7,CLK2*%
%TO.N,/ClockGen/CLK2*%
X83820000Y-15240000D03*
%TO.P,U5,8,SYNC*%
%TO.N,/ProgramMemory/SYNC*%
X86360000Y-15240000D03*
%TO.P,U5,9,RESET*%
%TO.N,/ProgramMemory/RESET*%
X86360000Y-7620000D03*
%TO.P,U5,10,P0*%
%TO.N,-10V*%
X83820000Y-7620000D03*
%TO.P,U5,11,CM*%
%TO.N,CM_RAM23*%
X81280000Y-7620000D03*
%TO.P,U5,12,Vdd*%
%TO.N,-10V*%
X78740000Y-7620000D03*
%TO.P,U5,13,O3*%
%TO.N,Net-(D9-K)*%
X76200000Y-7620000D03*
%TO.P,U5,14,O2*%
%TO.N,Net-(D8-K)*%
X73660000Y-7620000D03*
%TO.P,U5,15,O1*%
%TO.N,Net-(D7-K)*%
X71120000Y-7620000D03*
%TO.P,U5,16,O0*%
%TO.N,Net-(D6-K)*%
X68580000Y-7620000D03*
%TD*%
D16*
%TO.P,D25,1,K*%
%TO.N,Net-(D25-K)*%
X172720000Y-83820000D03*
D15*
%TO.P,D25,2,A*%
%TO.N,GND*%
X172720000Y-86360000D03*
%TD*%
D14*
%TO.P,R1,1*%
%TO.N,RAM2-0*%
X152400000Y-60960000D03*
D15*
%TO.P,R1,2*%
%TO.N,Net-(D1-K)*%
X160020000Y-60960000D03*
%TD*%
D14*
%TO.P,R17,1*%
%TO.N,Net-(C10-Pad2)*%
X27940000Y-27940000D03*
D15*
%TO.P,R17,2*%
%TO.N,Net-(R17-Pad2)*%
X27940000Y-20320000D03*
%TD*%
D14*
%TO.P,C2,1*%
%TO.N,GND2*%
X165020000Y-5080000D03*
%TO.P,C2,2*%
%TO.N,VBUS*%
X160020000Y-5080000D03*
%TD*%
D16*
%TO.P,D23,1,K*%
%TO.N,Net-(D23-K)*%
X177800000Y-83820000D03*
D15*
%TO.P,D23,2,A*%
%TO.N,GND*%
X177800000Y-86360000D03*
%TD*%
D14*
%TO.P,R18,1*%
%TO.N,-10V*%
X48260000Y-43180000D03*
D15*
%TO.P,R18,2*%
%TO.N,Net-(U11-OUT_A)*%
X40640000Y-43180000D03*
%TD*%
D13*
%TO.P,SW4,*%
%TO.N,*%
X27940000Y-114300000D03*
X27940000Y-104140000D03*
D12*
%TO.P,SW4,1,A*%
%TO.N,+5V*%
X25400000Y-111760000D03*
D13*
%TO.P,SW4,2,B*%
%TO.N,Net-(D35-K)*%
X25400000Y-109260000D03*
%TO.P,SW4,3,C*%
%TO.N,unconnected-(SW4A-C-Pad3)*%
X25400000Y-106760000D03*
%TO.P,SW4,4,A*%
%TO.N,-10V*%
X30480000Y-111760000D03*
%TO.P,SW4,5,B*%
%TO.N,Net-(D36-A)*%
X30480000Y-109260000D03*
%TO.P,SW4,6,C*%
%TO.N,unconnected-(SW4B-C-Pad6)*%
X30480000Y-106760000D03*
%TD*%
D22*
%TO.P,J1,1,Pin_1*%
%TO.N,GND2*%
X180340000Y-20320000D03*
D23*
%TO.P,J1,2,Pin_2*%
%TO.N,unconnected-(J1-Pin_2-Pad2)*%
X180340000Y-22860000D03*
%TO.P,J1,3,Pin_3*%
%TO.N,VBUS*%
X180340000Y-25400000D03*
%TO.P,J1,4,Pin_4*%
%TO.N,Net-(J1-Pin_4)*%
X180340000Y-27940000D03*
%TO.P,J1,5,Pin_5*%
%TO.N,Net-(J1-Pin_5)*%
X180340000Y-30480000D03*
%TO.P,J1,6,Pin_6*%
%TO.N,unconnected-(J1-Pin_6-Pad6)*%
X180340000Y-33020000D03*
%TD*%
D16*
%TO.P,U15,1*%
%TO.N,Net-(U14-Pad2)*%
X116840000Y-76200000D03*
D15*
%TO.P,U15,2*%
%TO.N,Net-(U19-G2)*%
X119380000Y-76200000D03*
%TO.P,U15,3*%
%TO.N,Net-(U19-G1)*%
X121920000Y-76200000D03*
%TO.P,U15,4*%
%TO.N,unconnected-(U15-Pad4)*%
X124460000Y-76200000D03*
%TO.P,U15,5*%
%TO.N,+5V*%
X127000000Y-76200000D03*
%TO.P,U15,6*%
X129540000Y-76200000D03*
%TO.P,U15,7,GND*%
%TO.N,GND*%
X132080000Y-76200000D03*
%TO.P,U15,8*%
%TO.N,Net-(U14-Pad8)*%
X132080000Y-68580000D03*
%TO.P,U15,9*%
%TO.N,Net-(U14-Pad11)*%
X129540000Y-68580000D03*
%TO.P,U15,10*%
%TO.N,~{CS_ROM}*%
X127000000Y-68580000D03*
%TO.P,U15,11*%
%TO.N,+5V*%
X124460000Y-68580000D03*
%TO.P,U15,12*%
X121920000Y-68580000D03*
%TO.P,U15,13*%
%TO.N,unconnected-(U15-Pad13)*%
X119380000Y-68580000D03*
%TO.P,U15,14,VCC*%
%TO.N,+5V*%
X116840000Y-68580000D03*
%TD*%
D16*
%TO.P,U17,1,A0*%
%TO.N,Net-(U16-A0)*%
X147320000Y-104140000D03*
D15*
%TO.P,U17,2,A1*%
%TO.N,Net-(U16-A1)*%
X149860000Y-104140000D03*
%TO.P,U17,3,A2*%
%TO.N,Net-(U16-A2)*%
X152400000Y-104140000D03*
%TO.P,U17,4,A3*%
%TO.N,Net-(U16-A3)*%
X154940000Y-104140000D03*
%TO.P,U17,5,A4*%
%TO.N,Net-(U16-A4)*%
X157480000Y-104140000D03*
%TO.P,U17,6,A5*%
%TO.N,Net-(U16-A5)*%
X160020000Y-104140000D03*
%TO.P,U17,7,A6*%
%TO.N,Net-(U16-A6)*%
X162560000Y-104140000D03*
%TO.P,U17,8,A7*%
%TO.N,Net-(U16-A7)*%
X165100000Y-104140000D03*
%TO.P,U17,9,A8*%
%TO.N,Net-(D22-K)*%
X167640000Y-104140000D03*
%TO.P,U17,10,A9*%
%TO.N,Net-(D23-K)*%
X170180000Y-104140000D03*
%TO.P,U17,11,A10*%
%TO.N,Net-(D24-K)*%
X172720000Y-104140000D03*
%TO.P,U17,12,~{CS}*%
%TO.N,~{CS_RAM}*%
X175260000Y-104140000D03*
%TO.P,U17,13,~{OE}*%
%TO.N,~{OE}*%
X177800000Y-104140000D03*
%TO.P,U17,14,Vss(GND)*%
%TO.N,GND*%
X180340000Y-104140000D03*
%TO.P,U17,15,~{WE}*%
%TO.N,~{WE_OPA}*%
X180340000Y-93980000D03*
%TO.P,U17,16,I/O4*%
%TO.N,Net-(U16-D3)*%
X177800000Y-93980000D03*
%TO.P,U17,17,I/O3*%
%TO.N,Net-(U16-D2)*%
X175260000Y-93980000D03*
%TO.P,U17,18,I/O2*%
%TO.N,Net-(U16-D1)*%
X172720000Y-93980000D03*
%TO.P,U17,19,I/O1*%
%TO.N,Net-(U16-D0)*%
X170180000Y-93980000D03*
%TO.P,U17,20,NC*%
%TO.N,unconnected-(U17-NC-Pad20)*%
X167640000Y-93980000D03*
%TO.P,U17,21,A11*%
%TO.N,Net-(D25-K)*%
X165100000Y-93980000D03*
%TO.P,U17,22,A12*%
%TO.N,Net-(D26-K)*%
X162560000Y-93980000D03*
%TO.P,U17,23,A13*%
%TO.N,Net-(D27-K)*%
X160020000Y-93980000D03*
%TO.P,U17,24,A14*%
%TO.N,Net-(D28-K)*%
X157480000Y-93980000D03*
%TO.P,U17,25,A15*%
%TO.N,Net-(D29-K)*%
X154940000Y-93980000D03*
%TO.P,U17,26,A16*%
%TO.N,GND*%
X152400000Y-93980000D03*
%TO.P,U17,27,A17*%
X149860000Y-93980000D03*
%TO.P,U17,28,Vcc*%
%TO.N,+5V*%
X147320000Y-93980000D03*
%TD*%
D14*
%TO.P,R11,1*%
%TO.N,Net-(R11-Pad1)*%
X170180000Y-25400000D03*
D15*
%TO.P,R11,2*%
%TO.N,Net-(C4-Pad1)*%
X162560000Y-25400000D03*
%TD*%
D12*
%TO.P,D11,1,K*%
%TO.N,RAM2-1*%
X132080000Y-40640000D03*
D13*
%TO.P,D11,2,A*%
%TO.N,Net-(D11-A)*%
X132080000Y-43180000D03*
%TD*%
D14*
%TO.P,R36,1*%
%TO.N,+5V*%
X25400000Y-83820000D03*
D15*
%TO.P,R36,2*%
%TO.N,Net-(D34-A)*%
X25400000Y-91440000D03*
%TD*%
D14*
%TO.P,C14,1*%
%TO.N,+5V*%
X63500000Y-13890000D03*
%TO.P,C14,2*%
%TO.N,-10V*%
X63500000Y-8890000D03*
%TD*%
%TO.P,R10,1*%
%TO.N,+5V*%
X170180000Y-22860000D03*
D15*
%TO.P,R10,2*%
%TO.N,Net-(C4-Pad1)*%
X162560000Y-22860000D03*
%TD*%
D14*
%TO.P,C20,1*%
%TO.N,+5V*%
X142240000Y-96520000D03*
%TO.P,C20,2*%
%TO.N,GND*%
X142240000Y-101520000D03*
%TD*%
D16*
%TO.P,RN2,1,common*%
%TO.N,+5V*%
X137160000Y-60960000D03*
D15*
%TO.P,RN2,2,R1*%
%TO.N,Net-(D10-A)*%
X134620000Y-60960000D03*
%TO.P,RN2,3,R2*%
%TO.N,Net-(D11-A)*%
X132080000Y-60960000D03*
%TO.P,RN2,4,R3*%
%TO.N,Net-(D12-A)*%
X129540000Y-60960000D03*
%TO.P,RN2,5,R4*%
%TO.N,Net-(D13-A)*%
X127000000Y-60960000D03*
%TD*%
D16*
%TO.P,U10,1*%
%TO.N,Net-(R17-Pad2)*%
X40635000Y-15240000D03*
D15*
%TO.P,U10,2*%
X43175000Y-15240000D03*
%TO.P,U10,3*%
%TO.N,Net-(U12-CLOCK)*%
X45715000Y-15240000D03*
%TO.P,U10,4*%
%TO.N,Net-(U12-QB)*%
X48255000Y-15240000D03*
%TO.P,U10,5*%
%TO.N,Net-(U12-QC)*%
X50795000Y-15240000D03*
%TO.P,U10,6*%
%TO.N,Net-(U12-LOAD)*%
X53335000Y-15240000D03*
%TO.P,U10,7,GND*%
%TO.N,GND*%
X55875000Y-15240000D03*
%TO.P,U10,8*%
%TO.N,Net-(U10-Pad8)*%
X55875000Y-7620000D03*
%TO.P,U10,9*%
%TO.N,Net-(U12-QC)*%
X53335000Y-7620000D03*
%TO.P,U10,10*%
%TO.N,Net-(U10-Pad10)*%
X50795000Y-7620000D03*
%TO.P,U10,11*%
%TO.N,Net-(U10-Pad11)*%
X48255000Y-7620000D03*
%TO.P,U10,12*%
%TO.N,Net-(U10-Pad10)*%
X45715000Y-7620000D03*
%TO.P,U10,13*%
%TO.N,Net-(U10-Pad13)*%
X43175000Y-7620000D03*
%TO.P,U10,14,VCC*%
%TO.N,+5V*%
X40635000Y-7620000D03*
%TD*%
D16*
%TO.P,D22,1,K*%
%TO.N,Net-(D22-K)*%
X180340000Y-83820000D03*
D15*
%TO.P,D22,2,A*%
%TO.N,GND*%
X180340000Y-86360000D03*
%TD*%
D16*
%TO.P,D31,1,K*%
%TO.N,Net-(D31-K)*%
X124460000Y-114300000D03*
D15*
%TO.P,D31,2,A*%
%TO.N,GND*%
X127000000Y-114300000D03*
%TD*%
D16*
%TO.P,D27,1,K*%
%TO.N,Net-(D27-K)*%
X167640000Y-83820000D03*
D15*
%TO.P,D27,2,A*%
%TO.N,GND*%
X167640000Y-86360000D03*
%TD*%
D14*
%TO.P,R24,1*%
%TO.N,BANK3*%
X172720000Y-73660000D03*
D15*
%TO.P,R24,2*%
%TO.N,Net-(D25-K)*%
X172720000Y-81280000D03*
%TD*%
D14*
%TO.P,R16,1*%
%TO.N,Net-(C12-Pad1)*%
X12700000Y-20320000D03*
D15*
%TO.P,R16,2*%
%TO.N,Net-(C10-Pad1)*%
X12700000Y-27940000D03*
%TD*%
D14*
%TO.P,R15,1*%
%TO.N,Net-(U11-OUT_B)*%
X40640000Y-45720000D03*
D15*
%TO.P,R15,2*%
%TO.N,/ClockGen/CLK2*%
X48260000Y-45720000D03*
%TD*%
D14*
%TO.P,R29,1*%
%TO.N,GND*%
X38100000Y-91440000D03*
D15*
%TO.P,R29,2*%
%TO.N,ROM_P26*%
X45720000Y-91440000D03*
%TD*%
D14*
%TO.P,R3,1*%
%TO.N,RAM2-2*%
X152400000Y-66040000D03*
D15*
%TO.P,R3,2*%
%TO.N,Net-(D3-K)*%
X160020000Y-66040000D03*
%TD*%
D16*
%TO.P,U18,1,A0*%
%TO.N,Net-(U16-A0)*%
X147320000Y-116840000D03*
D15*
%TO.P,U18,2,A1*%
%TO.N,Net-(U16-A1)*%
X149860000Y-116840000D03*
%TO.P,U18,3,A2*%
%TO.N,Net-(U16-A2)*%
X152400000Y-116840000D03*
%TO.P,U18,4,A3*%
%TO.N,Net-(U16-A3)*%
X154940000Y-116840000D03*
%TO.P,U18,5,A4*%
%TO.N,Net-(U16-A4)*%
X157480000Y-116840000D03*
%TO.P,U18,6,A5*%
%TO.N,Net-(U16-A5)*%
X160020000Y-116840000D03*
%TO.P,U18,7,A6*%
%TO.N,Net-(U16-A6)*%
X162560000Y-116840000D03*
%TO.P,U18,8,A7*%
%TO.N,Net-(U16-A7)*%
X165100000Y-116840000D03*
%TO.P,U18,9,A8*%
%TO.N,Net-(D22-K)*%
X167640000Y-116840000D03*
%TO.P,U18,10,A9*%
%TO.N,Net-(D23-K)*%
X170180000Y-116840000D03*
%TO.P,U18,11,A10*%
%TO.N,Net-(D24-K)*%
X172720000Y-116840000D03*
%TO.P,U18,12,~{CS}*%
%TO.N,~{CS_RAM}*%
X175260000Y-116840000D03*
%TO.P,U18,13,~{OE}*%
%TO.N,~{OE}*%
X177800000Y-116840000D03*
%TO.P,U18,14,Vss(GND)*%
%TO.N,GND*%
X180340000Y-116840000D03*
%TO.P,U18,15,~{WE}*%
%TO.N,~{WE_OPR}*%
X180340000Y-106680000D03*
%TO.P,U18,16,I/O4*%
%TO.N,Net-(U16-D7)*%
X177800000Y-106680000D03*
%TO.P,U18,17,I/O3*%
%TO.N,Net-(U16-D6)*%
X175260000Y-106680000D03*
%TO.P,U18,18,I/O2*%
%TO.N,Net-(U16-D5)*%
X172720000Y-106680000D03*
%TO.P,U18,19,I/O1*%
%TO.N,Net-(U16-D4)*%
X170180000Y-106680000D03*
%TO.P,U18,20,NC*%
%TO.N,unconnected-(U18-NC-Pad20)*%
X167640000Y-106680000D03*
%TO.P,U18,21,A11*%
%TO.N,Net-(D25-K)*%
X165100000Y-106680000D03*
%TO.P,U18,22,A12*%
%TO.N,Net-(D26-K)*%
X162560000Y-106680000D03*
%TO.P,U18,23,A13*%
%TO.N,Net-(D27-K)*%
X160020000Y-106680000D03*
%TO.P,U18,24,A14*%
%TO.N,Net-(D28-K)*%
X157480000Y-106680000D03*
%TO.P,U18,25,A15*%
%TO.N,Net-(D29-K)*%
X154940000Y-106680000D03*
%TO.P,U18,26,A16*%
%TO.N,GND*%
X152400000Y-106680000D03*
%TO.P,U18,27,A17*%
X149860000Y-106680000D03*
%TO.P,U18,28,Vcc*%
%TO.N,+5V*%
X147320000Y-106680000D03*
%TD*%
D12*
%TO.P,D18,1,K*%
%TO.N,BANK0*%
X137160000Y-50800000D03*
D13*
%TO.P,D18,2,A*%
%TO.N,Net-(D18-A)*%
X137160000Y-53340000D03*
%TD*%
D12*
%TO.P,D16,1,K*%
%TO.N,BANK6*%
X106680000Y-50800000D03*
D13*
%TO.P,D16,2,A*%
%TO.N,Net-(D16-A)*%
X106680000Y-53340000D03*
%TD*%
D16*
%TO.P,RN3,1,common*%
%TO.N,+5V*%
X121920000Y-63500000D03*
D15*
%TO.P,RN3,2,R1*%
%TO.N,Net-(D14-A)*%
X119380000Y-63500000D03*
%TO.P,RN3,3,R2*%
%TO.N,Net-(D15-A)*%
X116840000Y-63500000D03*
%TO.P,RN3,4,R3*%
%TO.N,Net-(D16-A)*%
X114300000Y-63500000D03*
%TO.P,RN3,5,R4*%
%TO.N,Net-(D17-A)*%
X111760000Y-63500000D03*
%TD*%
D16*
%TO.P,D36,1,K*%
%TO.N,GND*%
X22860000Y-71120000D03*
D15*
%TO.P,D36,2,A*%
%TO.N,Net-(D36-A)*%
X22860000Y-78740000D03*
%TD*%
D16*
%TO.P,U9,1*%
%TO.N,Net-(C12-Pad1)*%
X15240000Y-15240000D03*
D15*
%TO.P,U9,2*%
%TO.N,Net-(C10-Pad1)*%
X17780000Y-15240000D03*
%TO.P,U9,3*%
%TO.N,Net-(C10-Pad2)*%
X20320000Y-15240000D03*
%TO.P,U9,4*%
%TO.N,Net-(R17-Pad2)*%
X22860000Y-15240000D03*
%TO.P,U9,5*%
%TO.N,Net-(U12-QC)*%
X25400000Y-15240000D03*
%TO.P,U9,6*%
%TO.N,Net-(U10-Pad13)*%
X27940000Y-15240000D03*
%TO.P,U9,7,GND*%
%TO.N,GND*%
X30480000Y-15240000D03*
%TO.P,U9,8*%
%TO.N,Net-(C8-Pad1)*%
X30480000Y-7620000D03*
%TO.P,U9,9*%
%TO.N,Net-(U10-Pad11)*%
X27940000Y-7620000D03*
%TO.P,U9,10*%
%TO.N,Net-(C9-Pad1)*%
X25400000Y-7620000D03*
%TO.P,U9,11*%
%TO.N,Net-(U10-Pad8)*%
X22860000Y-7620000D03*
%TO.P,U9,12*%
%TO.N,Net-(U10-Pad10)*%
X20320000Y-7620000D03*
%TO.P,U9,13*%
%TO.N,Net-(U12-QB)*%
X17780000Y-7620000D03*
%TO.P,U9,14,VCC*%
%TO.N,+5V*%
X15240000Y-7620000D03*
%TD*%
D14*
%TO.P,R34,1*%
%TO.N,Net-(U20-I{slash}O3)*%
X114300000Y-111760000D03*
D15*
%TO.P,R34,2*%
%TO.N,Net-(D32-K)*%
X121920000Y-111760000D03*
%TD*%
D12*
%TO.P,D37,1,K*%
%TO.N,Net-(D36-A)*%
X22860000Y-96520000D03*
D13*
%TO.P,D37,2,A*%
%TO.N,Net-(D37-A)*%
X22860000Y-93980000D03*
%TD*%
D16*
%TO.P,U12,1,~{CLEAR}*%
%TO.N,Net-(U12-EP)*%
X38100000Y-30480000D03*
D15*
%TO.P,U12,2,CLOCK*%
%TO.N,Net-(U12-CLOCK)*%
X40640000Y-30480000D03*
%TO.P,U12,3,A*%
%TO.N,GND*%
X43180000Y-30480000D03*
%TO.P,U12,4,B*%
X45720000Y-30480000D03*
%TO.P,U12,5,C*%
X48260000Y-30480000D03*
%TO.P,U12,6,D*%
X50800000Y-30480000D03*
%TO.P,U12,7,EP*%
%TO.N,Net-(U12-EP)*%
X53340000Y-30480000D03*
%TO.P,U12,8,GND*%
%TO.N,GND*%
X55880000Y-30480000D03*
%TO.P,U12,9,LOAD*%
%TO.N,Net-(U12-LOAD)*%
X55880000Y-22860000D03*
%TO.P,U12,10,ET*%
%TO.N,Net-(U12-EP)*%
X53340000Y-22860000D03*
%TO.P,U12,11,QD*%
%TO.N,unconnected-(U12-QD-Pad11)*%
X50800000Y-22860000D03*
%TO.P,U12,12,QC*%
%TO.N,Net-(U12-QC)*%
X48260000Y-22860000D03*
%TO.P,U12,13,QB*%
%TO.N,Net-(U12-QB)*%
X45720000Y-22860000D03*
%TO.P,U12,14,QA*%
%TO.N,unconnected-(U12-QA-Pad14)*%
X43180000Y-22860000D03*
%TO.P,U12,15,COUT*%
%TO.N,unconnected-(U12-COUT-Pad15)*%
X40640000Y-22860000D03*
%TO.P,U12,16,VCC*%
%TO.N,+5V*%
X38100000Y-22860000D03*
%TD*%
D22*
%TO.P,J3,1,Pin_1*%
%TO.N,GND*%
X178430000Y-60960000D03*
D23*
%TO.P,J3,2,Pin_2*%
%TO.N,Net-(D1-K)*%
X180970000Y-60960000D03*
%TO.P,J3,3,Pin_3*%
%TO.N,unconnected-(J3-Pin_3-Pad3)*%
X178430000Y-63500000D03*
%TO.P,J3,4,Pin_4*%
%TO.N,Net-(D2-K)*%
X180970000Y-63500000D03*
%TO.P,J3,5,Pin_5*%
%TO.N,unconnected-(J3-Pin_5-Pad5)*%
X178430000Y-66040000D03*
%TO.P,J3,6,Pin_6*%
%TO.N,Net-(D3-K)*%
X180970000Y-66040000D03*
%TO.P,J3,7,Pin_7*%
%TO.N,+5V*%
X178430000Y-68580000D03*
%TO.P,J3,8,Pin_8*%
%TO.N,Net-(D4-K)*%
X180970000Y-68580000D03*
%TD*%
D12*
%TO.P,D5,1,K*%
%TO.N,GND2*%
X180340000Y-15240000D03*
D13*
%TO.P,D5,2,A*%
%TO.N,Net-(D5-A)*%
X177800000Y-15240000D03*
%TD*%
D24*
%TO.P,Y1,1,1*%
%TO.N,Net-(C12-Pad1)*%
X17780000Y-22860000D03*
%TO.P,Y1,2,2*%
%TO.N,Net-(R17-Pad2)*%
X22660000Y-22860000D03*
%TD*%
D14*
%TO.P,R21,1*%
%TO.N,BANK6*%
X165100000Y-73660000D03*
D15*
%TO.P,R21,2*%
%TO.N,Net-(D28-K)*%
X165100000Y-81280000D03*
%TD*%
D20*
%TO.P,U20,1,D0*%
%TO.N,/ProgramMemory/D0*%
X53340000Y-81280000D03*
D21*
%TO.P,U20,2,D1*%
%TO.N,/ProgramMemory/D1*%
X55880000Y-81280000D03*
%TO.P,U20,3,D2*%
%TO.N,/ProgramMemory/D2*%
X58420000Y-81280000D03*
%TO.P,U20,4,D3*%
%TO.N,/ProgramMemory/D3*%
X60960000Y-81280000D03*
%TO.P,U20,5,OPR0*%
%TO.N,Net-(U16-D4)*%
X63500000Y-81280000D03*
%TO.P,U20,6,OPR1*%
%TO.N,Net-(U16-D5)*%
X66040000Y-81280000D03*
%TO.P,U20,7,OPR2*%
%TO.N,Net-(U16-D6)*%
X68580000Y-81280000D03*
%TO.P,U20,8,OPR3*%
%TO.N,Net-(U16-D7)*%
X71120000Y-81280000D03*
%TO.P,U20,9,OPA0*%
%TO.N,Net-(U16-D0)*%
X73660000Y-81280000D03*
%TO.P,U20,10,OPA1*%
%TO.N,Net-(U16-D1)*%
X76200000Y-81280000D03*
%TO.P,U20,11,OPA2*%
%TO.N,Net-(U16-D2)*%
X78740000Y-81280000D03*
%TO.P,U20,12,OPA3*%
%TO.N,Net-(U16-D3)*%
X81280000Y-81280000D03*
%TO.P,U20,13,CLK1*%
%TO.N,/ClockGen/CLK1*%
X83820000Y-81280000D03*
%TO.P,U20,14,CLK2*%
%TO.N,/ClockGen/CLK2*%
X86360000Y-81280000D03*
%TO.P,U20,15,SYNC*%
%TO.N,/ProgramMemory/SYNC*%
X88900000Y-81280000D03*
%TO.P,U20,16,CM*%
%TO.N,/ProgramMemory/CM*%
X91440000Y-81280000D03*
%TO.P,U20,17,RESET*%
%TO.N,/ProgramMemory/RESET*%
X93980000Y-81280000D03*
%TO.P,U20,18,IN*%
%TO.N,unconnected-(U20-IN-Pad18)*%
X96520000Y-81280000D03*
%TO.P,U20,19,OUT*%
%TO.N,Net-(U19-G1)*%
X99060000Y-81280000D03*
%TO.P,U20,20,Vss*%
%TO.N,+5V*%
X101600000Y-81280000D03*
%TO.P,U20,21,PM*%
%TO.N,Net-(U19-G2)*%
X101600000Y-66040000D03*
%TO.P,U20,22,FL*%
%TO.N,Net-(U20-FL)*%
X99060000Y-66040000D03*
%TO.P,U20,23,A0*%
%TO.N,Net-(U16-A0)*%
X96520000Y-66040000D03*
%TO.P,U20,24,A1*%
%TO.N,Net-(U16-A1)*%
X93980000Y-66040000D03*
%TO.P,U20,25,A2*%
%TO.N,Net-(U16-A2)*%
X91440000Y-66040000D03*
%TO.P,U20,26,A3*%
%TO.N,Net-(U16-A3)*%
X88900000Y-66040000D03*
%TO.P,U20,27,A4*%
%TO.N,Net-(U16-A4)*%
X86360000Y-66040000D03*
%TO.P,U20,28,A5*%
%TO.N,Net-(U16-A5)*%
X83820000Y-66040000D03*
%TO.P,U20,29,A6*%
%TO.N,Net-(U16-A6)*%
X81280000Y-66040000D03*
%TO.P,U20,30,A7*%
%TO.N,Net-(U16-A7)*%
X78740000Y-66040000D03*
%TO.P,U20,31,C0*%
%TO.N,C0*%
X76200000Y-66040000D03*
%TO.P,U20,32,C1*%
%TO.N,C1*%
X73660000Y-66040000D03*
%TO.P,U20,33,C2*%
%TO.N,C2*%
X71120000Y-66040000D03*
%TO.P,U20,34,C3*%
%TO.N,C3*%
X68580000Y-66040000D03*
%TO.P,U20,35,Vdd1*%
%TO.N,GND*%
X66040000Y-66040000D03*
%TO.P,U20,36,I/O4*%
%TO.N,Net-(U20-I{slash}O4)*%
X63500000Y-66040000D03*
%TO.P,U20,37,I/O3*%
%TO.N,Net-(U20-I{slash}O3)*%
X60960000Y-66040000D03*
%TO.P,U20,38,I/O2*%
%TO.N,Net-(U20-I{slash}O2)*%
X58420000Y-66040000D03*
%TO.P,U20,39,I/O1*%
%TO.N,Net-(U20-I{slash}O1)*%
X55880000Y-66040000D03*
%TO.P,U20,40,Vdd*%
%TO.N,-10V*%
X53340000Y-66040000D03*
%TD*%
D16*
%TO.P,U6,1,D0*%
%TO.N,/ProgramMemory/D0*%
X101600000Y-15240000D03*
D15*
%TO.P,U6,2,D1*%
%TO.N,/ProgramMemory/D1*%
X104140000Y-15240000D03*
%TO.P,U6,3,D2*%
%TO.N,/ProgramMemory/D2*%
X106680000Y-15240000D03*
%TO.P,U6,4,D3*%
%TO.N,/ProgramMemory/D3*%
X109220000Y-15240000D03*
%TO.P,U6,5,Vss*%
%TO.N,+5V*%
X111760000Y-15240000D03*
%TO.P,U6,6,CLK1*%
%TO.N,/ClockGen/CLK1*%
X114300000Y-15240000D03*
%TO.P,U6,7,CLK2*%
%TO.N,/ClockGen/CLK2*%
X116840000Y-15240000D03*
%TO.P,U6,8,SYNC*%
%TO.N,/ProgramMemory/SYNC*%
X119380000Y-15240000D03*
%TO.P,U6,9,RESET*%
%TO.N,/ProgramMemory/RESET*%
X119380000Y-7620000D03*
%TO.P,U6,10,P0*%
%TO.N,+5V*%
X116840000Y-7620000D03*
%TO.P,U6,11,CM*%
%TO.N,CM_RAM23*%
X114300000Y-7620000D03*
%TO.P,U6,12,Vdd*%
%TO.N,-10V*%
X111760000Y-7620000D03*
%TO.P,U6,13,O3*%
%TO.N,RAM2-3*%
X109220000Y-7620000D03*
%TO.P,U6,14,O2*%
%TO.N,RAM2-2*%
X106680000Y-7620000D03*
%TO.P,U6,15,O1*%
%TO.N,RAM2-1*%
X104140000Y-7620000D03*
%TO.P,U6,16,O0*%
%TO.N,RAM2-0*%
X101600000Y-7620000D03*
%TD*%
D20*
%TO.P,U16,1,NC*%
%TO.N,ROM_P1*%
X66040000Y-111760000D03*
D21*
%TO.P,U16,2,A12*%
%TO.N,ROM_P2*%
X68580000Y-111760000D03*
%TO.P,U16,3,A7*%
%TO.N,Net-(U16-A7)*%
X71120000Y-111760000D03*
%TO.P,U16,4,A6*%
%TO.N,Net-(U16-A6)*%
X73660000Y-111760000D03*
%TO.P,U16,5,A5*%
%TO.N,Net-(U16-A5)*%
X76200000Y-111760000D03*
%TO.P,U16,6,A4*%
%TO.N,Net-(U16-A4)*%
X78740000Y-111760000D03*
%TO.P,U16,7,A3*%
%TO.N,Net-(U16-A3)*%
X81280000Y-111760000D03*
%TO.P,U16,8,A2*%
%TO.N,Net-(U16-A2)*%
X83820000Y-111760000D03*
%TO.P,U16,9,A1*%
%TO.N,Net-(U16-A1)*%
X86360000Y-111760000D03*
%TO.P,U16,10,A0*%
%TO.N,Net-(U16-A0)*%
X88900000Y-111760000D03*
%TO.P,U16,11,D0*%
%TO.N,Net-(U16-D0)*%
X91440000Y-111760000D03*
%TO.P,U16,12,D1*%
%TO.N,Net-(U16-D1)*%
X93980000Y-111760000D03*
%TO.P,U16,13,D2*%
%TO.N,Net-(U16-D2)*%
X96520000Y-111760000D03*
%TO.P,U16,14,Vss(GND)*%
%TO.N,GND*%
X99060000Y-111760000D03*
%TO.P,U16,15,D3*%
%TO.N,Net-(U16-D3)*%
X99060000Y-96520000D03*
%TO.P,U16,16,D4*%
%TO.N,Net-(U16-D4)*%
X96520000Y-96520000D03*
%TO.P,U16,17,D5*%
%TO.N,Net-(U16-D5)*%
X93980000Y-96520000D03*
%TO.P,U16,18,D6*%
%TO.N,Net-(U16-D6)*%
X91440000Y-96520000D03*
%TO.P,U16,19,D7*%
%TO.N,Net-(U16-D7)*%
X88900000Y-96520000D03*
%TO.P,U16,20,~{CS}*%
%TO.N,~{CS_ROM}*%
X86360000Y-96520000D03*
%TO.P,U16,21,A10*%
%TO.N,C2*%
X83820000Y-96520000D03*
%TO.P,U16,22,~{OE}*%
%TO.N,~{OE}*%
X81280000Y-96520000D03*
%TO.P,U16,23,A11*%
%TO.N,C3*%
X78740000Y-96520000D03*
%TO.P,U16,24,A9*%
%TO.N,C1*%
X76200000Y-96520000D03*
%TO.P,U16,25,A8*%
%TO.N,C0*%
X73660000Y-96520000D03*
%TO.P,U16,26,NC*%
%TO.N,ROM_P26*%
X71120000Y-96520000D03*
%TO.P,U16,27,~{WE}*%
%TO.N,ROM_P27*%
X68580000Y-96520000D03*
%TO.P,U16,28,Vdd*%
%TO.N,+5V*%
X66040000Y-96520000D03*
%TD*%
D14*
%TO.P,C16,1*%
%TO.N,+5V*%
X63500000Y-29210000D03*
%TO.P,C16,2*%
%TO.N,-10V*%
X63500000Y-24210000D03*
%TD*%
%TO.P,C8,1*%
%TO.N,Net-(C8-Pad1)*%
X35560000Y-40640000D03*
%TO.P,C8,2*%
%TO.N,Net-(U11-IN_A)*%
X30560000Y-40640000D03*
%TD*%
%TO.P,R7,1*%
%TO.N,Net-(R7-Pad1)*%
X162560000Y-20320000D03*
D15*
%TO.P,R7,2*%
%TO.N,Net-(U2-K)*%
X170180000Y-20320000D03*
%TD*%
D14*
%TO.P,C21,1*%
%TO.N,+5V*%
X142240000Y-109220000D03*
%TO.P,C21,2*%
%TO.N,GND*%
X142240000Y-114220000D03*
%TD*%
%TO.P,C23,1*%
%TO.N,GND*%
X38100000Y-55960000D03*
%TO.P,C23,2*%
%TO.N,-10V*%
X38100000Y-60960000D03*
%TD*%
D17*
%TO.P,J6,1,Pin_1*%
%TO.N,Net-(D36-A)*%
X12700000Y-93980000D03*
%TD*%
D14*
%TO.P,C19,1*%
%TO.N,+5V*%
X109220000Y-97870000D03*
%TO.P,C19,2*%
%TO.N,GND*%
X109220000Y-102870000D03*
%TD*%
D12*
%TO.P,D21,1,K*%
%TO.N,BANK3*%
X121920000Y-50800000D03*
D13*
%TO.P,D21,2,A*%
%TO.N,Net-(D21-A)*%
X121920000Y-53340000D03*
%TD*%
D14*
%TO.P,C22,1*%
%TO.N,+5V*%
X111760000Y-81280000D03*
%TO.P,C22,2*%
%TO.N,GND*%
X111760000Y-76280000D03*
%TD*%
D16*
%TO.P,U2,1,NC*%
%TO.N,unconnected-(U2-NC-Pad1)*%
X160020000Y-15240000D03*
D15*
%TO.P,U2,2,A*%
%TO.N,+5V*%
X162560000Y-15240000D03*
%TO.P,U2,3,K*%
%TO.N,Net-(U2-K)*%
X165100000Y-15240000D03*
%TO.P,U2,4,NC*%
%TO.N,unconnected-(U2-NC-Pad4)*%
X167640000Y-15240000D03*
%TO.P,U2,5,GND*%
%TO.N,GND2*%
X167640000Y-7620000D03*
%TO.P,U2,6,Vo*%
%TO.N,Net-(J1-Pin_5)*%
X165100000Y-7620000D03*
%TO.P,U2,7,NC*%
%TO.N,unconnected-(U2-NC-Pad7)*%
X162560000Y-7620000D03*
%TO.P,U2,8,VDD*%
%TO.N,VBUS*%
X160020000Y-7620000D03*
%TD*%
D16*
%TO.P,D33,1,K*%
%TO.N,Net-(D33-K)*%
X124460000Y-109220000D03*
D15*
%TO.P,D33,2,A*%
%TO.N,GND*%
X127000000Y-109220000D03*
%TD*%
D14*
%TO.P,R19,1*%
%TO.N,-10V*%
X48260000Y-48260000D03*
D15*
%TO.P,R19,2*%
%TO.N,Net-(U11-OUT_B)*%
X40640000Y-48260000D03*
%TD*%
D16*
%TO.P,D29,1,K*%
%TO.N,Net-(D29-K)*%
X162560000Y-83820000D03*
D15*
%TO.P,D29,2,A*%
%TO.N,GND*%
X162560000Y-86360000D03*
%TD*%
D14*
%TO.P,C6,1*%
%TO.N,+5V*%
X5080000Y-20320000D03*
%TO.P,C6,2*%
%TO.N,GND*%
X10080000Y-20320000D03*
%TD*%
%TO.P,C18,1*%
%TO.N,+5V*%
X50800000Y-96440000D03*
%TO.P,C18,2*%
%TO.N,GND*%
X50800000Y-91440000D03*
%TD*%
D16*
%TO.P,D32,1,K*%
%TO.N,Net-(D32-K)*%
X124460000Y-111760000D03*
D15*
%TO.P,D32,2,A*%
%TO.N,GND*%
X127000000Y-111760000D03*
%TD*%
D14*
%TO.P,R9,1*%
%TO.N,Net-(R9-Pad1)*%
X160020000Y-25400000D03*
D15*
%TO.P,R9,2*%
%TO.N,Net-(C3-Pad1)*%
X152400000Y-25400000D03*
%TD*%
D16*
%TO.P,U7,1,D0*%
%TO.N,/ProgramMemory/D0*%
X68580000Y-30480000D03*
D15*
%TO.P,U7,2,D1*%
%TO.N,/ProgramMemory/D1*%
X71120000Y-30480000D03*
%TO.P,U7,3,D2*%
%TO.N,/ProgramMemory/D2*%
X73660000Y-30480000D03*
%TO.P,U7,4,D3*%
%TO.N,/ProgramMemory/D3*%
X76200000Y-30480000D03*
%TO.P,U7,5,Vss*%
%TO.N,+5V*%
X78740000Y-30480000D03*
%TO.P,U7,6,CLK1*%
%TO.N,/ClockGen/CLK1*%
X81280000Y-30480000D03*
%TO.P,U7,7,CLK2*%
%TO.N,/ClockGen/CLK2*%
X83820000Y-30480000D03*
%TO.P,U7,8,SYNC*%
%TO.N,/ProgramMemory/SYNC*%
X86360000Y-30480000D03*
%TO.P,U7,9,RESET*%
%TO.N,/ProgramMemory/RESET*%
X86360000Y-22860000D03*
%TO.P,U7,10,P0*%
%TO.N,-10V*%
X83820000Y-22860000D03*
%TO.P,U7,11,CM*%
%TO.N,CMRAM0*%
X81280000Y-22860000D03*
%TO.P,U7,12,Vdd*%
%TO.N,-10V*%
X78740000Y-22860000D03*
%TO.P,U7,13,O3*%
%TO.N,BANK7*%
X76200000Y-22860000D03*
%TO.P,U7,14,O2*%
%TO.N,BANK6*%
X73660000Y-22860000D03*
%TO.P,U7,15,O1*%
%TO.N,BANK5*%
X71120000Y-22860000D03*
%TO.P,U7,16,O0*%
%TO.N,BANK4*%
X68580000Y-22860000D03*
%TD*%
D14*
%TO.P,R32,1*%
%TO.N,Net-(U20-I{slash}O1)*%
X114300000Y-116840000D03*
D15*
%TO.P,R32,2*%
%TO.N,Net-(D30-K)*%
X121920000Y-116840000D03*
%TD*%
D12*
%TO.P,D8,1,K*%
%TO.N,Net-(D8-K)*%
X106680000Y-40640000D03*
D13*
%TO.P,D8,2,A*%
%TO.N,Net-(D8-A)*%
X106680000Y-43180000D03*
%TD*%
D14*
%TO.P,C3,1*%
%TO.N,Net-(C3-Pad1)*%
X155020000Y-27940000D03*
%TO.P,C3,2*%
%TO.N,-10V*%
X160020000Y-27940000D03*
%TD*%
%TO.P,R8,1*%
%TO.N,+5V*%
X160020000Y-22860000D03*
D15*
%TO.P,R8,2*%
%TO.N,Net-(C3-Pad1)*%
X152400000Y-22860000D03*
%TD*%
D12*
%TO.P,D10,1,K*%
%TO.N,RAM2-0*%
X137160000Y-40640000D03*
D13*
%TO.P,D10,2,A*%
%TO.N,Net-(D10-A)*%
X137160000Y-43180000D03*
%TD*%
D16*
%TO.P,U11,1,NC*%
%TO.N,unconnected-(U11-NC-Pad1)*%
X17780000Y-45720000D03*
D15*
%TO.P,U11,2,IN_A*%
%TO.N,Net-(U11-IN_A)*%
X20320000Y-45720000D03*
%TO.P,U11,3,V-*%
%TO.N,-10V*%
X22860000Y-45720000D03*
%TO.P,U11,4,IN_B*%
%TO.N,Net-(U11-IN_B)*%
X25400000Y-45720000D03*
%TO.P,U11,5,OUT_B*%
%TO.N,Net-(U11-OUT_B)*%
X25400000Y-38100000D03*
%TO.P,U11,6,V+*%
%TO.N,+5V*%
X22860000Y-38100000D03*
%TO.P,U11,7,OUT_A*%
%TO.N,Net-(U11-OUT_A)*%
X20320000Y-38100000D03*
%TO.P,U11,8,NC*%
%TO.N,unconnected-(U11-NC-Pad8)*%
X17780000Y-38100000D03*
%TD*%
D16*
%TO.P,U19,1,G1*%
%TO.N,Net-(U19-G1)*%
X114300000Y-104140000D03*
D15*
%TO.P,U19,2,A0*%
%TO.N,Net-(D30-K)*%
X116840000Y-104140000D03*
%TO.P,U19,3,A1*%
%TO.N,Net-(D31-K)*%
X119380000Y-104140000D03*
%TO.P,U19,4,A2*%
%TO.N,Net-(D32-K)*%
X121920000Y-104140000D03*
%TO.P,U19,5,A3*%
%TO.N,Net-(D33-K)*%
X124460000Y-104140000D03*
%TO.P,U19,6,A4*%
%TO.N,Net-(D30-K)*%
X127000000Y-104140000D03*
%TO.P,U19,7,A5*%
%TO.N,Net-(D31-K)*%
X129540000Y-104140000D03*
%TO.P,U19,8,A6*%
%TO.N,Net-(D32-K)*%
X132080000Y-104140000D03*
%TO.P,U19,9,A7*%
%TO.N,Net-(D33-K)*%
X134620000Y-104140000D03*
%TO.P,U19,10,GND*%
%TO.N,GND*%
X137160000Y-104140000D03*
%TO.P,U19,11,Y7*%
%TO.N,Net-(U16-D7)*%
X137160000Y-96520000D03*
%TO.P,U19,12,Y6*%
%TO.N,Net-(U16-D6)*%
X134620000Y-96520000D03*
%TO.P,U19,13,Y5*%
%TO.N,Net-(U16-D5)*%
X132080000Y-96520000D03*
%TO.P,U19,14,Y4*%
%TO.N,Net-(U16-D4)*%
X129540000Y-96520000D03*
%TO.P,U19,15,Y3*%
%TO.N,Net-(U16-D3)*%
X127000000Y-96520000D03*
%TO.P,U19,16,Y2*%
%TO.N,Net-(U16-D2)*%
X124460000Y-96520000D03*
%TO.P,U19,17,Y1*%
%TO.N,Net-(U16-D1)*%
X121920000Y-96520000D03*
%TO.P,U19,18,Y0*%
%TO.N,Net-(U16-D0)*%
X119380000Y-96520000D03*
%TO.P,U19,19,G2*%
%TO.N,Net-(U19-G2)*%
X116840000Y-96520000D03*
%TO.P,U19,20,VCC*%
%TO.N,+5V*%
X114300000Y-96520000D03*
%TD*%
D14*
%TO.P,R30,1*%
%TO.N,GND*%
X38100000Y-93980000D03*
D15*
%TO.P,R30,2*%
%TO.N,ROM_P2*%
X45720000Y-93980000D03*
%TD*%
D16*
%TO.P,C25,1*%
%TO.N,GND*%
X27940000Y-63500000D03*
D14*
%TO.P,C25,2*%
%TO.N,-10V*%
X30440000Y-63500000D03*
%TD*%
%TO.P,R27,1*%
%TO.N,BANK0*%
X180340000Y-73660000D03*
D15*
%TO.P,R27,2*%
%TO.N,Net-(D22-K)*%
X180340000Y-81280000D03*
%TD*%
D16*
%TO.P,RN1,1,common*%
%TO.N,+5V*%
X121920000Y-60960000D03*
D15*
%TO.P,RN1,2,R1*%
%TO.N,Net-(D6-A)*%
X119380000Y-60960000D03*
%TO.P,RN1,3,R2*%
%TO.N,Net-(D7-A)*%
X116840000Y-60960000D03*
%TO.P,RN1,4,R3*%
%TO.N,Net-(D8-A)*%
X114300000Y-60960000D03*
%TO.P,RN1,5,R4*%
%TO.N,Net-(D9-A)*%
X111760000Y-60960000D03*
%TD*%
D25*
%TO.P,SW1,1,1*%
%TO.N,-10V*%
X163980000Y-45720000D03*
X157480000Y-45720000D03*
%TO.P,SW1,2,2*%
%TO.N,Net-(R9-Pad1)*%
X163980000Y-41220000D03*
X157480000Y-41220000D03*
%TD*%
D12*
%TO.P,D14,1,K*%
%TO.N,BANK4*%
X116840000Y-50800000D03*
D13*
%TO.P,D14,2,A*%
%TO.N,Net-(D14-A)*%
X116840000Y-53340000D03*
%TD*%
D14*
%TO.P,C10,1*%
%TO.N,Net-(C10-Pad1)*%
X17780000Y-17780000D03*
%TO.P,C10,2*%
%TO.N,Net-(C10-Pad2)*%
X22780000Y-17780000D03*
%TD*%
D12*
%TO.P,D12,1,K*%
%TO.N,RAM2-2*%
X127000000Y-40640000D03*
D13*
%TO.P,D12,2,A*%
%TO.N,Net-(D12-A)*%
X127000000Y-43180000D03*
%TD*%
D12*
%TO.P,D34,1,K*%
%TO.N,GND*%
X27940000Y-96520000D03*
D13*
%TO.P,D34,2,A*%
%TO.N,Net-(D34-A)*%
X27940000Y-93980000D03*
%TD*%
D16*
%TO.P,RN4,1,common*%
%TO.N,+5V*%
X137160000Y-63500000D03*
D15*
%TO.P,RN4,2,R1*%
%TO.N,Net-(D18-A)*%
X134620000Y-63500000D03*
%TO.P,RN4,3,R2*%
%TO.N,Net-(D19-A)*%
X132080000Y-63500000D03*
%TO.P,RN4,4,R3*%
%TO.N,Net-(D20-A)*%
X129540000Y-63500000D03*
%TO.P,RN4,5,R4*%
%TO.N,Net-(D21-A)*%
X127000000Y-63500000D03*
%TD*%
D16*
%TO.P,U13,1*%
%TO.N,Net-(U19-G1)*%
X139700000Y-88900000D03*
D15*
%TO.P,U13,2*%
%TO.N,~{OE}*%
X142240000Y-88900000D03*
%TO.P,U13,3*%
%TO.N,Net-(U20-FL)*%
X144780000Y-88900000D03*
%TO.P,U13,4*%
%TO.N,Net-(U13-Pad4)*%
X147320000Y-88900000D03*
%TO.P,U13,5*%
%TO.N,~{CS_ROM}*%
X149860000Y-88900000D03*
%TO.P,U13,6*%
%TO.N,~{CS_RAM}*%
X152400000Y-88900000D03*
%TO.P,U13,7,GND*%
%TO.N,GND*%
X154940000Y-88900000D03*
%TO.P,U13,8*%
%TO.N,unconnected-(U13-Pad8)*%
X154940000Y-81280000D03*
%TO.P,U13,9*%
%TO.N,+5V*%
X152400000Y-81280000D03*
%TO.P,U13,10*%
%TO.N,unconnected-(U13-Pad10)*%
X149860000Y-81280000D03*
%TO.P,U13,11*%
%TO.N,+5V*%
X147320000Y-81280000D03*
%TO.P,U13,12*%
%TO.N,unconnected-(U13-Pad12)*%
X144780000Y-81280000D03*
%TO.P,U13,13*%
%TO.N,+5V*%
X142240000Y-81280000D03*
%TO.P,U13,14,VCC*%
X139700000Y-81280000D03*
%TD*%
D17*
%TO.P,J4,1,Pin_1*%
%TO.N,Net-(D35-K)*%
X12700000Y-63500000D03*
%TD*%
D14*
%TO.P,R35,1*%
%TO.N,Net-(U20-I{slash}O4)*%
X114300000Y-109220000D03*
D15*
%TO.P,R35,2*%
%TO.N,Net-(D33-K)*%
X121920000Y-109220000D03*
%TD*%
D14*
%TO.P,R4,1*%
%TO.N,RAM2-3*%
X152400000Y-68580000D03*
D15*
%TO.P,R4,2*%
%TO.N,Net-(D4-K)*%
X160020000Y-68580000D03*
%TD*%
D16*
%TO.P,D30,1,K*%
%TO.N,Net-(D30-K)*%
X124460000Y-116840000D03*
D15*
%TO.P,D30,2,A*%
%TO.N,GND*%
X127000000Y-116840000D03*
%TD*%
D16*
%TO.P,C24,1*%
%TO.N,+5V*%
X5802621Y-38100000D03*
D14*
%TO.P,C24,2*%
%TO.N,GND*%
X8302621Y-38100000D03*
%TD*%
%TO.P,C11,1*%
%TO.N,GND*%
X35560000Y-49530000D03*
%TO.P,C11,2*%
%TO.N,-10V*%
X30560000Y-49530000D03*
%TD*%
D16*
%TO.P,D35,1,K*%
%TO.N,Net-(D35-K)*%
X22860000Y-55880000D03*
D15*
%TO.P,D35,2,A*%
%TO.N,GND*%
X22860000Y-63500000D03*
%TD*%
D14*
%TO.P,R28,1*%
%TO.N,ROM_P27*%
X45720000Y-88900000D03*
D15*
%TO.P,R28,2*%
%TO.N,+5V*%
X38100000Y-88900000D03*
%TD*%
D14*
%TO.P,R14,1*%
%TO.N,Net-(U11-OUT_A)*%
X40640000Y-40640000D03*
D15*
%TO.P,R14,2*%
%TO.N,/ClockGen/CLK1*%
X48260000Y-40640000D03*
%TD*%
D25*
%TO.P,SW2,1,1*%
%TO.N,-10V*%
X176680000Y-45720000D03*
X170180000Y-45720000D03*
%TO.P,SW2,2,2*%
%TO.N,Net-(R11-Pad1)*%
X176680000Y-41220000D03*
X170180000Y-41220000D03*
%TD*%
D16*
%TO.P,U1,1,NC*%
%TO.N,unconnected-(U1-NC-Pad1)*%
X144780000Y-15240000D03*
D15*
%TO.P,U1,2,A*%
%TO.N,VBUS*%
X147320000Y-15240000D03*
%TO.P,U1,3,K*%
%TO.N,Net-(U1-K)*%
X149860000Y-15240000D03*
%TO.P,U1,4,NC*%
%TO.N,unconnected-(U1-NC-Pad4)*%
X152400000Y-15240000D03*
%TO.P,U1,5,GND*%
%TO.N,-10V*%
X152400000Y-7620000D03*
%TO.P,U1,6,Vo*%
%TO.N,Net-(U1-Vo)*%
X149860000Y-7620000D03*
%TO.P,U1,7,NC*%
%TO.N,unconnected-(U1-NC-Pad7)*%
X147320000Y-7620000D03*
%TO.P,U1,8,VDD*%
%TO.N,+5V*%
X144780000Y-7620000D03*
%TD*%
D14*
%TO.P,R25,1*%
%TO.N,BANK2*%
X175260000Y-73660000D03*
D15*
%TO.P,R25,2*%
%TO.N,Net-(D24-K)*%
X175260000Y-81280000D03*
%TD*%
D12*
%TO.P,D6,1,K*%
%TO.N,Net-(D6-K)*%
X116840000Y-40640000D03*
D13*
%TO.P,D6,2,A*%
%TO.N,Net-(D6-A)*%
X116840000Y-43180000D03*
%TD*%
D26*
%TO.N,+5V*%
X12065000Y-8890000D03*
X45720000Y-35560000D03*
X180340000Y-71120000D03*
X13335000Y-8890000D03*
X111760000Y-105410000D03*
X45720000Y-34290000D03*
X44450000Y-34290000D03*
X133350000Y-15240000D03*
X111760000Y-106680000D03*
X59690000Y-48260000D03*
X179070000Y-71120000D03*
X12065000Y-7620000D03*
X58420000Y-48260000D03*
X115570000Y-12700000D03*
X132080000Y-15240000D03*
X13335000Y-7620000D03*
X44450000Y-35560000D03*
%TO.N,-10V*%
X58420000Y-43180000D03*
X50800000Y-64770000D03*
X49530000Y-64770000D03*
X50800000Y-66040000D03*
X59690000Y-43180000D03*
X49530000Y-66040000D03*
%TO.N,GND*%
X133350000Y-85090000D03*
X134620000Y-85090000D03*
X57150000Y-106680000D03*
X50800000Y-87630000D03*
X157480000Y-77470000D03*
X50800000Y-88900000D03*
X157480000Y-76200000D03*
X106680000Y-85090000D03*
X106680000Y-86360000D03*
X57150000Y-107950000D03*
X57150000Y-109220000D03*
%TO.N,RAM2-0*%
X152400000Y-40640000D03*
%TO.N,RAM2-1*%
X151130000Y-41910000D03*
%TO.N,RAM2-2*%
X149860000Y-43180000D03*
%TO.N,RAM2-3*%
X148590000Y-44450000D03*
%TO.N,BANK4*%
X170815000Y-55880000D03*
X90805000Y-18415000D03*
X91440000Y-47625000D03*
%TO.N,BANK5*%
X90170000Y-19685000D03*
X169545000Y-56515000D03*
X90805000Y-48895000D03*
%TO.N,BANK6*%
X168275000Y-57150000D03*
X89535000Y-20955000D03*
X90170000Y-50165000D03*
%TO.N,BANK7*%
X89535000Y-51435000D03*
X88900000Y-22225000D03*
X167005000Y-57785000D03*
%TO.N,BANK0*%
X137160000Y-46990000D03*
X122555000Y-46756838D03*
X175895000Y-53340000D03*
X123190000Y-18415000D03*
%TO.N,BANK1*%
X174625000Y-53975000D03*
X122555000Y-19685000D03*
X132080000Y-47625000D03*
X121285000Y-47553245D03*
%TO.N,BANK2*%
X120015000Y-48260000D03*
X127000000Y-48260000D03*
X173355000Y-54610000D03*
X121920000Y-20955000D03*
%TO.N,BANK3*%
X121285000Y-22225000D03*
X172085000Y-55245000D03*
%TO.N,Net-(D22-K)*%
X179070000Y-101600000D03*
%TO.N,Net-(D23-K)*%
X176530000Y-102324500D03*
%TO.N,Net-(D33-K)*%
X124460000Y-102235000D03*
%TO.N,CMRAM0*%
X67310000Y-17780000D03*
X127000000Y-19050000D03*
X80010000Y-17780000D03*
%TO.N,CMRAM1*%
X77470000Y-16510000D03*
X80010000Y-35014500D03*
X127000000Y-17145000D03*
%TO.N,Net-(R7-Pad1)*%
X142240000Y-19050000D03*
%TO.N,/ClockGen/CLK1*%
X82550000Y-35560000D03*
%TO.N,/ClockGen/CLK2*%
X85090000Y-36830000D03*
%TO.N,ROM_P27*%
X52705000Y-94615000D03*
%TO.N,Net-(U20-I{slash}O1)*%
X54610000Y-116840000D03*
%TO.N,Net-(U20-I{slash}O2)*%
X57150000Y-116115500D03*
%TO.N,Net-(U20-I{slash}O3)*%
X59690000Y-115391000D03*
%TO.N,Net-(U20-I{slash}O4)*%
X62230000Y-114666500D03*
%TO.N,/ProgramMemory/RESET*%
X86360000Y-4990500D03*
X92710000Y-58420000D03*
X85090000Y-58420000D03*
X119380000Y-27940000D03*
%TO.N,/ProgramMemory/D0*%
X69850000Y-32385000D03*
%TO.N,/ProgramMemory/D1*%
X72390000Y-33020000D03*
%TO.N,/ProgramMemory/D2*%
X74930000Y-33655000D03*
%TO.N,/ProgramMemory/D3*%
X77470000Y-34290000D03*
%TO.N,/ProgramMemory/SYNC*%
X87630000Y-38100000D03*
%TO.N,/ProgramMemory/CM*%
X90170000Y-59690000D03*
X80010000Y-59690000D03*
%TO.N,Net-(U4-TEST)*%
X147320000Y-39370000D03*
%TO.N,Net-(U12-QB)*%
X46994762Y-5572969D03*
%TO.N,~{OE}*%
X176530000Y-114935000D03*
X81280000Y-91440000D03*
X144272000Y-115058162D03*
%TO.N,Net-(U13-Pad4)*%
X124460000Y-86360000D03*
%TO.N,~{CS_ROM}*%
X148590000Y-73660000D03*
X104775000Y-69850000D03*
X104775000Y-97790000D03*
%TO.N,~{CS_RAM}*%
X173990000Y-114300000D03*
X145325500Y-114300000D03*
%TO.N,C0*%
X74930000Y-78015500D03*
%TO.N,C1*%
X72390000Y-78740000D03*
X72390000Y-94615000D03*
%TO.N,C2*%
X69850000Y-91440000D03*
X69850000Y-79230500D03*
%TO.N,C3*%
X67310000Y-80010000D03*
X67310000Y-91440000D03*
%TO.N,Net-(U19-G1)*%
X99060000Y-71755000D03*
X121920000Y-71755000D03*
X113030000Y-83185000D03*
X140970000Y-71755000D03*
%TO.N,Net-(U20-FL)*%
X100330000Y-90805000D03*
X144780000Y-91529500D03*
%TO.N,Net-(U19-G2)*%
X119380000Y-71030500D03*
%TO.N,Net-(U16-D0)*%
X170180000Y-98881000D03*
X100965000Y-88265000D03*
X100965000Y-99060000D03*
%TO.N,Net-(U16-D1)*%
X102235000Y-100330000D03*
X102235000Y-87630000D03*
X172720000Y-99605500D03*
X121920000Y-99695000D03*
%TO.N,Net-(U16-D2)*%
X104140000Y-100965000D03*
X175260000Y-100330000D03*
X124460000Y-100330000D03*
X103505000Y-86995000D03*
%TO.N,Net-(U16-D3)*%
X99060000Y-85635500D03*
%TO.N,Net-(U16-D4)*%
X128905000Y-111125000D03*
X96520000Y-90170000D03*
%TO.N,Net-(U16-D5)*%
X93980000Y-89445500D03*
X130810000Y-111760000D03*
%TO.N,Net-(U16-D6)*%
X133350000Y-112395000D03*
X91440000Y-88810500D03*
%TO.N,Net-(U16-D7)*%
X135890000Y-113030000D03*
X88900000Y-88175500D03*
%TO.N,Net-(U10-Pad13)*%
X44450000Y-17780000D03*
%TO.N,Net-(U10-Pad8)*%
X22860000Y-3810000D03*
%TO.N,Net-(U10-Pad10)*%
X20320000Y-4848469D03*
%TO.N,Net-(D6-K)*%
X147320000Y-45720000D03*
X93980000Y-46355000D03*
%TO.N,Net-(D7-K)*%
X93345000Y-45085000D03*
%TO.N,Net-(D8-K)*%
X92710000Y-41910000D03*
%TO.N,Net-(D9-K)*%
X92075000Y-40640000D03*
%TO.N,Net-(R17-Pad2)*%
X40640000Y-20320000D03*
%TD*%
D27*
%TO.N,+5V*%
X11430000Y-111760000D02*
X2000000Y-102330000D01*
D28*
X25400000Y-111760000D02*
X22860000Y-111760000D01*
X45720000Y-34290000D02*
X43180000Y-34290000D01*
X22860000Y-37465000D02*
X22860000Y-38100000D01*
D29*
X139700000Y-81280000D02*
X137160000Y-78740000D01*
D27*
X5080000Y-37079980D02*
X5080000Y-16510000D01*
D28*
X60960000Y-48260000D02*
X63500000Y-45720000D01*
X111420000Y-105750000D02*
X111420000Y-106340000D01*
D27*
X20320000Y-109220000D02*
X12700000Y-109220000D01*
D28*
X117708630Y-66580000D02*
X121190000Y-66580000D01*
X58420000Y-48260000D02*
X59690000Y-48260000D01*
D30*
X95070000Y-15420000D02*
X95070000Y-27760000D01*
X95070000Y-27760000D02*
X96520000Y-29210000D01*
D31*
X179070000Y-71120000D02*
X180340000Y-71120000D01*
D27*
X2000000Y-99060000D02*
X2540000Y-99060000D01*
D28*
X5802621Y-38100000D02*
X5802621Y-36742379D01*
D27*
X2540000Y-99060000D02*
X15240000Y-111760000D01*
D28*
X25400000Y-113030000D02*
X11430000Y-113030000D01*
D27*
X41275000Y-97587641D02*
X39370000Y-99492641D01*
D28*
X130080000Y-32233604D02*
X133406396Y-35560000D01*
D27*
X5080000Y-16510000D02*
X12700000Y-8890000D01*
D28*
X40640000Y-104140000D02*
X41275000Y-103505000D01*
X38100000Y-116840000D02*
X40640000Y-114300000D01*
X41910000Y-102870000D02*
X41910000Y-99060000D01*
X96520000Y-29210000D02*
X96520000Y-53340000D01*
D29*
X137950000Y-83030000D02*
X139700000Y-81280000D01*
D28*
X116840000Y-67448630D02*
X117708630Y-66580000D01*
X22860000Y-36195000D02*
X24130000Y-34925000D01*
D32*
X124460000Y-68580000D02*
X127000000Y-71120000D01*
D28*
X109220000Y-97870000D02*
X109220000Y-83820000D01*
D32*
X116840000Y-19050000D02*
X115570000Y-17780000D01*
D28*
X63500000Y-13890000D02*
X65500000Y-15890000D01*
D32*
X160020000Y-22860000D02*
X161435000Y-21445000D01*
D28*
X64770000Y-48260000D02*
X60960000Y-48260000D01*
D27*
X11430000Y-111760000D02*
X22860000Y-111760000D01*
D32*
X115570000Y-8890000D02*
X115570000Y-12700000D01*
D28*
X96520000Y-53340000D02*
X111760000Y-68580000D01*
D29*
X142240000Y-96520000D02*
X137950000Y-92230000D01*
D27*
X2000000Y-40005000D02*
X2154980Y-40005000D01*
D28*
X111760000Y-68580000D02*
X116840000Y-68580000D01*
D27*
X39370000Y-114300000D02*
X36270000Y-117400000D01*
D32*
X60960000Y-34290000D02*
X63500000Y-34290000D01*
D28*
X43180000Y-83820000D02*
X44450000Y-82550000D01*
X111420000Y-106340000D02*
X111760000Y-106680000D01*
X121190000Y-66580000D02*
X121920000Y-67310000D01*
X116840000Y-68580000D02*
X116840000Y-67448630D01*
X29845000Y-34925000D02*
X30560000Y-35640000D01*
X24130000Y-34925000D02*
X29845000Y-34925000D01*
X44450000Y-35560000D02*
X44450000Y-34290000D01*
X121920000Y-67310000D02*
X121920000Y-68580000D01*
X133406396Y-35560000D02*
X140970000Y-35560000D01*
X35560000Y-8970000D02*
X38100000Y-11510000D01*
D27*
X41275000Y-86995000D02*
X44450000Y-83820000D01*
D32*
X161435000Y-16365000D02*
X162560000Y-15240000D01*
D27*
X2154980Y-40005000D02*
X5080000Y-37079980D01*
X2000000Y-99060000D02*
X2000000Y-40005000D01*
D31*
X178430000Y-68580000D02*
X178430000Y-70480000D01*
D28*
X22860000Y-37465000D02*
X20955000Y-35560000D01*
D30*
X111760000Y-15240000D02*
X113030000Y-16510000D01*
D32*
X115570000Y-17780000D02*
X115570000Y-12700000D01*
D28*
X143510000Y-38100000D02*
X143510000Y-54610000D01*
X30560000Y-35640000D02*
X30560000Y-36830000D01*
X43180000Y-101600000D02*
X43180000Y-83820000D01*
D31*
X143740000Y-98020000D02*
X143740000Y-107720000D01*
D27*
X2000000Y-102330000D02*
X2000000Y-99060000D01*
D28*
X38100000Y-11510000D02*
X38100000Y-22860000D01*
D27*
X44450000Y-83387359D02*
X44450000Y-35560000D01*
D28*
X130080000Y-24860000D02*
X130080000Y-32233604D01*
X113960000Y-70190000D02*
X115570000Y-68580000D01*
X63500000Y-45720000D02*
X63500000Y-29210000D01*
X113960000Y-79080000D02*
X113960000Y-70190000D01*
D29*
X137950000Y-92230000D02*
X137950000Y-83030000D01*
D28*
X65500000Y-15890000D02*
X65500000Y-27210000D01*
D32*
X127000000Y-71120000D02*
X127000000Y-76200000D01*
D28*
X132080000Y-22860000D02*
X132080000Y-15240000D01*
X109220000Y-83820000D02*
X111760000Y-81280000D01*
D27*
X41275000Y-86995000D02*
X41275000Y-97587641D01*
X26655937Y-117400000D02*
X24130000Y-114874063D01*
X23420000Y-117400000D02*
X17780000Y-111760000D01*
D31*
X178430000Y-70480000D02*
X179070000Y-71120000D01*
D28*
X5802621Y-36742379D02*
X7620000Y-34925000D01*
D32*
X161435000Y-21445000D02*
X161435000Y-16365000D01*
D28*
X20320000Y-34925000D02*
X20955000Y-35560000D01*
X111420000Y-105070000D02*
X111760000Y-105410000D01*
X64135000Y-28575000D02*
X63500000Y-29210000D01*
D31*
X121920000Y-68580000D02*
X121920000Y-60960000D01*
D27*
X22860000Y-111760000D02*
X20320000Y-109220000D01*
X36270000Y-117400000D02*
X26655937Y-117400000D01*
D28*
X111420000Y-100070000D02*
X111420000Y-105070000D01*
X65500000Y-27210000D02*
X64135000Y-28575000D01*
D30*
X113030000Y-16510000D02*
X113030000Y-29210000D01*
D28*
X64135000Y-28575000D02*
X64770000Y-29210000D01*
D31*
X142240000Y-96520000D02*
X143740000Y-98020000D01*
D30*
X96520000Y-13970000D02*
X95070000Y-15420000D01*
D28*
X25400000Y-111760000D02*
X25400000Y-113030000D01*
X40640000Y-114300000D02*
X40640000Y-104140000D01*
X41275000Y-103505000D02*
X43180000Y-101600000D01*
X55880000Y-48260000D02*
X58420000Y-48260000D01*
D32*
X116840000Y-7620000D02*
X115570000Y-8890000D01*
D28*
X109220000Y-97870000D02*
X111420000Y-100070000D01*
X137160000Y-60960000D02*
X137160000Y-63500000D01*
X7620000Y-34925000D02*
X20320000Y-34925000D01*
D27*
X39370000Y-99492641D02*
X39370000Y-114300000D01*
D31*
X143740000Y-107720000D02*
X142240000Y-109220000D01*
D28*
X111760000Y-105410000D02*
X111420000Y-105750000D01*
X132080000Y-15240000D02*
X133350000Y-15240000D01*
X111760000Y-81280000D02*
X113960000Y-79080000D01*
D27*
X24130000Y-114874063D02*
X24130000Y-113030000D01*
D28*
X140970000Y-35560000D02*
X143510000Y-38100000D01*
X115570000Y-68580000D02*
X116840000Y-68580000D01*
X143510000Y-54610000D02*
X137160000Y-60960000D01*
X41275000Y-103505000D02*
X41910000Y-102870000D01*
D29*
X137160000Y-78740000D02*
X137160000Y-60960000D01*
D30*
X113030000Y-29210000D02*
X111760000Y-30480000D01*
D28*
X132080000Y-22860000D02*
X130080000Y-24860000D01*
X59690000Y-48260000D02*
X60960000Y-48260000D01*
D32*
X116840000Y-22860000D02*
X116840000Y-19050000D01*
D27*
X26655937Y-117400000D02*
X23420000Y-117400000D01*
D28*
X22860000Y-38100000D02*
X22860000Y-36195000D01*
X43180000Y-101600000D02*
X48260000Y-101600000D01*
X64770000Y-29210000D02*
X64770000Y-48260000D01*
D27*
%TO.N,-10V*%
X34925000Y-63500000D02*
X34290000Y-62865000D01*
X50800000Y-63500000D02*
X50800000Y-50800000D01*
X34925000Y-91440000D02*
X34925000Y-63500000D01*
X31115000Y-62865000D02*
X31115000Y-91500937D01*
D28*
X151130000Y-5080000D02*
X152400000Y-6350000D01*
X34925000Y-91440000D02*
X35120000Y-91635000D01*
X59610000Y-43260000D02*
X59690000Y-43180000D01*
X31945000Y-91880000D02*
X34095000Y-91880000D01*
X30920000Y-97389849D02*
X31535076Y-98004925D01*
X152400000Y-6350000D02*
X152400000Y-7620000D01*
D27*
X35560000Y-63500000D02*
X38100000Y-60960000D01*
D28*
X63300000Y-24210000D02*
X61300000Y-22210000D01*
X30040000Y-92575937D02*
X30040000Y-96520000D01*
D27*
X50800000Y-50800000D02*
X49530000Y-49530000D01*
X33020000Y-63500000D02*
X30480000Y-60960000D01*
X33580000Y-98924063D02*
X31462968Y-96807031D01*
D28*
X30920000Y-92905000D02*
X31945000Y-91880000D01*
X58420000Y-31750000D02*
X57150000Y-33020000D01*
X24130000Y-49530000D02*
X22860000Y-48260000D01*
X30480000Y-111760000D02*
X35560000Y-111760000D01*
X157480000Y-13970000D02*
X157480000Y-26670000D01*
X152400000Y-8890000D02*
X157480000Y-13970000D01*
X58420000Y-41910000D02*
X58420000Y-31750000D01*
X35120000Y-91635000D02*
X35120000Y-95055000D01*
X57150000Y-33020000D02*
X57150000Y-41910000D01*
X63300000Y-26171270D02*
X63300000Y-24210000D01*
D32*
X167005000Y-32385000D02*
X168045000Y-32385000D01*
D27*
X33580000Y-110490000D02*
X33580000Y-98214063D01*
D28*
X30920000Y-95690000D02*
X30920000Y-92905000D01*
X33655000Y-96520000D02*
X33020000Y-96520000D01*
X30480000Y-111760000D02*
X33020000Y-111760000D01*
X55880000Y-43260000D02*
X52070000Y-47070000D01*
D27*
X38100000Y-60960000D02*
X33020000Y-60960000D01*
D28*
X98520000Y-10970000D02*
X98520000Y-22210000D01*
D32*
X168045000Y-43585000D02*
X170180000Y-45720000D01*
D28*
X50800000Y-45720000D02*
X53260000Y-43260000D01*
X149780000Y-5080000D02*
X151130000Y-5080000D01*
D31*
X48260000Y-48260000D02*
X52070000Y-48260000D01*
D28*
X52070000Y-64770000D02*
X52070000Y-46990000D01*
X50800000Y-63500000D02*
X50800000Y-45720000D01*
X152400000Y-7620000D02*
X152400000Y-8890000D01*
X53340000Y-66040000D02*
X52070000Y-64770000D01*
X98520000Y-22210000D02*
X96520000Y-24210000D01*
X32590151Y-99060000D02*
X30480000Y-96949849D01*
X35120000Y-95055000D02*
X33655000Y-96520000D01*
D32*
X162560000Y-27940000D02*
X167005000Y-32385000D01*
D28*
X55880000Y-43260000D02*
X57070000Y-43260000D01*
D27*
X34365000Y-90880000D02*
X34925000Y-91440000D01*
X33020000Y-60960000D02*
X31115000Y-62865000D01*
D28*
X157480000Y-26670000D02*
X158750000Y-27940000D01*
D27*
X31115000Y-91500937D02*
X31735937Y-90880000D01*
D28*
X61300000Y-11090000D02*
X63500000Y-8890000D01*
X57070000Y-43260000D02*
X58420000Y-41910000D01*
D27*
X35560000Y-63500000D02*
X33020000Y-63500000D01*
D28*
X96520000Y-8970000D02*
X98520000Y-10970000D01*
D27*
X30480000Y-60960000D02*
X30480000Y-50800000D01*
D28*
X22860000Y-48260000D02*
X22860000Y-45720000D01*
D27*
X50800000Y-63500000D02*
X49530000Y-64770000D01*
X49530000Y-64770000D02*
X50800000Y-66040000D01*
D28*
X34095000Y-91880000D02*
X35560000Y-93345000D01*
D31*
X48260000Y-43180000D02*
X49530000Y-43180000D01*
D28*
X30040000Y-96520000D02*
X33020000Y-96520000D01*
X30560000Y-49530000D02*
X24130000Y-49530000D01*
X61300000Y-22210000D02*
X61300000Y-11090000D01*
X53260000Y-43260000D02*
X55880000Y-43260000D01*
X55880000Y-43260000D02*
X59610000Y-43260000D01*
X55880000Y-33591270D02*
X63300000Y-26171270D01*
D32*
X168045000Y-32385000D02*
X168045000Y-43585000D01*
D31*
X49530000Y-43180000D02*
X50800000Y-44450000D01*
D28*
X31115000Y-91500937D02*
X30040000Y-92575937D01*
D27*
X31735937Y-90880000D02*
X34365000Y-90880000D01*
D28*
X53340000Y-66040000D02*
X50800000Y-63500000D01*
X35560000Y-111760000D02*
X35560000Y-91440000D01*
X158750000Y-27940000D02*
X159965000Y-27940000D01*
X55880000Y-43260000D02*
X55880000Y-33591270D01*
D30*
%TO.N,Net-(C8-Pad1)*%
X30480000Y-7620000D02*
X34036000Y-11176000D01*
X34036000Y-39116000D02*
X35560000Y-40640000D01*
X34036000Y-11176000D02*
X34036000Y-39116000D01*
D28*
%TO.N,GND*%
X35560000Y-36830000D02*
X37560000Y-38830000D01*
X182735000Y-58910000D02*
X183020000Y-59195000D01*
X35560000Y-13970000D02*
X35560000Y-36830000D01*
D31*
X157480000Y-76200000D02*
X157480000Y-72390000D01*
D32*
X149860000Y-106043604D02*
X149860000Y-106680000D01*
D28*
X134080000Y-86900000D02*
X132080000Y-88900000D01*
X157480000Y-86360000D02*
X157480000Y-76200000D01*
X50800000Y-91440000D02*
X50800000Y-88900000D01*
D32*
X151130000Y-95250000D02*
X151130000Y-104773604D01*
D28*
X57150000Y-106680000D02*
X57150000Y-109220000D01*
X106680000Y-111760000D02*
X109220000Y-109220000D01*
X137160000Y-104140000D02*
X140335000Y-104140000D01*
X180120862Y-58910000D02*
X182735000Y-58910000D01*
X50800000Y-88900000D02*
X50800000Y-87630000D01*
D32*
X149860000Y-93980000D02*
X151130000Y-95250000D01*
D28*
X107950000Y-109220000D02*
X106680000Y-110490000D01*
X140240000Y-103320000D02*
X142040000Y-101520000D01*
X178430000Y-60960000D02*
X178430000Y-60600862D01*
D32*
X152400000Y-93980000D02*
X153670000Y-95250000D01*
D28*
X107020000Y-81020000D02*
X111760000Y-76280000D01*
X109220000Y-102870000D02*
X107950000Y-102870000D01*
D27*
X57150000Y-95383044D02*
X57150000Y-107950000D01*
D28*
X181610000Y-104140000D02*
X180340000Y-104140000D01*
D31*
X163691370Y-71120000D02*
X165100000Y-69711370D01*
D28*
X183020000Y-85140000D02*
X181800000Y-86360000D01*
X57150000Y-15240000D02*
X58420000Y-16510000D01*
X106680000Y-110490000D02*
X100330000Y-110490000D01*
X180340000Y-116840000D02*
X181610000Y-116840000D01*
D32*
X152400000Y-105730991D02*
X152400000Y-106680000D01*
D28*
X154940000Y-88900000D02*
X157480000Y-86360000D01*
D31*
X157480000Y-72390000D02*
X158750000Y-71120000D01*
D32*
X153670000Y-104460991D02*
X152400000Y-105730991D01*
D28*
X182880000Y-115570000D02*
X182880000Y-105410000D01*
D32*
X151130000Y-104773604D02*
X149860000Y-106043604D01*
D31*
X158750000Y-71120000D02*
X163691370Y-71120000D01*
D28*
X57150000Y-96520000D02*
X57150000Y-106680000D01*
D32*
X38100000Y-91440000D02*
X38100000Y-96520000D01*
D28*
X55875000Y-15240000D02*
X57150000Y-15240000D01*
X107950000Y-102870000D02*
X107950000Y-109220000D01*
D32*
X152400000Y-93980000D02*
X149860000Y-93980000D01*
D28*
X99060000Y-111760000D02*
X106680000Y-111760000D01*
X178430000Y-60600862D02*
X180120862Y-58910000D01*
X58420000Y-27940000D02*
X55880000Y-30480000D01*
X181800000Y-86360000D02*
X180340000Y-86360000D01*
X182880000Y-105410000D02*
X181610000Y-104140000D01*
D27*
X53206956Y-91440000D02*
X57150000Y-95383044D01*
D29*
X142240000Y-99060000D02*
X132080000Y-88900000D01*
D28*
X132080000Y-76200000D02*
X134080000Y-78200000D01*
X182880000Y-105410000D02*
X182880000Y-88900000D01*
X109220000Y-102870000D02*
X107020000Y-100670000D01*
X140240000Y-112220000D02*
X140240000Y-103320000D01*
D32*
X153670000Y-95250000D02*
X153670000Y-104460991D01*
D28*
X181610000Y-116840000D02*
X182880000Y-115570000D01*
X50800000Y-91440000D02*
X52070000Y-91440000D01*
X58420000Y-16510000D02*
X58420000Y-27940000D01*
D32*
X154940000Y-88900000D02*
X154940000Y-91440000D01*
D29*
X142240000Y-101520000D02*
X142240000Y-99060000D01*
D28*
X52070000Y-91440000D02*
X57150000Y-96520000D01*
X35560000Y-49530000D02*
X35560000Y-53420000D01*
X134080000Y-78200000D02*
X134080000Y-86900000D01*
X35560000Y-53420000D02*
X38100000Y-55960000D01*
X183020000Y-59195000D02*
X183020000Y-85140000D01*
D32*
X154940000Y-91440000D02*
X152400000Y-93980000D01*
D31*
X165100000Y-60960000D02*
X165100000Y-68580000D01*
X165100000Y-69711370D02*
X165100000Y-68580000D01*
D28*
X142240000Y-114220000D02*
X140240000Y-112220000D01*
X182880000Y-88900000D02*
X180340000Y-86360000D01*
X37560000Y-47530000D02*
X35560000Y-49530000D01*
X37560000Y-38830000D02*
X37560000Y-47530000D01*
X109220000Y-109220000D02*
X109220000Y-102870000D01*
X107020000Y-100670000D02*
X107020000Y-81020000D01*
D27*
X52070000Y-91440000D02*
X53206956Y-91440000D01*
D32*
%TO.N,Net-(D5-A)*%
X172720000Y-7620000D02*
X177800000Y-12700000D01*
X177800000Y-12700000D02*
X177800000Y-15240000D01*
%TO.N,RAM2-0*%
X101600000Y-3175000D02*
X101600000Y-7620000D01*
X137160000Y-40640000D02*
X135888604Y-39368604D01*
X128903604Y-39368604D02*
X125730000Y-36195000D01*
X135888604Y-39368604D02*
X128903604Y-39368604D01*
X102235000Y-2540000D02*
X101600000Y-3175000D01*
X152400000Y-40640000D02*
X152400000Y-60960000D01*
X125730000Y-36195000D02*
X125730000Y-3810000D01*
X124460000Y-2540000D02*
X102235000Y-2540000D01*
X125730000Y-3810000D02*
X124460000Y-2540000D01*
%TO.N,Net-(D6-A)*%
X118110000Y-55245000D02*
X119380000Y-56515000D01*
X118110000Y-44450000D02*
X118110000Y-55245000D01*
X119380000Y-56515000D02*
X119380000Y-60960000D01*
X116840000Y-43180000D02*
X118110000Y-44450000D01*
%TO.N,RAM2-1*%
X125095000Y-36285000D02*
X125095000Y-4443604D01*
X132080000Y-40640000D02*
X129450000Y-40640000D01*
X123826396Y-3175000D02*
X104775000Y-3175000D01*
X104775000Y-3175000D02*
X104140000Y-3810000D01*
X104140000Y-3810000D02*
X104140000Y-7620000D01*
X151130000Y-41910000D02*
X151130000Y-62230000D01*
X129450000Y-40640000D02*
X125095000Y-36285000D01*
X151130000Y-62230000D02*
X152400000Y-63500000D01*
X125095000Y-4443604D02*
X123826396Y-3175000D01*
%TO.N,Net-(D7-A)*%
X111760000Y-43180000D02*
X115615000Y-47035000D01*
X115615000Y-59735000D02*
X116840000Y-60960000D01*
X115615000Y-47035000D02*
X115615000Y-59735000D01*
%TO.N,RAM2-2*%
X124460000Y-4445000D02*
X123825000Y-3810000D01*
X107315000Y-3810000D02*
X106680000Y-4445000D01*
X125730000Y-40640000D02*
X124460000Y-39370000D01*
X124460000Y-39370000D02*
X124460000Y-4445000D01*
X127000000Y-40640000D02*
X125730000Y-40640000D01*
X149860000Y-63500000D02*
X149860000Y-43180000D01*
X106680000Y-4445000D02*
X106680000Y-7620000D01*
X152400000Y-66040000D02*
X149860000Y-63500000D01*
X123825000Y-3810000D02*
X107315000Y-3810000D01*
%TO.N,Net-(D8-A)*%
X110535000Y-57195000D02*
X114300000Y-60960000D01*
X110535000Y-47035000D02*
X110535000Y-57195000D01*
X106680000Y-43180000D02*
X110535000Y-47035000D01*
%TO.N,RAM2-3*%
X124010000Y-36195000D02*
X124010000Y-5265000D01*
X123010500Y-4265500D02*
X110034500Y-4265500D01*
X123010500Y-4265500D02*
X124010000Y-5265000D01*
X152400000Y-68580000D02*
X148590000Y-64770000D01*
X110034500Y-4265500D02*
X109220000Y-5080000D01*
X121920000Y-38285000D02*
X124010000Y-36195000D01*
X148590000Y-64770000D02*
X148590000Y-44450000D01*
X121920000Y-40640000D02*
X121920000Y-38285000D01*
X109220000Y-5080000D02*
X109220000Y-7620000D01*
%TO.N,Net-(D9-A)*%
X105455000Y-47035000D02*
X105455000Y-54655000D01*
X101600000Y-43180000D02*
X105455000Y-47035000D01*
X105455000Y-54655000D02*
X111760000Y-60960000D01*
%TO.N,Net-(D10-A)*%
X134620000Y-45720000D02*
X134620000Y-60960000D01*
X137160000Y-43180000D02*
X134620000Y-45720000D01*
%TO.N,Net-(D11-A)*%
X132080000Y-43180000D02*
X130855000Y-44405000D01*
X130855000Y-44405000D02*
X130855000Y-59735000D01*
X130855000Y-59735000D02*
X132080000Y-60960000D01*
%TO.N,BANK4*%
X91350000Y-18960000D02*
X90805000Y-18415000D01*
X91350000Y-47535000D02*
X91350000Y-18960000D01*
X170815000Y-73025000D02*
X170180000Y-73660000D01*
X170815000Y-55880000D02*
X170815000Y-73025000D01*
X91440000Y-47625000D02*
X91350000Y-47535000D01*
%TO.N,Net-(D12-A)*%
X129540000Y-60960000D02*
X129540000Y-45720000D01*
X129540000Y-45720000D02*
X127000000Y-43180000D01*
%TO.N,BANK5*%
X90715000Y-20230000D02*
X90170000Y-19685000D01*
X90715000Y-48805000D02*
X90715000Y-20230000D01*
X169545000Y-56515000D02*
X169545000Y-71755000D01*
X169545000Y-71755000D02*
X167640000Y-73660000D01*
X90805000Y-48895000D02*
X90715000Y-48805000D01*
%TO.N,Net-(D13-A)*%
X127000000Y-60960000D02*
X125775000Y-59735000D01*
X125775000Y-59735000D02*
X125775000Y-47035000D01*
X125775000Y-47035000D02*
X121920000Y-43180000D01*
%TO.N,BANK6*%
X90080000Y-50075000D02*
X90080000Y-21500000D01*
X90080000Y-21500000D02*
X89535000Y-20955000D01*
X168275000Y-70485000D02*
X165100000Y-73660000D01*
X168275000Y-57150000D02*
X168275000Y-70485000D01*
%TO.N,Net-(D14-A)*%
X116840000Y-57150000D02*
X118110000Y-58420000D01*
X118110000Y-62230000D02*
X119380000Y-63500000D01*
X118110000Y-58420000D02*
X118110000Y-62230000D01*
X116840000Y-53340000D02*
X116840000Y-57150000D01*
%TO.N,BANK7*%
X89535000Y-51435000D02*
X89445000Y-51345000D01*
X167005000Y-57785000D02*
X167005000Y-69215000D01*
X89445000Y-51345000D02*
X89445000Y-22770000D01*
X89445000Y-22770000D02*
X88900000Y-22225000D01*
X167005000Y-69215000D02*
X162560000Y-73660000D01*
%TO.N,Net-(D15-A)*%
X111760000Y-53340000D02*
X111760000Y-56516396D01*
X115570000Y-62230000D02*
X116840000Y-63500000D01*
X115570000Y-60326396D02*
X115570000Y-62230000D01*
X111760000Y-56516396D02*
X115570000Y-60326396D01*
%TO.N,BANK0*%
X137160000Y-50800000D02*
X137160000Y-46990000D01*
X120650000Y-33022792D02*
X123280000Y-30392792D01*
X123280000Y-30392792D02*
X123280000Y-18505000D01*
X179070000Y-72390000D02*
X180340000Y-73660000D01*
X175895000Y-70485000D02*
X175895000Y-53340000D01*
X177800000Y-72390000D02*
X179070000Y-72390000D01*
X123280000Y-18505000D02*
X123190000Y-18415000D01*
X122555000Y-46756838D02*
X120650000Y-44851838D01*
X120650000Y-44851838D02*
X120650000Y-33022792D01*
X175895000Y-70485000D02*
X177800000Y-72390000D01*
%TO.N,Net-(D16-A)*%
X113175000Y-60471396D02*
X113175000Y-62375000D01*
X106680000Y-53340000D02*
X106680000Y-53976396D01*
X106680000Y-53976396D02*
X113175000Y-60471396D01*
X113175000Y-62375000D02*
X114300000Y-63500000D01*
%TO.N,BANK1*%
X174625000Y-70485000D02*
X177800000Y-73660000D01*
X121285000Y-47553245D02*
X121213245Y-47553245D01*
X120015000Y-46355000D02*
X120015000Y-33021396D01*
X122555000Y-19685000D02*
X122645000Y-19775000D01*
X132080000Y-50800000D02*
X132080000Y-47625000D01*
X121213245Y-47553245D02*
X120015000Y-46355000D01*
X174625000Y-53975000D02*
X174625000Y-70485000D01*
X120015000Y-33021396D02*
X122645000Y-30391396D01*
X122645000Y-30391396D02*
X122645000Y-19775000D01*
%TO.N,Net-(D17-A)*%
X101600000Y-53340000D02*
X111760000Y-63500000D01*
%TO.N,BANK2*%
X122010000Y-29755000D02*
X122010000Y-21045000D01*
X121920000Y-29845000D02*
X122010000Y-29755000D01*
X127000000Y-48260000D02*
X127000000Y-50800000D01*
X119380000Y-33020000D02*
X121920000Y-30480000D01*
X119380000Y-47625000D02*
X119380000Y-33020000D01*
X175260000Y-73025000D02*
X175260000Y-73660000D01*
X122010000Y-21045000D02*
X121920000Y-20955000D01*
X120015000Y-48260000D02*
X119380000Y-47625000D01*
X121920000Y-30480000D02*
X121920000Y-29845000D01*
X173355000Y-71120000D02*
X175260000Y-73025000D01*
X173355000Y-54610000D02*
X173355000Y-71120000D01*
%TO.N,BANK3*%
X118745000Y-48895000D02*
X118745000Y-32705991D01*
X172085000Y-73025000D02*
X172720000Y-73660000D01*
X120650000Y-50800000D02*
X118745000Y-48895000D01*
X121920000Y-50800000D02*
X120650000Y-50800000D01*
X118745000Y-32705991D02*
X121285000Y-30165991D01*
X172085000Y-55245000D02*
X172085000Y-73025000D01*
X121285000Y-30165991D02*
X121285000Y-22225000D01*
%TO.N,Net-(D19-A)*%
X133205000Y-54465000D02*
X133205000Y-62375000D01*
X132080000Y-53340000D02*
X133205000Y-54465000D01*
X133205000Y-62375000D02*
X132080000Y-63500000D01*
%TO.N,Net-(D20-A)*%
X128415000Y-62375000D02*
X129540000Y-63500000D01*
X127000000Y-53340000D02*
X128415000Y-54755000D01*
X128415000Y-54755000D02*
X128415000Y-62375000D01*
%TO.N,Net-(D21-A)*%
X124460000Y-55880000D02*
X124460000Y-60960000D01*
X124460000Y-60960000D02*
X127000000Y-63500000D01*
X121920000Y-53340000D02*
X124460000Y-55880000D01*
%TO.N,Net-(D22-K)*%
X179015000Y-101545000D02*
X179070000Y-101600000D01*
X180340000Y-83820000D02*
X179015000Y-85145000D01*
X179015000Y-85145000D02*
X179015000Y-101545000D01*
X167640000Y-104140000D02*
X166370000Y-105410000D01*
X166370000Y-115570000D02*
X167640000Y-116840000D01*
X180340000Y-83820000D02*
X180340000Y-81280000D01*
X166370000Y-105410000D02*
X166370000Y-115570000D01*
%TO.N,Net-(D23-K)*%
X177800000Y-83820000D02*
X176530000Y-85090000D01*
X168910000Y-115570000D02*
X170180000Y-116840000D01*
X170180000Y-104140000D02*
X168910000Y-105410000D01*
X168910000Y-105410000D02*
X168910000Y-115570000D01*
X176530000Y-85090000D02*
X176530000Y-102324500D01*
X177800000Y-83820000D02*
X177800000Y-81280000D01*
%TO.N,Net-(D24-K)*%
X172720000Y-104140000D02*
X171450000Y-105410000D01*
X173845000Y-85235000D02*
X173845000Y-103015000D01*
X171450000Y-105410000D02*
X171450000Y-115570000D01*
X173845000Y-103015000D02*
X172720000Y-104140000D01*
X175260000Y-83820000D02*
X173845000Y-85235000D01*
X175260000Y-83820000D02*
X175260000Y-81280000D01*
X171450000Y-115570000D02*
X172720000Y-116840000D01*
%TO.N,Net-(D25-K)*%
X166370000Y-104460991D02*
X165100000Y-105730991D01*
X171305000Y-87775000D02*
X165100000Y-93980000D01*
X165100000Y-105730991D02*
X165100000Y-106680000D01*
X172720000Y-83820000D02*
X171305000Y-85235000D01*
X165100000Y-93980000D02*
X166370000Y-95250000D01*
X171305000Y-85235000D02*
X171305000Y-87775000D01*
X172720000Y-83820000D02*
X172720000Y-81280000D01*
X166370000Y-95250000D02*
X166370000Y-104460991D01*
%TO.N,Net-(D26-K)*%
X163830000Y-104460991D02*
X162560000Y-105730991D01*
X168765000Y-87775000D02*
X162560000Y-93980000D01*
X163830000Y-95250000D02*
X163830000Y-104460991D01*
X162560000Y-93980000D02*
X163830000Y-95250000D01*
X170180000Y-83820000D02*
X170180000Y-81280000D01*
X168765000Y-85235000D02*
X168765000Y-87775000D01*
X162560000Y-105730991D02*
X162560000Y-106680000D01*
X170180000Y-83820000D02*
X168765000Y-85235000D01*
%TO.N,Net-(D27-K)*%
X167640000Y-83820000D02*
X166225000Y-85235000D01*
X166225000Y-85235000D02*
X166225000Y-87775000D01*
X160020000Y-93980000D02*
X161290000Y-95250000D01*
X166225000Y-87775000D02*
X160020000Y-93980000D01*
X161290000Y-95250000D02*
X161290000Y-104773604D01*
X167640000Y-83820000D02*
X167640000Y-81280000D01*
X160020000Y-106043604D02*
X160020000Y-106680000D01*
X161290000Y-104773604D02*
X160020000Y-106043604D01*
%TO.N,Net-(D28-K)*%
X163685000Y-87775000D02*
X157480000Y-93980000D01*
X158605000Y-95105000D02*
X158605000Y-104918604D01*
X157480000Y-93980000D02*
X158605000Y-95105000D01*
X157480000Y-106043604D02*
X157480000Y-106680000D01*
X165100000Y-83820000D02*
X165100000Y-81280000D01*
X158605000Y-104918604D02*
X157480000Y-106043604D01*
X163685000Y-85235000D02*
X163685000Y-87775000D01*
X165100000Y-83820000D02*
X163685000Y-85235000D01*
%TO.N,Net-(D29-K)*%
X161290000Y-85090000D02*
X161290000Y-87630000D01*
X154940000Y-105730991D02*
X154940000Y-106680000D01*
X162560000Y-83820000D02*
X161290000Y-85090000D01*
X162560000Y-83820000D02*
X162560000Y-81280000D01*
X156210000Y-95250000D02*
X156210000Y-104460991D01*
X156210000Y-104460991D02*
X154940000Y-105730991D01*
X154940000Y-93980000D02*
X156210000Y-95250000D01*
X161290000Y-87630000D02*
X154940000Y-93980000D01*
%TO.N,Net-(D30-K)*%
X116840000Y-111760000D02*
X116840000Y-104140000D01*
X125730000Y-105410000D02*
X125730000Y-115570000D01*
X127000000Y-104140000D02*
X125730000Y-105410000D01*
X125730000Y-115570000D02*
X124460000Y-116840000D01*
X121920000Y-116840000D02*
X116840000Y-111760000D01*
%TO.N,Net-(D31-K)*%
X121920000Y-114300000D02*
X119380000Y-111760000D01*
X119380000Y-111760000D02*
X119380000Y-104140000D01*
%TO.N,Net-(D32-K)*%
X121920000Y-111760000D02*
X120795000Y-110635000D01*
X120795000Y-105265000D02*
X121920000Y-104140000D01*
X120795000Y-110635000D02*
X120795000Y-105265000D01*
%TO.N,Net-(D33-K)*%
X124460000Y-102235000D02*
X124460000Y-104140000D01*
X121920000Y-109220000D02*
X121920000Y-106680000D01*
X121920000Y-106680000D02*
X124460000Y-104140000D01*
%TO.N,CMRAM0*%
X128905000Y-8255000D02*
X128270000Y-7620000D01*
X67310000Y-36830000D02*
X67310000Y-17780000D01*
X68580000Y-38100000D02*
X67310000Y-36830000D01*
X128905000Y-17145000D02*
X127000000Y-19050000D01*
X128905000Y-17145000D02*
X128905000Y-8255000D01*
X80010000Y-17780000D02*
X80010000Y-19685000D01*
X68580000Y-43180000D02*
X68580000Y-38100000D01*
X81280000Y-20955000D02*
X81280000Y-22860000D01*
X80010000Y-19685000D02*
X81280000Y-20955000D01*
X128270000Y-7620000D02*
X127000000Y-7620000D01*
%TO.N,CMRAM1*%
X80010000Y-34925000D02*
X80010000Y-21590000D01*
X78232000Y-19812000D02*
X78232000Y-17272000D01*
X80010000Y-21590000D02*
X78232000Y-19812000D01*
X127000000Y-17145000D02*
X127000000Y-12700000D01*
X78232000Y-17272000D02*
X77470000Y-16510000D01*
%TO.N,Net-(R7-Pad1)*%
X142240000Y-19050000D02*
X142240000Y-22860000D01*
%TO.N,Net-(J1-Pin_5)*%
X175260000Y-12700000D02*
X175260000Y-29210000D01*
X169055000Y-6495000D02*
X175260000Y-12700000D01*
X166225000Y-6495000D02*
X169055000Y-6495000D01*
X165100000Y-7620000D02*
X166225000Y-6495000D01*
X176530000Y-30480000D02*
X180340000Y-30480000D01*
X175260000Y-29210000D02*
X176530000Y-30480000D01*
D30*
%TO.N,/ClockGen/CLK1*%
X81280000Y-59690000D02*
X82550000Y-60960000D01*
X82550000Y-76200000D02*
X83820000Y-77470000D01*
X81280000Y-48260000D02*
X82550000Y-46990000D01*
X114300000Y-15240000D02*
X114300000Y-17780000D01*
X115570000Y-19050000D02*
X115570000Y-26035000D01*
X81280000Y-15240000D02*
X81280000Y-17780000D01*
X83820000Y-77470000D02*
X83820000Y-81280000D01*
X115570000Y-26035000D02*
X114300000Y-27305000D01*
X81280000Y-50800000D02*
X81280000Y-59690000D01*
X82550000Y-60960000D02*
X82550000Y-76200000D01*
X81280000Y-27940000D02*
X81280000Y-30480000D01*
X82550000Y-19050000D02*
X82550000Y-26670000D01*
X82550000Y-34290000D02*
X81280000Y-33020000D01*
X81280000Y-50800000D02*
X81280000Y-48260000D01*
X82550000Y-46990000D02*
X82550000Y-34290000D01*
X82550000Y-26670000D02*
X81280000Y-27940000D01*
X114300000Y-27305000D02*
X114300000Y-30480000D01*
X81280000Y-33020000D02*
X81280000Y-30480000D01*
X114300000Y-17780000D02*
X115570000Y-19050000D01*
X81280000Y-17780000D02*
X82550000Y-19050000D01*
%TO.N,/ClockGen/CLK2*%
X85090000Y-34290000D02*
X83820000Y-33020000D01*
X116840000Y-15240000D02*
X116840000Y-17780000D01*
X85090000Y-26670000D02*
X83820000Y-27940000D01*
X83820000Y-50800000D02*
X83820000Y-59690000D01*
X83820000Y-59690000D02*
X85090000Y-60960000D01*
X83820000Y-27940000D02*
X83820000Y-30480000D01*
X118110000Y-19050000D02*
X118110000Y-26035000D01*
X85090000Y-76200000D02*
X86360000Y-77470000D01*
X83820000Y-33020000D02*
X83820000Y-30480000D01*
X85090000Y-19050000D02*
X85090000Y-26670000D01*
X85090000Y-60960000D02*
X85090000Y-76200000D01*
X116840000Y-27305000D02*
X116840000Y-30480000D01*
X83820000Y-17780000D02*
X85090000Y-19050000D01*
X86360000Y-77470000D02*
X86360000Y-81280000D01*
X83820000Y-50800000D02*
X83820000Y-48260000D01*
X116840000Y-17780000D02*
X118110000Y-19050000D01*
X83820000Y-15240000D02*
X83820000Y-17780000D01*
X83820000Y-48260000D02*
X85090000Y-46990000D01*
X118110000Y-26035000D02*
X116840000Y-27305000D01*
X85090000Y-46990000D02*
X85090000Y-34290000D01*
D32*
%TO.N,ROM_P27*%
X51435000Y-94615000D02*
X45720000Y-88900000D01*
X52825000Y-94735000D02*
X52705000Y-94615000D01*
X50800000Y-109220000D02*
X52825000Y-107195000D01*
X52705000Y-94615000D02*
X51435000Y-94615000D01*
X52825000Y-107195000D02*
X52825000Y-94735000D01*
%TO.N,ROM_P26*%
X45720000Y-91440000D02*
X47390991Y-91440000D01*
X47390991Y-91440000D02*
X52375000Y-96424009D01*
X52375000Y-105105000D02*
X48260000Y-109220000D01*
X52375000Y-96424009D02*
X52375000Y-105105000D01*
%TO.N,ROM_P2*%
X45720000Y-93980000D02*
X51925000Y-100185000D01*
X51925000Y-103015000D02*
X45720000Y-109220000D01*
X51925000Y-100185000D02*
X51925000Y-103015000D01*
%TO.N,ROM_P1*%
X49585000Y-102815000D02*
X43180000Y-109220000D01*
X49585000Y-100385000D02*
X49585000Y-102815000D01*
X45720000Y-96520000D02*
X49585000Y-100385000D01*
%TO.N,Net-(U1-K)*%
X152400000Y-20320000D02*
X151130000Y-20320000D01*
X149860000Y-19050000D02*
X149860000Y-15240000D01*
X151130000Y-20320000D02*
X149860000Y-19050000D01*
%TO.N,Net-(U12-EP)*%
X53340000Y-22860000D02*
X53340000Y-34290000D01*
%TO.N,Net-(U20-I{slash}O1)*%
X54610000Y-116840000D02*
X60510000Y-110940000D01*
X54610000Y-76200000D02*
X55880000Y-74930000D01*
X60510000Y-88450000D02*
X54610000Y-82550000D01*
X60510000Y-110940000D02*
X60510000Y-88450000D01*
X55880000Y-74930000D02*
X55880000Y-66040000D01*
X54610000Y-82550000D02*
X54610000Y-76200000D01*
%TO.N,Net-(U20-I{slash}O2)*%
X60960000Y-113030000D02*
X60960000Y-86360000D01*
X60960000Y-86360000D02*
X57150000Y-82550000D01*
X57150000Y-76200000D02*
X58420000Y-74930000D01*
X57874500Y-116115500D02*
X60960000Y-113030000D01*
X58420000Y-74930000D02*
X58420000Y-66040000D01*
X57150000Y-82550000D02*
X57150000Y-76200000D01*
X57150000Y-116115500D02*
X57874500Y-116115500D01*
%TO.N,Net-(U20-I{slash}O3)*%
X59690000Y-115391000D02*
X59869000Y-115391000D01*
X59690000Y-82550000D02*
X59690000Y-76200000D01*
X59690000Y-76200000D02*
X60960000Y-74930000D01*
X59869000Y-115391000D02*
X61780000Y-113480000D01*
X60960000Y-74930000D02*
X60960000Y-66040000D01*
X61780000Y-84640000D02*
X59690000Y-82550000D01*
X61780000Y-113480000D02*
X61780000Y-84640000D01*
%TO.N,Net-(U20-I{slash}O4)*%
X63500000Y-66040000D02*
X63500000Y-74930000D01*
X63500000Y-74930000D02*
X62230000Y-76200000D01*
X62230000Y-76200000D02*
X62230000Y-114666500D01*
%TO.N,/ProgramMemory/RESET*%
X93980000Y-81280000D02*
X93980000Y-77470000D01*
X86360000Y-19050000D02*
X86360000Y-22860000D01*
X118110000Y-8890000D02*
X118110000Y-17780000D01*
X85090000Y-17780000D02*
X86360000Y-19050000D01*
X86360000Y-4990500D02*
X86360000Y-7620000D01*
X85090000Y-8890000D02*
X85090000Y-17780000D01*
X86360000Y-26670000D02*
X85090000Y-27940000D01*
X118110000Y-17780000D02*
X119380000Y-19050000D01*
X86360000Y-22860000D02*
X86360000Y-26670000D01*
X119380000Y-27940000D02*
X119380000Y-22860000D01*
X86360000Y-43180000D02*
X86360000Y-34290000D01*
X86360000Y-7620000D02*
X85090000Y-8890000D01*
X86360000Y-46533172D02*
X86360000Y-43180000D01*
X93980000Y-77470000D02*
X92710000Y-76200000D01*
X119380000Y-7620000D02*
X118110000Y-8890000D01*
X86360000Y-34290000D02*
X85090000Y-33020000D01*
X85090000Y-58420000D02*
X85090000Y-47803172D01*
X85090000Y-47803172D02*
X86360000Y-46533172D01*
X119380000Y-19050000D02*
X119380000Y-22860000D01*
X85090000Y-27940000D02*
X85090000Y-33020000D01*
X92710000Y-76200000D02*
X92710000Y-58420000D01*
%TO.N,/ProgramMemory/D0*%
X67310000Y-57150000D02*
X55880000Y-57150000D01*
X55880000Y-57150000D02*
X54610000Y-58420000D01*
X102870000Y-29210000D02*
X101600000Y-30480000D01*
X68580000Y-55880000D02*
X67310000Y-57150000D01*
X54665000Y-74875000D02*
X53340000Y-76200000D01*
X69850000Y-18415000D02*
X68580000Y-17145000D01*
X68580000Y-50800000D02*
X68580000Y-55880000D01*
X102870000Y-16510000D02*
X102870000Y-29210000D01*
X54665000Y-58475000D02*
X54665000Y-74875000D01*
X101600000Y-15240000D02*
X102870000Y-16510000D01*
X69850000Y-29210000D02*
X69850000Y-18415000D01*
X68580000Y-17145000D02*
X68580000Y-15240000D01*
X68580000Y-48260000D02*
X69850000Y-46990000D01*
X68580000Y-30480000D02*
X69850000Y-29210000D01*
X53340000Y-76200000D02*
X53340000Y-81280000D01*
X69850000Y-46990000D02*
X69850000Y-31750000D01*
X54610000Y-58420000D02*
X54665000Y-58475000D01*
X68580000Y-50800000D02*
X68580000Y-48260000D01*
X69850000Y-31750000D02*
X68580000Y-30480000D01*
%TO.N,/ProgramMemory/D1*%
X69850000Y-58420000D02*
X58420000Y-58420000D01*
X105410000Y-29210000D02*
X104140000Y-30480000D01*
X104140000Y-15240000D02*
X105410000Y-16510000D01*
X57150000Y-59690000D02*
X57150000Y-74930000D01*
X57150000Y-74930000D02*
X55880000Y-76200000D01*
X71120000Y-30480000D02*
X72390000Y-29210000D01*
X58420000Y-58420000D02*
X57150000Y-59690000D01*
X71120000Y-17145000D02*
X71120000Y-15240000D01*
X72390000Y-31750000D02*
X71120000Y-30480000D01*
X72390000Y-18415000D02*
X71120000Y-17145000D01*
X72390000Y-46990000D02*
X72390000Y-31750000D01*
X71120000Y-48260000D02*
X72390000Y-46990000D01*
X55880000Y-76200000D02*
X55880000Y-81280000D01*
X71120000Y-50800000D02*
X71120000Y-48260000D01*
X72390000Y-29210000D02*
X72390000Y-18415000D01*
X105410000Y-16510000D02*
X105410000Y-29210000D01*
X71120000Y-50800000D02*
X71120000Y-57150000D01*
X71120000Y-57150000D02*
X69850000Y-58420000D01*
%TO.N,/ProgramMemory/D2*%
X74930000Y-18415000D02*
X73660000Y-17145000D01*
X74930000Y-46990000D02*
X74930000Y-31750000D01*
X73660000Y-50800000D02*
X73660000Y-58420000D01*
X106680000Y-15240000D02*
X107950000Y-16510000D01*
X74930000Y-31750000D02*
X73660000Y-30480000D01*
X72390000Y-59690000D02*
X60960000Y-59690000D01*
X59690000Y-74930000D02*
X58420000Y-76200000D01*
X73660000Y-58420000D02*
X72390000Y-59690000D01*
X73660000Y-50800000D02*
X73660000Y-48260000D01*
X107950000Y-29210000D02*
X106680000Y-30480000D01*
X59690000Y-60960000D02*
X59690000Y-74930000D01*
X73660000Y-30480000D02*
X74930000Y-29210000D01*
X60960000Y-59690000D02*
X59690000Y-60960000D01*
X73660000Y-17145000D02*
X73660000Y-15240000D01*
X73660000Y-48260000D02*
X74930000Y-46990000D01*
X58420000Y-76200000D02*
X58420000Y-81280000D01*
X74930000Y-29210000D02*
X74930000Y-18415000D01*
X107950000Y-16510000D02*
X107950000Y-29210000D01*
%TO.N,/ProgramMemory/D3*%
X109220000Y-15240000D02*
X110490000Y-16510000D01*
X76200000Y-50800000D02*
X76200000Y-59690000D01*
X74930000Y-60960000D02*
X63500000Y-60960000D01*
X77470000Y-31750000D02*
X76200000Y-30480000D01*
X62230000Y-62230000D02*
X62230000Y-74930000D01*
X76200000Y-30480000D02*
X77470000Y-29210000D01*
X76200000Y-50800000D02*
X76200000Y-48260000D01*
X110490000Y-16510000D02*
X110490000Y-29210000D01*
X76200000Y-48260000D02*
X77470000Y-46990000D01*
X60960000Y-76200000D02*
X60960000Y-81280000D01*
X77470000Y-18415000D02*
X76200000Y-17145000D01*
X77470000Y-46990000D02*
X77470000Y-31750000D01*
X62230000Y-74930000D02*
X60960000Y-76200000D01*
X77470000Y-29210000D02*
X77470000Y-18415000D01*
X76200000Y-59690000D02*
X74930000Y-60960000D01*
X63500000Y-60960000D02*
X62230000Y-62230000D01*
X76200000Y-17145000D02*
X76200000Y-15240000D01*
X110490000Y-29210000D02*
X109220000Y-30480000D01*
%TO.N,/ProgramMemory/SYNC*%
X119380000Y-15240000D02*
X120650000Y-16510000D01*
X86360000Y-15240000D02*
X87485000Y-16365000D01*
X87485000Y-16365000D02*
X87485000Y-29355000D01*
X120560000Y-16600000D02*
X120560000Y-29120000D01*
D30*
X87630000Y-34290000D02*
X87630000Y-38100000D01*
X86360000Y-50800000D02*
X86360000Y-59690000D01*
X87630000Y-46990000D02*
X86360000Y-48260000D01*
X86360000Y-33020000D02*
X87630000Y-34290000D01*
X87630000Y-60960000D02*
X87630000Y-76200000D01*
X86360000Y-30480000D02*
X86360000Y-33020000D01*
X87630000Y-76200000D02*
X88900000Y-77470000D01*
D32*
X120650000Y-16510000D02*
X120560000Y-16600000D01*
X120650000Y-29210000D02*
X119380000Y-30480000D01*
D30*
X87630000Y-38100000D02*
X87630000Y-46990000D01*
X86360000Y-59690000D02*
X87630000Y-60960000D01*
D32*
X120560000Y-29120000D02*
X120650000Y-29210000D01*
X87485000Y-29355000D02*
X86360000Y-30480000D01*
D30*
X88900000Y-77470000D02*
X88900000Y-81280000D01*
X86360000Y-48260000D02*
X86360000Y-50800000D01*
D32*
%TO.N,/ProgramMemory/CM*%
X80010000Y-59690000D02*
X80010000Y-48260000D01*
X91440000Y-77470000D02*
X90170000Y-76200000D01*
X81280000Y-46990000D02*
X81280000Y-43180000D01*
X90170000Y-76200000D02*
X90170000Y-59690000D01*
X91440000Y-81280000D02*
X91440000Y-77470000D01*
X80010000Y-48260000D02*
X81280000Y-46990000D01*
%TO.N,Net-(U1-Vo)*%
X137160000Y-19050000D02*
X146050000Y-10160000D01*
X146050000Y-10160000D02*
X148590000Y-10160000D01*
X137160000Y-22860000D02*
X137160000Y-19050000D01*
X149860000Y-8890000D02*
X149860000Y-7620000D01*
X148590000Y-10160000D02*
X149860000Y-8890000D01*
%TO.N,Net-(U4-TEST)*%
X147320000Y-35560000D02*
X147320000Y-39370000D01*
X143365000Y-26525000D02*
X143365000Y-31605000D01*
X139700000Y-22860000D02*
X143365000Y-26525000D01*
X143365000Y-31605000D02*
X147320000Y-35560000D01*
%TO.N,Net-(U12-CLOCK)*%
X45720000Y-19050000D02*
X45715000Y-19045000D01*
X45715000Y-19045000D02*
X45715000Y-15240000D01*
X40640000Y-27940000D02*
X44450000Y-24130000D01*
X44450000Y-24130000D02*
X44450000Y-20320000D01*
X40640000Y-30480000D02*
X40640000Y-27940000D01*
X44450000Y-20320000D02*
X45720000Y-19050000D01*
%TO.N,Net-(U12-QB)*%
X48255000Y-15240000D02*
X46994762Y-13979762D01*
X45720000Y-21590000D02*
X48255000Y-19055000D01*
X45720000Y-22860000D02*
X45720000Y-21590000D01*
X46994762Y-13979762D02*
X46994762Y-5572969D01*
X48255000Y-19055000D02*
X48255000Y-15240000D01*
%TO.N,Net-(U12-QC)*%
X50795000Y-13975000D02*
X53340000Y-11430000D01*
X50795000Y-19045000D02*
X50795000Y-15240000D01*
X48260000Y-21590000D02*
X50800000Y-19050000D01*
X50800000Y-19050000D02*
X50795000Y-19045000D01*
X48260000Y-22860000D02*
X48260000Y-21590000D01*
X50795000Y-15240000D02*
X50795000Y-13975000D01*
X53335000Y-11425000D02*
X53335000Y-7620000D01*
X53340000Y-11430000D02*
X53335000Y-11425000D01*
%TO.N,~{OE}*%
X142240000Y-93472000D02*
X144965000Y-96197000D01*
X176530000Y-115570000D02*
X177800000Y-116840000D01*
X144272000Y-115058162D02*
X144272000Y-110236000D01*
X144965000Y-109543000D02*
X144965000Y-96197000D01*
X176530000Y-105410000D02*
X176530000Y-115570000D01*
X81280000Y-91440000D02*
X81280000Y-96520000D01*
X142240000Y-88900000D02*
X142240000Y-93472000D01*
X144272000Y-110236000D02*
X144965000Y-109543000D01*
X177800000Y-104140000D02*
X176530000Y-105410000D01*
%TO.N,Net-(U12-LOAD)*%
X53335000Y-19045000D02*
X53335000Y-15240000D01*
X55880000Y-22860000D02*
X55880000Y-21590000D01*
X55880000Y-21590000D02*
X53335000Y-19045000D01*
%TO.N,Net-(U13-Pad4)*%
X124460000Y-88900000D02*
X124460000Y-86360000D01*
%TO.N,~{CS_ROM}*%
X104775000Y-97790000D02*
X104775000Y-69850000D01*
X148590000Y-87630000D02*
X149860000Y-88900000D01*
X148590000Y-73660000D02*
X148590000Y-87630000D01*
%TO.N,~{CS_RAM}*%
X145415000Y-114210500D02*
X145325500Y-114300000D01*
X152400000Y-88900000D02*
X152400000Y-91440000D01*
X173990000Y-105410000D02*
X173990000Y-115570000D01*
X175260000Y-104140000D02*
X173990000Y-105410000D01*
X152400000Y-91440000D02*
X151765000Y-92075000D01*
X173990000Y-115570000D02*
X175260000Y-116840000D01*
X146685000Y-92075000D02*
X145415000Y-93345000D01*
X151765000Y-92075000D02*
X146685000Y-92075000D01*
X145415000Y-93345000D02*
X145415000Y-114210500D01*
%TO.N,Net-(U14-Pad8)*%
X130755000Y-79955000D02*
X132080000Y-81280000D01*
X132080000Y-68580000D02*
X130755000Y-69905000D01*
X130755000Y-69905000D02*
X130755000Y-79955000D01*
%TO.N,C0*%
X76200000Y-76200000D02*
X76200000Y-66040000D01*
X74930000Y-77470000D02*
X76200000Y-76200000D01*
X73660000Y-91440000D02*
X74930000Y-90170000D01*
X74930000Y-90170000D02*
X74930000Y-77470000D01*
X73660000Y-96520000D02*
X73660000Y-91440000D01*
%TO.N,C1*%
X73660000Y-66040000D02*
X73660000Y-76200000D01*
X73660000Y-76200000D02*
X72390000Y-77470000D01*
X72390000Y-77470000D02*
X72390000Y-94615000D01*
%TO.N,C2*%
X71120000Y-66040000D02*
X71120000Y-76200000D01*
X69850000Y-91440000D02*
X69850000Y-77470000D01*
X71120000Y-76200000D02*
X69850000Y-77470000D01*
%TO.N,C3*%
X68580000Y-66040000D02*
X68580000Y-76200000D01*
X68580000Y-76200000D02*
X67310000Y-77470000D01*
X67310000Y-91440000D02*
X67310000Y-77470000D01*
%TO.N,Net-(U19-G1)*%
X140970000Y-87630000D02*
X139700000Y-88900000D01*
X113030000Y-102870000D02*
X114300000Y-104140000D01*
X121920000Y-71755000D02*
X121920000Y-76200000D01*
X140970000Y-71755000D02*
X140970000Y-87630000D01*
X99060000Y-81280000D02*
X99060000Y-71755000D01*
X113030000Y-83185000D02*
X113030000Y-102870000D01*
%TO.N,Net-(U20-FL)*%
X144780000Y-91529500D02*
X144780000Y-88900000D01*
X100240000Y-67220000D02*
X99060000Y-66040000D01*
X100240000Y-90715000D02*
X100240000Y-67220000D01*
X100330000Y-90805000D02*
X100240000Y-90715000D01*
%TO.N,Net-(U19-G2)*%
X120505000Y-77325000D02*
X120505000Y-90315000D01*
X119380000Y-76200000D02*
X120505000Y-77325000D01*
X119380000Y-76200000D02*
X119380000Y-71030500D01*
X116840000Y-93980000D02*
X116840000Y-96520000D01*
X120505000Y-90315000D02*
X116840000Y-93980000D01*
%TO.N,Net-(U16-A7)*%
X164465000Y-123190000D02*
X71755000Y-123190000D01*
X165100000Y-122555000D02*
X164465000Y-123190000D01*
X77470000Y-90170000D02*
X74930000Y-92710000D01*
X71120000Y-105410000D02*
X71120000Y-111760000D01*
X74930000Y-101600000D02*
X71120000Y-105410000D01*
X165100000Y-116840000D02*
X165100000Y-122555000D01*
X71120000Y-122555000D02*
X71120000Y-111760000D01*
X78740000Y-66040000D02*
X78740000Y-76200000D01*
X163830000Y-105410000D02*
X163830000Y-115570000D01*
X74930000Y-92710000D02*
X74930000Y-101600000D01*
X77470000Y-77470000D02*
X77470000Y-90170000D01*
X165100000Y-104140000D02*
X163830000Y-105410000D01*
X78740000Y-76200000D02*
X77470000Y-77470000D01*
X163830000Y-115570000D02*
X165100000Y-116840000D01*
X71755000Y-123190000D02*
X71120000Y-122555000D01*
%TO.N,Net-(U16-A6)*%
X161290000Y-105410000D02*
X161290000Y-115570000D01*
X80010000Y-90170000D02*
X77470000Y-92710000D01*
X73660000Y-105410000D02*
X73660000Y-111760000D01*
X73660000Y-121920000D02*
X73660000Y-111760000D01*
X77470000Y-92710000D02*
X77470000Y-101600000D01*
X77470000Y-101600000D02*
X73660000Y-105410000D01*
X81280000Y-66040000D02*
X81280000Y-76200000D01*
X161925000Y-122555000D02*
X74295000Y-122555000D01*
X74295000Y-122555000D02*
X73660000Y-121920000D01*
X162560000Y-104140000D02*
X161290000Y-105410000D01*
X162560000Y-121920000D02*
X161925000Y-122555000D01*
X161290000Y-115570000D02*
X162560000Y-116840000D01*
X80010000Y-77470000D02*
X80010000Y-90170000D01*
X81280000Y-76200000D02*
X80010000Y-77470000D01*
X162560000Y-116840000D02*
X162560000Y-121920000D01*
%TO.N,Net-(U16-A5)*%
X83820000Y-76200000D02*
X83820000Y-66040000D01*
X85090000Y-77470000D02*
X83820000Y-76200000D01*
X158750000Y-115570000D02*
X160020000Y-116840000D01*
X158750000Y-105410000D02*
X158750000Y-115570000D01*
X159385000Y-121920000D02*
X76835000Y-121920000D01*
X83820000Y-83185000D02*
X85090000Y-81915000D01*
X76200000Y-111760000D02*
X76200000Y-105410000D01*
X80010000Y-92710000D02*
X80460000Y-92260000D01*
X76200000Y-105410000D02*
X80010000Y-101600000D01*
X160020000Y-104140000D02*
X158750000Y-105410000D01*
X76200000Y-121285000D02*
X76200000Y-111760000D01*
X80460000Y-84640000D02*
X81915000Y-83185000D01*
X80010000Y-101600000D02*
X80010000Y-92710000D01*
X160020000Y-121285000D02*
X159385000Y-121920000D01*
X80460000Y-92260000D02*
X80460000Y-84640000D01*
X76835000Y-121920000D02*
X76200000Y-121285000D01*
X160020000Y-116840000D02*
X160020000Y-121285000D01*
X85090000Y-81915000D02*
X85090000Y-77470000D01*
X81915000Y-83185000D02*
X83820000Y-83185000D01*
%TO.N,Net-(U16-A4)*%
X156210000Y-115570000D02*
X157480000Y-116840000D01*
X156210000Y-105410000D02*
X156210000Y-115570000D01*
X156845000Y-121285000D02*
X79375000Y-121285000D01*
X157480000Y-120650000D02*
X156845000Y-121285000D01*
X86360000Y-83820000D02*
X87630000Y-82550000D01*
X79375000Y-121285000D02*
X78740000Y-120650000D01*
X157480000Y-104140000D02*
X156210000Y-105410000D01*
X87630000Y-82550000D02*
X87630000Y-77470000D01*
X78740000Y-120650000D02*
X78740000Y-111760000D01*
X87630000Y-77470000D02*
X86360000Y-76200000D01*
X83185000Y-83820000D02*
X86360000Y-83820000D01*
X82550000Y-84455000D02*
X83185000Y-83820000D01*
X86360000Y-76200000D02*
X86360000Y-66040000D01*
X82550000Y-101600000D02*
X82550000Y-84455000D01*
X78740000Y-105410000D02*
X82550000Y-101600000D01*
X157480000Y-116840000D02*
X157480000Y-120650000D01*
X78740000Y-111760000D02*
X78740000Y-105410000D01*
%TO.N,Net-(U16-A3)*%
X154940000Y-104140000D02*
X153670000Y-105410000D01*
X88265000Y-84455000D02*
X90170000Y-82550000D01*
X81280000Y-111760000D02*
X81280000Y-105410000D01*
X85725000Y-84455000D02*
X88265000Y-84455000D01*
X154940000Y-120015000D02*
X154305000Y-120650000D01*
X153670000Y-105410000D02*
X153670000Y-115570000D01*
X90170000Y-82550000D02*
X90170000Y-77470000D01*
X90170000Y-77470000D02*
X88900000Y-76200000D01*
X85090000Y-85090000D02*
X85725000Y-84455000D01*
X81280000Y-105410000D02*
X85090000Y-101600000D01*
X81280000Y-120015000D02*
X81280000Y-111760000D01*
X154305000Y-120650000D02*
X81915000Y-120650000D01*
X153670000Y-115570000D02*
X154940000Y-116840000D01*
X88900000Y-76200000D02*
X88900000Y-66040000D01*
X81915000Y-120650000D02*
X81280000Y-120015000D01*
X85090000Y-101600000D02*
X85090000Y-85090000D01*
X154940000Y-116840000D02*
X154940000Y-120015000D01*
%TO.N,Net-(U16-A2)*%
X151130000Y-115570000D02*
X152400000Y-116840000D01*
X152400000Y-104140000D02*
X151130000Y-105410000D01*
X84455000Y-120015000D02*
X83820000Y-119380000D01*
X87630000Y-85725000D02*
X88265000Y-85090000D01*
X151765000Y-120015000D02*
X84455000Y-120015000D01*
X83820000Y-119380000D02*
X83820000Y-111760000D01*
X83820000Y-105410000D02*
X87630000Y-101600000D01*
X83820000Y-111760000D02*
X83820000Y-105410000D01*
X89535000Y-85090000D02*
X92710000Y-81915000D01*
X152400000Y-116840000D02*
X152400000Y-119380000D01*
X92710000Y-77470000D02*
X91440000Y-76200000D01*
X152400000Y-119380000D02*
X151765000Y-120015000D01*
X87630000Y-101600000D02*
X87630000Y-85725000D01*
X88265000Y-85090000D02*
X89535000Y-85090000D01*
X92710000Y-81915000D02*
X92710000Y-77470000D01*
X91440000Y-76200000D02*
X91440000Y-66040000D01*
X151130000Y-105410000D02*
X151130000Y-115570000D01*
%TO.N,Net-(U16-A1)*%
X93980000Y-76200000D02*
X93980000Y-66040000D01*
X86360000Y-105410000D02*
X90170000Y-101600000D01*
X86360000Y-118745000D02*
X86360000Y-111760000D01*
X86995000Y-119380000D02*
X86360000Y-118745000D01*
X149860000Y-104140000D02*
X148590000Y-105410000D01*
X149860000Y-118745000D02*
X149225000Y-119380000D01*
X95250000Y-77470000D02*
X93980000Y-76200000D01*
X93980000Y-83820000D02*
X95250000Y-82550000D01*
X86360000Y-111760000D02*
X86360000Y-105410000D01*
X90170000Y-101600000D02*
X90170000Y-86360000D01*
X149225000Y-119380000D02*
X86995000Y-119380000D01*
X90170000Y-86360000D02*
X92710000Y-83820000D01*
X92710000Y-83820000D02*
X93980000Y-83820000D01*
X149860000Y-116840000D02*
X149860000Y-118745000D01*
X148590000Y-115570000D02*
X149860000Y-116840000D01*
X148590000Y-105410000D02*
X148590000Y-115570000D01*
X95250000Y-82550000D02*
X95250000Y-77470000D01*
%TO.N,Net-(U16-A0)*%
X88900000Y-105410000D02*
X92710000Y-101600000D01*
X92710000Y-86360000D02*
X95250000Y-83820000D01*
X97790000Y-77470000D02*
X96520000Y-76200000D01*
X89535000Y-118745000D02*
X88900000Y-118110000D01*
X96520000Y-83820000D02*
X97790000Y-82550000D01*
X95250000Y-83820000D02*
X96520000Y-83820000D01*
X97790000Y-82550000D02*
X97790000Y-77470000D01*
X147320000Y-118110000D02*
X146685000Y-118745000D01*
X146685000Y-118745000D02*
X89535000Y-118745000D01*
X146050000Y-105410000D02*
X146050000Y-115570000D01*
X96520000Y-76200000D02*
X96520000Y-66040000D01*
X92710000Y-101600000D02*
X92710000Y-86360000D01*
X88900000Y-118110000D02*
X88900000Y-111760000D01*
X147320000Y-104140000D02*
X146050000Y-105410000D01*
X147320000Y-116840000D02*
X147320000Y-118110000D01*
X88900000Y-111760000D02*
X88900000Y-105410000D01*
X146050000Y-115570000D02*
X147320000Y-116840000D01*
%TO.N,Net-(U16-D0)*%
X100965000Y-99060000D02*
X101055000Y-98970000D01*
X100965000Y-99060000D02*
X97790000Y-99060000D01*
X101055000Y-98970000D02*
X101055000Y-88355000D01*
X101055000Y-88355000D02*
X100965000Y-88265000D01*
X91440000Y-105410000D02*
X91440000Y-111760000D01*
X170180000Y-93980000D02*
X170180000Y-98881000D01*
X97790000Y-99060000D02*
X91440000Y-105410000D01*
%TO.N,Net-(U16-D1)*%
X98425000Y-100330000D02*
X93980000Y-104775000D01*
X172720000Y-93980000D02*
X172720000Y-99605500D01*
X102235000Y-100330000D02*
X102235000Y-87630000D01*
X121920000Y-99695000D02*
X121920000Y-96520000D01*
X93980000Y-104775000D02*
X93980000Y-111760000D01*
X102235000Y-100330000D02*
X98425000Y-100330000D01*
%TO.N,Net-(U16-D2)*%
X103505000Y-100330000D02*
X103505000Y-86995000D01*
X98552000Y-101600000D02*
X96520000Y-103632000D01*
X103505000Y-101600000D02*
X98552000Y-101600000D01*
X175260000Y-93980000D02*
X175260000Y-100330000D01*
X96520000Y-103632000D02*
X96520000Y-111760000D01*
X104140000Y-100965000D02*
X103505000Y-101600000D01*
X103505000Y-100330000D02*
X104140000Y-100965000D01*
X124460000Y-100330000D02*
X124460000Y-96520000D01*
%TO.N,Net-(U16-D3)*%
X99060000Y-85635500D02*
X99060000Y-96520000D01*
%TO.N,Net-(U16-D4)*%
X128415000Y-97645000D02*
X128415000Y-110635000D01*
X129540000Y-96520000D02*
X128415000Y-97645000D01*
X96520000Y-90170000D02*
X96520000Y-96520000D01*
X128415000Y-110635000D02*
X128905000Y-111125000D01*
%TO.N,Net-(U16-D5)*%
X130810000Y-97790000D02*
X130810000Y-111760000D01*
X132080000Y-96520000D02*
X130810000Y-97790000D01*
X93980000Y-89445500D02*
X93980000Y-96520000D01*
%TO.N,Net-(U16-D6)*%
X91440000Y-88810500D02*
X91440000Y-96520000D01*
X133350000Y-97790000D02*
X133350000Y-112395000D01*
X134620000Y-96520000D02*
X133350000Y-97790000D01*
%TO.N,Net-(U16-D7)*%
X137160000Y-96520000D02*
X135890000Y-97790000D01*
X135835000Y-112975000D02*
X135890000Y-113030000D01*
X135890000Y-97790000D02*
X135835000Y-97845000D01*
X135835000Y-97845000D02*
X135835000Y-112975000D01*
X88900000Y-88175500D02*
X88900000Y-96520000D01*
D30*
%TO.N,Net-(C9-Pad1)*%
X32010000Y-42170000D02*
X32010000Y-14230000D01*
X32010000Y-14230000D02*
X25400000Y-7620000D01*
X35560000Y-45720000D02*
X32010000Y-42170000D01*
D31*
%TO.N,Net-(C10-Pad1)*%
X12700000Y-22860000D02*
X12700000Y-27940000D01*
X17780000Y-15240000D02*
X17780000Y-17780000D01*
X17780000Y-17780000D02*
X12700000Y-22860000D01*
D32*
%TO.N,Net-(D37-A)*%
X22860000Y-91440000D02*
X22860000Y-93980000D01*
%TO.N,Net-(U10-Pad13)*%
X43175000Y-7620000D02*
X44450000Y-8895000D01*
X44450000Y-8895000D02*
X44450000Y-17780000D01*
%TO.N,Net-(U10-Pad8)*%
X22860000Y-7620000D02*
X22860000Y-3810000D01*
%TO.N,Net-(U10-Pad10)*%
X20320000Y-7620000D02*
X20320000Y-4848469D01*
%TO.N,Net-(C4-Pad1)*%
X170180000Y-27940000D02*
X165100000Y-27940000D01*
X165100000Y-27940000D02*
X162560000Y-25400000D01*
X162560000Y-22860000D02*
X162560000Y-25400000D01*
X170180000Y-31750000D02*
X169545000Y-32385000D01*
X170180000Y-27940000D02*
X170180000Y-31750000D01*
D30*
%TO.N,Net-(U11-IN_A)*%
X25400000Y-40640000D02*
X20320000Y-45720000D01*
X30560000Y-40640000D02*
X25400000Y-40640000D01*
D31*
%TO.N,Net-(C10-Pad2)*%
X20320000Y-15320000D02*
X22780000Y-17780000D01*
X27940000Y-22940000D02*
X27940000Y-27940000D01*
X22780000Y-17780000D02*
X27940000Y-22940000D01*
X20320000Y-15240000D02*
X20320000Y-15320000D01*
D32*
%TO.N,Net-(D6-K)*%
X147320000Y-43470000D02*
X148590000Y-42200000D01*
X94070000Y-46265000D02*
X94070000Y-3265000D01*
X68580000Y-3175000D02*
X68580000Y-7620000D01*
X147320000Y-45720000D02*
X147320000Y-43470000D01*
X148590000Y-42200000D02*
X148590000Y-24130000D01*
X69215000Y-2540000D02*
X68580000Y-3175000D01*
X148590000Y-24130000D02*
X147320000Y-22860000D01*
X93980000Y-46355000D02*
X94070000Y-46265000D01*
X94070000Y-3265000D02*
X93345000Y-2540000D01*
X93345000Y-2540000D02*
X69215000Y-2540000D01*
%TO.N,Net-(D7-K)*%
X93345000Y-45085000D02*
X93435000Y-44995000D01*
X71120000Y-3810000D02*
X71120000Y-7620000D01*
X93435000Y-3900000D02*
X92710000Y-3175000D01*
X71755000Y-3175000D02*
X71120000Y-3810000D01*
X93435000Y-44995000D02*
X93435000Y-3900000D01*
X92710000Y-3175000D02*
X71755000Y-3175000D01*
%TO.N,Net-(D8-K)*%
X74295000Y-3810000D02*
X73660000Y-4445000D01*
X92710000Y-41910000D02*
X92800000Y-41820000D01*
X73660000Y-4445000D02*
X73660000Y-7620000D01*
X92800000Y-4535000D02*
X92075000Y-3810000D01*
X92800000Y-41820000D02*
X92800000Y-4535000D01*
X92075000Y-3810000D02*
X74295000Y-3810000D01*
%TO.N,Net-(D9-K)*%
X76200000Y-5080000D02*
X76200000Y-7620000D01*
X92075000Y-5080000D02*
X91260500Y-4265500D01*
X91260500Y-4265500D02*
X77014500Y-4265500D01*
X92075000Y-40640000D02*
X92075000Y-5080000D01*
X77014500Y-4265500D02*
X76200000Y-5080000D01*
%TO.N,Net-(D18-A)*%
X135745000Y-62375000D02*
X134620000Y-63500000D01*
X135745000Y-54755000D02*
X135745000Y-62375000D01*
X137160000Y-53340000D02*
X135745000Y-54755000D01*
%TO.N,Net-(R9-Pad1)*%
X159440000Y-41220000D02*
X157480000Y-41220000D01*
X160020000Y-25400000D02*
X161290000Y-26670000D01*
X161290000Y-26670000D02*
X161290000Y-39370000D01*
X161290000Y-39370000D02*
X159440000Y-41220000D01*
%TO.N,Net-(R11-Pad1)*%
X171450000Y-39950000D02*
X171450000Y-26670000D01*
X170180000Y-41220000D02*
X171450000Y-39950000D01*
X171450000Y-26670000D02*
X170180000Y-25400000D01*
%TO.N,Net-(U14-Pad2)*%
X118110000Y-77470000D02*
X116840000Y-76200000D01*
X119380000Y-88900000D02*
X118110000Y-87630000D01*
X118110000Y-87630000D02*
X118110000Y-77470000D01*
%TO.N,Net-(U14-Pad11)*%
X128125000Y-77615000D02*
X124460000Y-81280000D01*
X129540000Y-68580000D02*
X128125000Y-69995000D01*
X128125000Y-69995000D02*
X128125000Y-77615000D01*
%TO.N,Net-(R17-Pad2)*%
X40635000Y-15240000D02*
X40635000Y-20315000D01*
X40635000Y-20315000D02*
X40640000Y-20320000D01*
%TO.N,Net-(D35-K)*%
X24130000Y-57150000D02*
X22860000Y-55880000D01*
X22860000Y-83820000D02*
X24130000Y-82550000D01*
D28*
X20320000Y-55880000D02*
X12700000Y-63500000D01*
X22860000Y-55880000D02*
X20320000Y-55880000D01*
D32*
X24130000Y-82550000D02*
X24130000Y-57150000D01*
%TD*%
M02*
